<?xml version="1.0" standalone="no"?>
<!DOCTYPE svg PUBLIC "-//W3C//DTD SVG 20010904//EN"
 "http://www.w3.org/TR/2001/REC-SVG-20010904/DTD/svg10.dtd">
<svg version="1.0" xmlns="http://www.w3.org/2000/svg"
 width="320.000000pt" height="320.000000pt" viewBox="0 0 320.000000 320.000000"
 preserveAspectRatio="xMidYMid meet">

<g transform="translate(0.000000,320.000000) scale(0.100000,-0.100000)"
fill="#000000" stroke="none">
<path d="M0 2370 l0 -831 36 3 c28 2 41 -3 55 -21 32 -40 50 -133 29 -146 -20
-12 10 -34 57 -41 66 -10 80 7 66 83 -10 57 -1 123 17 123 5 0 20 11 33 24 14
14 28 22 31 19 3 -4 6 -1 6 5 0 6 7 9 15 6 13 -5 15 10 15 103 0 96 3 116 28
174 15 35 34 73 42 82 35 41 61 67 69 67 4 0 18 9 31 20 24 20 59 26 141 21
50 -2 59 8 59 69 0 15 5 31 12 38 6 6 14 30 19 54 11 65 81 244 120 308 5 8
14 24 19 35 6 11 19 34 30 50 11 17 25 41 30 55 6 13 14 27 18 30 12 9 32 49
32 64 0 8 5 18 12 22 7 5 8 3 3 -6 -5 -8 -4 -11 3 -6 14 8 -26 73 -50 81 -15
5 -17 16 -14 68 3 61 -5 57 -19 -8 -7 -29 -7 -29 -16 -7 -4 12 -13 22 -19 22
-5 0 -11 26 -11 58 -2 56 -2 56 -11 -23 -5 -44 -9 -95 -8 -113 1 -48 -14 -68
-52 -70 -50 -3 -58 8 -63 78 -4 61 3 91 42 178 l15 33 25 -26 c14 -14 28 -23
31 -20 3 3 0 11 -6 17 -8 8 -7 14 5 24 11 7 18 29 20 54 3 50 34 84 43 48 6
-25 30 -36 30 -15 0 45 -5 47 -156 47 -125 0 -145 -2 -151 -16 -3 -9 -1 -24 5
-33 7 -9 15 -21 18 -28 7 -14 -35 -73 -51 -73 -7 0 -20 -9 -30 -20 -24 -26
-34 -25 -71 8 -23 20 -34 42 -43 84 -7 32 -10 62 -6 68 4 7 -76 10 -239 10
l-246 0 0 -830z m406 566 c19 -19 34 -39 34 -45 0 -6 6 -11 14 -11 9 0 15 -17
18 -51 3 -28 11 -55 17 -59 16 -9 10 -66 -6 -62 -7 1 -13 -4 -13 -10 0 -10 -3
-10 -9 0 -5 8 -17 12 -27 10 -11 -2 -31 10 -50 30 -21 22 -36 31 -47 26 -18
-7 -144 23 -164 39 -21 15 -15 62 10 84 12 12 37 24 56 28 49 10 101 34 101
45 0 21 33 9 66 -24z m215 -546 c36 -20 20 -180 -18 -180 -29 0 -53 22 -78 72
-32 63 -30 99 5 109 38 11 69 10 91 -1z"/>
<path d="M993 3085 c2 -63 7 -118 10 -122 4 -3 7 8 7 25 0 18 5 32 11 32 6 0
9 -6 6 -14 -3 -7 0 -19 6 -25 6 -6 10 -34 8 -62 -2 -39 1 -49 11 -43 7 4 4 -2
-6 -14 -11 -12 -14 -22 -8 -22 6 0 9 -7 6 -15 -4 -8 -2 -15 4 -15 5 0 9 10 8
23 -1 16 4 21 19 20 11 -1 14 0 8 3 -14 6 -18 25 -5 23 20 -3 35 5 81 47 50
46 65 69 37 58 -9 -4 -14 2 -14 18 0 13 -3 62 -7 111 l-8 87 -89 0 -89 0 4
-115z m47 -25 c0 -11 -4 -20 -10 -20 -5 0 -10 9 -10 20 0 11 5 20 10 20 6 0
10 -9 10 -20z"/>
<path d="M1835 3190 c25 -10 166 -42 170 -38 1 2 6 13 9 26 7 22 7 22 -96 21
-65 0 -96 -3 -83 -9z"/>
<path d="M2131 3172 c6 -18 24 -34 51 -47 30 -14 44 -28 50 -48 5 -22 4 -27
-7 -23 -19 7 -30 -10 -48 -69 l-16 -50 0 73 c-1 71 -1 72 25 72 16 0 24 5 22
13 -7 19 -40 21 -50 3 -11 -20 -42 -21 -58 -1 -7 8 -20 15 -29 15 -9 0 -22 5
-28 11 -25 25 -308 42 -349 22 -11 -5 -39 -11 -64 -12 -25 -2 -46 -7 -48 -12
-2 -5 -15 -9 -28 -9 -13 0 -24 -4 -24 -10 0 -5 -12 -13 -27 -16 -16 -4 -36
-15 -46 -25 -10 -11 -24 -19 -31 -19 -7 0 -29 -14 -47 -30 -19 -17 -44 -33
-56 -36 -13 -3 -23 -12 -23 -20 0 -8 -3 -14 -8 -14 -4 0 -22 -13 -39 -29 -17
-15 -38 -31 -47 -34 -9 -4 -16 -13 -16 -22 0 -8 -6 -15 -12 -15 -7 0 -24 -16
-37 -35 -13 -19 -27 -35 -32 -35 -5 0 -9 -6 -9 -14 0 -8 -7 -16 -15 -20 -8 -3
-15 -10 -15 -16 0 -6 -13 -31 -30 -55 -16 -24 -30 -48 -30 -53 0 -6 -3 -12 -7
-14 -9 -4 -73 -125 -73 -138 0 -5 -13 -32 -30 -60 -16 -28 -30 -62 -30 -75 0
-14 -4 -25 -10 -25 -5 0 -14 -19 -21 -42 -6 -24 -14 -47 -17 -53 -10 -15 -32
-78 -32 -92 0 -6 -5 -24 -12 -40 -6 -15 -17 -53 -25 -83 -7 -30 -15 -64 -18
-75 -2 -10 -6 -34 -7 -52 -1 -18 -6 -33 -11 -33 -5 0 -7 -16 -4 -36 3 -20 1
-44 -5 -53 -6 -10 -8 -30 -4 -46 l7 -27 102 7 c57 4 105 12 110 19 10 16 6 98
-7 115 -16 21 -25 122 -14 175 6 26 19 57 30 68 10 10 22 38 24 61 3 23 9 46
14 52 4 5 16 39 24 75 9 36 21 74 27 86 13 25 8 80 -7 77 -17 -3 -9 38 10 52
11 9 13 15 6 20 -5 3 -7 11 -4 17 5 8 1 9 -12 5 -18 -7 -18 -6 -1 7 9 7 17 18
17 23 0 6 10 18 23 27 12 9 15 14 7 10 -13 -7 -13 -5 -1 9 7 9 10 17 7 17 -4
0 -2 9 4 21 7 13 17 18 27 15 13 -5 14 -4 3 9 -10 12 -10 15 0 15 8 0 10 3 7
7 -7 6 37 71 57 85 24 17 37 7 15 -11 l-24 -19 30 5 c29 5 29 5 10 -11 -12
-10 -14 -16 -6 -14 8 3 19 13 25 24 6 10 13 21 16 24 3 3 5 17 6 33 0 28 -11
36 -19 15 -3 -8 -6 -9 -6 -2 -1 6 15 22 34 35 19 13 35 27 35 31 0 10 162 117
210 140 82 38 185 67 245 69 83 1 185 -13 220 -31 22 -11 47 -20 56 -20 36 0
45 -51 15 -89 -9 -11 -12 -9 -17 10 l-6 24 -11 -25 c-8 -21 -11 -22 -17 -8 -5
12 -15 15 -40 12 -23 -3 -35 1 -39 11 -3 8 -12 15 -19 15 -8 0 -21 8 -30 18
-16 18 -87 30 -87 15 0 -4 -28 -9 -62 -11 -35 -1 -68 -8 -77 -16 -9 -8 -33
-17 -53 -21 -21 -4 -38 -11 -38 -15 0 -4 -13 -13 -30 -19 -16 -5 -30 -15 -30
-20 0 -6 -11 -11 -25 -11 -16 0 -28 -7 -31 -17 -14 -47 -42 -88 -71 -106 -18
-10 -33 -26 -33 -34 0 -8 -9 -17 -20 -20 -12 -3 -29 -26 -42 -54 -13 -27 -26
-49 -30 -49 -5 0 -8 -9 -8 -20 0 -19 -18 -66 -33 -85 -4 -5 -16 -21 -27 -34
-11 -14 -20 -39 -20 -58 0 -42 -15 -73 -37 -73 -12 0 -14 -7 -10 -35 5 -28 2
-37 -19 -52 -22 -16 -23 -21 -13 -49 11 -27 9 -35 -16 -72 -24 -36 -27 -49
-23 -97 4 -45 1 -59 -12 -68 -10 -7 -21 -23 -25 -37 -14 -40 -12 -133 3 -149
11 -11 10 -15 -4 -26 -12 -8 -15 -20 -11 -38 l7 -25 152 -4 c110 -2 152 -6
156 -15 2 -8 20 -13 42 -13 49 0 85 -16 98 -44 8 -18 6 -21 -13 -21 -13 0 -20
5 -17 10 3 6 -4 2 -15 -8 -14 -12 -23 -15 -28 -8 -3 6 -12 11 -18 11 -7 0 -6
-4 3 -10 13 -8 12 -10 -2 -10 -10 0 -18 5 -18 11 0 5 -5 7 -12 3 -6 -4 -49 -7
-95 -7 -46 1 -83 -3 -83 -8 0 -5 -11 -8 -24 -7 -14 1 -22 6 -20 10 3 4 -9 8
-25 8 -17 0 -31 -4 -31 -10 0 -5 -5 -10 -11 -10 -5 0 -7 5 -4 10 3 6 -1 10 -9
10 -9 0 -16 -9 -16 -20 0 -11 5 -20 12 -20 6 0 8 -3 5 -6 -4 -4 -13 -1 -22 6
-8 7 -23 9 -32 6 -17 -6 -17 -5 -1 7 10 8 15 17 11 20 -3 4 -11 3 -17 -2 -6
-4 -20 -11 -30 -15 -15 -5 -16 -4 -8 7 8 10 6 13 -10 14 -12 1 -29 -2 -39 -8
-13 -7 -21 -5 -29 8 -9 15 -10 14 -4 -6 4 -16 3 -21 -5 -17 -6 4 -11 0 -11 -8
0 -9 -5 -16 -10 -16 -7 0 -7 6 0 19 13 26 13 27 -9 27 -14 0 -17 -4 -10 -12 7
-8 6 -15 -2 -20 -8 -4 -9 -3 -5 4 11 18 -19 15 -34 -3 -7 -8 -16 -13 -20 -10
-15 9 -21 -14 -10 -34 7 -14 7 -22 -1 -26 -6 -4 -7 -19 -4 -37 4 -18 2 -40 -5
-54 -11 -19 -11 -26 0 -39 9 -11 9 -15 1 -15 -7 0 -9 -5 -6 -10 4 -6 10 -8 15
-5 5 3 12 1 15 -5 5 -8 11 -8 19 -1 19 16 27 1 11 -23 -18 -28 -17 -76 2 -76
8 0 12 4 9 8 -2 4 -1 14 4 22 5 9 5 20 -2 28 -19 22 5 33 73 34 114 2 159 -2
159 -12 0 -5 -7 -6 -17 -3 -11 4 -14 3 -9 -5 5 -8 0 -12 -12 -12 -11 0 -34 -3
-52 -7 -27 -5 -32 -3 -25 8 6 11 5 12 -6 2 -7 -7 -25 -13 -41 -13 -22 0 -26 4
-21 18 4 13 3 14 -6 6 -26 -24 -2 -39 59 -39 33 0 60 3 60 7 0 4 19 6 42 4 23
-3 36 -1 29 3 -9 6 -8 11 5 22 20 16 122 22 144 8 11 -7 9 -8 -7 -4 -14 4 -23
2 -23 -4 0 -6 3 -10 8 -10 21 4 52 -2 52 -9 0 -4 -10 -9 -22 -10 -58 -5 -103
-16 -116 -28 -15 -16 -56 -19 -47 -4 3 5 -9 3 -27 -4 -18 -8 -50 -14 -71 -14
-21 0 -46 -7 -56 -16 -12 -11 -28 -14 -54 -9 -28 4 -37 2 -37 -8 0 -8 11 -15
26 -16 15 0 33 -8 41 -16 13 -13 13 -18 -2 -41 -10 -14 -22 -26 -29 -27 -6 0
-19 -2 -28 -4 -10 -2 -20 1 -24 6 -9 16 -24 10 -24 -11 0 -11 -5 -17 -13 -15
-17 7 -40 -67 -24 -77 15 -9 -24 -103 -43 -103 -8 0 -21 -7 -28 -15 -12 -13
-13 -13 -8 2 3 12 1 15 -10 11 -19 -7 -18 -20 4 -32 16 -9 16 -10 0 -16 -10
-4 -18 -11 -18 -16 0 -4 6 -6 14 -3 11 4 13 0 9 -17 -4 -15 -3 -20 6 -15 12 8
12 -14 0 -24 -11 -9 2 -70 14 -63 7 4 8 -5 4 -28 -5 -24 -4 -30 3 -19 7 10 8
0 4 -35 -3 -27 -7 -56 -10 -62 -2 -7 1 -13 6 -13 6 0 9 -3 8 -7 -2 -5 0 -8 3
-8 4 0 16 -8 26 -18 11 -9 23 -15 26 -12 4 3 3 -1 -3 -7 -7 -9 -14 -7 -25 8
-8 10 -15 14 -15 8 0 -17 25 -35 54 -38 14 -1 29 -6 34 -11 4 -4 2 -6 -3 -2
-6 3 -17 2 -25 -4 -13 -7 -13 -9 -1 -9 11 0 10 -3 -3 -13 -13 -10 -16 -20 -11
-36 6 -21 7 -22 22 -4 8 10 12 13 9 6 -4 -6 -2 -14 4 -18 5 -3 10 -13 10 -21
0 -18 -42 -36 -51 -21 -4 5 -11 1 -18 -10 -5 -11 -7 -24 -3 -27 6 -7 -24 -30
-40 -31 -4 0 -14 -9 -22 -20 -8 -11 -17 -18 -19 -15 -14 14 -26 200 -22 315 4
101 3 124 -6 105 -6 -14 -13 -50 -16 -80 -3 -30 -9 -56 -13 -58 -4 -2 -5 -12
-2 -24 4 -16 2 -19 -8 -13 -10 6 -12 4 -7 -8 4 -11 1 -17 -8 -17 -8 0 -15 -5
-15 -11 0 -5 4 -7 10 -4 6 3 7 -1 4 -9 -3 -9 -12 -16 -20 -16 -9 0 -14 -11
-14 -27 0 -29 -12 -55 -24 -54 -3 1 -8 0 -11 0 -3 -1 -18 -2 -33 -3 -16 0 -35
-6 -43 -12 -25 -20 -49 -24 -61 -10 -11 11 -15 11 -24 -1 -9 -13 -12 -13 -27
2 -16 15 -17 15 -17 0 0 -9 -4 -13 -10 -10 -5 3 -10 2 -10 -4 0 -16 -29 -1
-35 17 -2 10 -13 22 -23 29 -18 10 -18 9 -8 -28 5 -21 16 -39 23 -39 21 0 15
-27 -8 -33 -12 -3 -19 -12 -17 -19 4 -10 51 -13 219 -13 l214 0 -1 -23 c0 -19
9 -25 66 -42 37 -11 75 -20 84 -20 9 0 16 -4 16 -9 0 -11 96 -19 245 -20 77 0
105 -4 95 -11 -12 -8 -9 -10 13 -10 15 0 27 5 27 10 0 6 5 10 11 10 5 0 7 -4
4 -10 -3 -5 0 -10 9 -10 8 0 16 6 19 13 3 9 8 9 21 -2 12 -10 20 -11 24 -4 4
5 19 12 34 15 21 4 25 1 21 -11 -3 -12 -2 -12 7 2 6 10 23 17 40 17 17 0 30 5
30 13 0 7 3 8 8 2 12 -17 52 -36 52 -25 0 5 8 10 18 10 14 0 15 -2 2 -10 -17
-11 -17 -11 30 -15 295 -24 598 -25 612 -2 7 11 28 13 153 17 57 2 64 3 37 10
-17 4 -42 20 -53 34 -12 15 -24 25 -27 22 -3 -3 -11 -1 -17 4 -7 6 -45 12 -86
15 -40 3 -76 8 -79 12 -3 3 7 3 23 1 15 -3 27 -2 27 3 0 4 12 9 27 11 16 2 27
10 29 21 7 50 55 62 78 19 8 -15 23 -35 34 -45 20 -18 21 -18 38 7 16 25 21
27 88 25 39 -1 74 -6 78 -12 4 -6 55 -12 120 -13 95 -2 168 -13 168 -27 0 -1
-12 -2 -27 -2 -16 1 -37 -4 -49 -11 -11 -7 -34 -14 -50 -16 -21 -2 -30 -9 -32
-25 -3 -22 0 -23 70 -24 40 0 145 -3 233 -5 88 -3 186 -5 218 -5 32 0 55 -4
52 -9 -3 -4 3 -11 13 -15 16 -6 16 -7 0 -16 -9 -5 -32 -6 -50 -3 -18 4 -49 6
-68 4 -19 -1 -156 -4 -305 -5 -148 -2 -277 -5 -285 -7 -8 -1 161 -5 375 -8
215 -3 398 -3 407 -1 16 3 17 60 18 871 0 557 -3 871 -9 875 -7 4 -7 15 -1 31
6 14 10 95 10 180 0 122 -3 153 -12 147 -7 -4 -22 -9 -34 -10 -19 -3 -21 1
-18 48 l2 51 -34 -7 c-50 -9 -88 23 -89 75 0 21 5 38 10 37 6 -1 9 4 8 11 -2
9 19 12 82 12 l85 0 0 263 c0 191 -3 266 -12 275 -9 9 -9 12 0 12 9 0 12 42
12 160 l0 160 -539 0 -540 0 10 -28z m643 -91 c5 -7 -33 -63 -60 -90 -7 -7 8
63 18 82 9 18 33 23 42 8z m171 0 c3 -5 1 -12 -5 -16 -5 -3 -10 1 -10 9 0 18
6 21 15 7z m-643 -71 c10 0 21 -6 24 -14 3 -8 19 -18 35 -21 16 -4 29 -10 29
-14 0 -4 11 -13 25 -19 14 -6 25 -18 25 -26 0 -7 6 -16 13 -19 7 -2 21 -22 32
-43 11 -21 28 -47 37 -58 10 -11 16 -22 13 -24 -10 -10 -55 30 -71 63 -16 34
-39 51 -28 20 4 -9 0 -15 -8 -15 -8 0 -19 12 -25 28 l-11 27 -1 -32 c-1 -17 5
-33 12 -36 9 -3 9 -8 -2 -21 -12 -14 -12 -16 3 -10 20 8 21 -9 2 -25 -8 -7
-17 -23 -20 -36 -4 -14 -11 -25 -17 -25 -6 0 -8 7 -5 15 3 8 9 22 12 30 3 8 2
15 -2 15 -14 0 -31 -14 -37 -30 -4 -11 -6 -10 -6 4 -1 18 -2 18 -20 2 -13 -12
-21 -14 -26 -6 -4 6 -5 14 -2 17 9 9 -17 31 -30 26 -7 -3 -16 2 -19 11 -3 9
-14 15 -23 14 -22 -4 -16 37 10 77 18 26 15 24 -15 -7 -20 -21 -38 -38 -41
-38 -11 0 -4 30 13 59 17 32 27 34 76 15 13 -5 16 2 16 39 0 25 -5 49 -10 52
-6 4 -7 11 -4 17 4 6 10 6 17 -1 6 -6 19 -11 29 -11z m-161 -80 c16 0 16 -3 3
-30 -9 -16 -19 -32 -24 -35 -16 -10 -50 19 -50 42 0 25 30 47 45 32 5 -5 17
-9 26 -9z m1010 -90 c5 0 9 -13 9 -28 0 -16 7 -51 15 -78 17 -57 19 -104 5
-104 -6 0 -14 10 -19 23 -11 30 -30 44 -61 49 -22 3 -25 9 -28 45 -2 27 3 51
12 65 9 12 16 36 16 54 0 45 12 50 28 9 8 -19 18 -35 23 -35z m34 10 c3 -6 -1
-7 -9 -4 -18 7 -21 14 -7 14 6 0 13 -4 16 -10z m-495 -81 c0 -5 -4 -9 -10 -9
-5 0 -10 7 -10 16 0 8 5 12 10 9 6 -3 10 -10 10 -16z m-263 -49 c-24 -54 -37
-63 -37 -25 0 36 21 75 41 75 16 0 16 -4 -4 -50z m91 3 c5 -10 8 -24 6 -31 -1
-7 0 -8 3 -2 2 5 9 10 15 10 6 0 17 8 24 17 7 10 16 15 20 11 4 -4 2 -14 -4
-21 -7 -8 -9 -17 -5 -20 3 -4 -3 -10 -13 -14 -25 -9 -64 -45 -64 -59 0 -6 -7
-17 -15 -24 -13 -11 -15 -8 -15 14 0 15 -6 29 -14 32 -20 8 -30 58 -16 83 14
27 65 29 78 4z m-863 -64 c4 -6 5 -13 2 -16 -8 -7 -47 7 -47 18 0 13 37 11 45
-2z m960 -9 c3 -6 -1 -13 -9 -16 -13 -5 -13 -8 -1 -20 7 -8 21 -14 31 -14 10
0 14 -3 11 -7 -4 -3 -2 -12 4 -19 7 -9 4 -17 -13 -29 l-23 -17 22 7 c16 4 29
0 45 -14 19 -18 20 -21 4 -21 -24 0 -76 -54 -76 -79 0 -12 -5 -21 -10 -21 -6
0 -8 16 -4 43 7 45 7 45 5 65 -1 10 -6 9 -18 -4 -17 -17 -18 -17 -21 9 -2 18
-8 24 -18 20 -9 -3 -14 2 -14 15 0 11 -6 22 -12 25 -21 6 12 58 47 73 37 16
42 17 50 4z m45 -14 c0 -3 -4 -8 -10 -11 -5 -3 -10 -1 -10 4 0 6 5 11 10 11 6
0 10 -2 10 -4z m30 -45 c0 -6 -4 -13 -10 -16 -5 -3 -10 1 -10 9 0 9 5 16 10
16 6 0 10 -4 10 -9z m70 -7 c0 -17 -22 -14 -28 4 -2 7 3 12 12 12 9 0 16 -7
16 -16z m0 -64 c0 -5 -4 -12 -10 -15 -5 -3 -10 -1 -10 4 0 6 -5 11 -11 11 -6
0 -9 -9 -6 -19 3 -14 -2 -21 -19 -25 -13 -4 -28 -14 -33 -24 -9 -16 -6 -18 20
-14 31 5 41 -13 12 -22 -10 -3 -30 -17 -45 -31 -30 -28 -34 -22 -18 21 9 24 9
25 -5 14 -12 -10 -15 -10 -15 1 1 20 20 41 55 61 23 13 29 23 27 42 -2 24 -1
25 28 15 16 -6 30 -15 30 -19z m80 -54 c0 -11 -33 -36 -41 -31 -19 12 -9 35
16 35 14 0 25 -2 25 -4z m28 -54 c2 -7 -3 -12 -12 -12 -9 0 -16 7 -16 16 0 17
22 14 28 -4z m-112 -11 c8 7 17 9 20 6 4 -3 -19 -22 -50 -42 -31 -19 -56 -40
-56 -46 0 -6 13 -1 29 10 30 22 81 28 81 11 0 -5 -8 -10 -19 -10 -10 0 -25 -8
-32 -17 -11 -15 -11 -16 1 -5 15 13 60 17 60 4 0 -4 -12 -15 -27 -24 -19 -12
-23 -18 -11 -18 26 0 14 -33 -17 -46 -15 -6 -34 -22 -41 -35 -13 -22 -14 -21
-10 22 1 25 6 52 11 58 6 10 3 11 -13 2 -28 -15 -37 -14 -23 3 8 10 9 16 1 21
-16 10 -12 40 11 69 24 30 62 49 67 34 2 -5 10 -4 18 3z m204 -42 c0 -11 -48
-31 -59 -25 -23 15 -10 31 24 31 19 0 35 -3 35 -6z m10 -74 c0 -8 -4 -15 -10
-15 -5 0 -10 7 -10 15 0 8 5 15 10 15 6 0 10 -7 10 -15z m55 -87 c6 -4 2 -8
-7 -8 -10 0 -18 7 -18 17 0 9 3 12 8 7 4 -5 12 -12 17 -16z m-215 -3 c0 -16
-12 -25 -42 -30 -13 -3 -24 -9 -26 -15 -4 -12 -42 -13 -42 -1 0 5 13 20 28 33
31 26 82 34 82 13z m9 -64 c11 -7 4 -12 -25 -20 -21 -6 -44 -11 -51 -11 -6 0
-14 -4 -17 -9 -4 -5 4 -7 16 -4 14 3 18 1 12 -4 -6 -4 -14 -18 -18 -30 -13
-41 -34 -27 -33 19 2 34 7 45 27 55 29 15 69 16 89 4z m41 -50 c29 -8 18 -16
-27 -20 -20 -1 -39 4 -49 13 -14 15 -12 16 18 15 18 -1 44 -4 58 -8z m-39 -71
c10 0 19 -4 19 -10 0 -5 -3 -9 -7 -9 -13 3 -73 -25 -73 -33 0 -4 9 -9 20 -9
11 -1 25 -3 30 -4 6 -1 13 -3 18 -4 4 -1 -11 -13 -33 -27 l-40 -26 33 4 c32 5
32 4 16 -20 -14 -22 -14 -25 3 -39 16 -13 16 -14 1 -9 -10 3 -18 1 -18 -4 0
-6 -5 -10 -11 -10 -6 0 -17 -7 -25 -15 -14 -13 -13 -15 10 -15 14 0 25 4 24 9
-2 5 2 9 7 10 6 0 10 -5 10 -12 0 -6 4 -17 8 -23 4 -8 -7 -11 -35 -11 -24 0
-43 -4 -46 -11 -2 -7 7 -12 25 -12 46 0 63 -24 36 -51 -7 -7 -13 -22 -13 -32
0 -14 -5 -17 -17 -12 -33 13 -53 14 -53 3 0 -6 -3 -9 -6 -5 -4 3 1 24 10 47
19 48 20 53 5 44 -7 -4 -9 0 -5 12 13 43 23 113 18 142 -2 16 1 39 7 51 7 12
8 21 2 21 -5 0 -12 -6 -14 -12 -3 -7 -6 0 -6 15 -1 16 6 35 14 43 8 9 15 12
15 8 0 -5 5 -3 12 4 7 7 19 10 26 7 8 -3 22 -5 33 -5z m339 -24 c0 -2 -7 -6
-15 -10 -8 -3 -15 -1 -15 4 0 6 7 10 15 10 8 0 15 -2 15 -4z m-2335 -73 c-7
-99 -18 -163 -26 -169 -12 -7 -11 13 3 129 13 104 31 135 23 40z m1365 -58 c0
-8 -7 -15 -15 -15 -8 0 -15 7 -15 15 0 8 7 15 15 15 8 0 15 -7 15 -15z m-460
-26 c0 -11 -4 -17 -10 -14 -5 3 -10 13 -10 21 0 8 5 14 10 14 6 0 10 -9 10
-21z m428 -27 c2 -8 -8 -12 -27 -12 -33 0 -34 1 -25 24 6 17 45 8 52 -12z
m527 18 c3 -5 1 -10 -4 -10 -6 0 -11 5 -11 10 0 6 2 10 4 10 3 0 8 -4 11 -10z
m-729 -12 c4 -7 3 -8 -5 -4 -6 4 -14 0 -17 -8 -3 -9 -10 -13 -15 -10 -5 3 -9
-3 -10 -13 0 -13 -2 -14 -6 -4 -3 8 5 22 18 32 29 22 26 22 35 7z m-247 -53
c13 -14 21 -28 18 -31 -7 -7 -54 26 -61 44 -9 21 18 13 43 -13z m-183 -18 c4
-4 0 -7 -9 -7 -9 0 -18 4 -21 9 -7 10 20 9 30 -2z m744 3 c0 -5 -4 -10 -10
-10 -5 0 -10 5 -10 10 0 6 5 10 10 10 6 0 10 -4 10 -10z m-880 -30 c0 -24 -20
-37 -30 -19 -10 16 7 52 21 44 5 -4 9 -15 9 -25z m970 -6 c0 -2 -7 -4 -15 -4
-8 0 -15 4 -15 10 0 5 7 7 15 4 8 -4 15 -8 15 -10z m-420 -14 c0 11 3 11 11
-4 9 -14 8 -20 -2 -27 -9 -5 -16 -3 -21 9 -10 26 -8 51 2 27 6 -14 9 -15 10
-5z m1250 -31 c0 -5 -7 -9 -15 -9 -8 0 -15 6 -15 14 0 8 -5 16 -12 18 -7 3 -8
9 -3 18 6 10 12 8 27 -9 10 -13 18 -27 18 -32z m-1380 -6 c0 -29 -2 -29 -19 5
-10 18 -9 22 4 22 10 0 15 -9 15 -27z m660 17 c0 -5 -7 -10 -15 -10 -8 0 -15
5 -15 10 0 6 7 10 15 10 8 0 15 -4 15 -10z m-736 -44 c-3 -9 -11 -15 -16 -14
-12 4 -9 24 3 21 5 -2 9 2 9 7 0 6 -4 10 -10 10 -5 0 -10 5 -10 12 0 8 5 7 15
-3 9 -9 13 -23 9 -33z m243 -11 c0 -8 -4 -12 -9 -9 -4 3 -8 9 -8 15 0 5 4 9 8
9 5 0 9 -7 9 -15z m765 -11 c-20 -14 -62 -15 -62 -2 0 13 42 26 63 20 17 -4
17 -5 -1 -18z m-1097 -14 c3 -5 14 -10 23 -10 9 0 33 -14 52 -30 24 -21 43
-29 58 -27 18 3 26 -2 32 -19 5 -13 16 -24 24 -24 27 0 66 -23 66 -39 0 -9
-12 -22 -28 -28 -15 -7 -35 -26 -45 -42 -21 -36 -23 -53 -2 -24 8 12 29 25 46
28 18 4 54 20 81 36 27 16 58 29 69 29 11 0 36 12 55 26 19 15 34 23 34 18 0
-4 7 1 15 12 14 19 14 19 9 -1 -4 -18 0 -20 33 -18 21 1 38 2 38 3 0 1 15 3
32 6 21 2 32 0 30 -7 -1 -6 16 -17 38 -24 l40 -13 -34 -1 c-19 -1 -40 -9 -48
-18 -8 -10 -12 -12 -8 -5 11 21 -26 27 -43 6 -13 -17 -14 -17 -9 -1 6 15 1 17
-33 15 -21 -1 -37 -6 -34 -10 3 -5 9 -6 13 -4 3 3 7 -4 7 -14 0 -10 -4 -17 -7
-14 -4 2 -10 0 -14 -6 -4 -6 -11 -8 -16 -5 -5 4 -9 -1 -9 -9 0 -9 -5 -15 -12
-14 -6 2 -17 -8 -25 -22 -7 -15 -13 -19 -13 -10 -1 12 -3 12 -14 -2 -7 -10
-16 -15 -19 -11 -4 3 -7 -9 -8 -28 0 -25 -2 -29 -8 -16 -6 18 -8 18 -21 2 -12
-14 -12 -18 1 -26 9 -6 10 -9 2 -9 -15 0 -55 -75 -46 -84 4 -3 1 -6 -7 -6 -10
0 -10 -3 0 -15 11 -13 10 -14 -2 -10 -8 3 -23 -4 -33 -15 -16 -18 -17 -20 -2
-14 23 9 21 -8 -4 -29 -16 -14 -24 -16 -35 -6 -12 10 -13 9 -8 -6 5 -11 3 -16
-2 -12 -6 3 -11 -3 -11 -14 -1 -10 3 -19 9 -19 7 0 6 -5 -1 -14 -7 -8 -13 -27
-14 -42 -1 -15 -8 -29 -16 -32 -10 -3 -11 7 -6 49 3 30 7 68 9 84 2 17 13 50
25 75 20 41 20 43 2 23 -21 -25 -41 -30 -42 -10 0 10 -2 10 -6 0 -2 -7 -10
-13 -17 -13 -15 0 -42 -31 -50 -58 -4 -11 -13 -26 -21 -32 -8 -7 -15 -25 -15
-41 0 -20 -5 -29 -16 -29 -14 0 -14 -3 -4 -15 11 -13 8 -15 -16 -15 -17 0 -40
-10 -56 -25 -30 -28 -50 -33 -42 -10 5 11 -1 15 -22 16 -27 2 -27 2 -4 6 61 9
70 14 70 34 0 11 -4 17 -10 14 -5 -3 -10 -1 -10 4 0 6 6 11 13 11 6 0 4 5 -6
11 -10 6 -14 15 -10 22 4 8 1 7 -9 -1 -14 -12 -16 -10 -11 10 3 13 10 28 14
34 5 6 6 13 3 16 -3 3 -1 39 5 79 9 68 9 74 -11 91 -15 13 -37 18 -80 18 l-58
0 0 39 c0 22 6 44 15 51 8 7 15 29 15 50 0 60 71 112 170 122 24 3 24 4 -12
29 -21 14 -35 29 -31 32 10 10 41 8 48 -3z m310 0 c3 -5 2 -10 -4 -10 -5 0
-13 5 -16 10 -3 6 -2 10 4 10 5 0 13 -4 16 -10z m39 -15 c-4 -8 -11 -12 -16
-9 -6 4 -5 10 3 15 19 12 19 11 13 -6z m801 -6 c2 -3 -2 -15 -11 -27 -12 -17
-19 -20 -34 -12 -25 13 -40 13 -40 -2 0 -6 3 -9 6 -5 3 3 19 1 35 -5 17 -6 28
-13 25 -16 -3 -3 -2 -10 3 -16 7 -8 -3 -11 -36 -9 -25 2 -47 4 -49 5 -1 2 0
24 3 49 l5 46 44 -2 c24 -1 46 -4 49 -6z m-365 -20 c0 -14 -26 -11 -39 5 -9
11 -6 12 14 8 14 -2 25 -8 25 -13z m-1510 -3 c0 -2 -8 -10 -17 -17 -16 -13
-17 -12 -4 4 13 16 21 21 21 13z m1072 -71 c14 -5 15 -10 5 -20 -10 -10 -17
-10 -39 1 -15 8 -29 18 -32 23 -6 10 40 7 66 -4z m734 -19 c48 -17 61 -25 44
-26 -81 -7 -130 5 -130 31 0 24 2 24 86 -5z m-1945 -3 c13 -16 12 -17 -3 -4
-17 13 -22 21 -14 21 2 0 10 -8 17 -17z m1606 -35 c-3 -8 -6 -5 -6 6 -1 11 2
17 5 13 3 -3 4 -12 1 -19z m-1612 3 c3 -5 2 -12 -3 -15 -5 -3 -9 1 -9 9 0 17
3 19 12 6z m1965 -21 c19 -10 19 -11 -1 -31 -15 -15 -24 -18 -32 -10 -6 6 -18
11 -26 11 -12 0 -10 -5 7 -18 27 -21 19 -34 -17 -26 -21 5 -18 0 17 -24 39
-26 41 -30 22 -35 -17 -4 -20 -10 -14 -31 7 -29 -3 -33 -32 -11 -35 27 -51 16
-17 -13 37 -32 32 -59 -8 -47 -22 7 -22 7 -6 -10 14 -14 15 -20 5 -32 -8 -10
-14 -11 -16 -4 -2 6 -12 11 -23 11 -22 0 -27 34 -6 47 6 4 13 17 14 28 4 46
11 75 20 87 12 15 27 68 24 82 -8 33 46 49 89 26z m436 -68 c-11 -11 -16 -12
-16 -4 0 18 24 43 29 30 2 -5 -4 -17 -13 -26z m-1926 -57 c-28 -16 -76 -21
-50 -6 8 6 17 8 21 5 4 -2 10 0 14 6 3 5 14 10 23 10 12 -1 10 -5 -8 -15z
m-240 -87 c0 -5 -6 -6 -12 -2 -10 6 -10 4 0 -7 17 -18 15 -30 -3 -23 -8 4 -15
15 -15 25 0 13 -5 17 -17 13 -14 -5 -15 -4 -4 4 15 11 51 4 51 -10z m6 -65 c0
-1 -13 1 -28 4 -19 4 -28 11 -28 25 0 19 1 18 29 -4 15 -13 28 -24 27 -25z
m-146 17 c6 -11 8 -20 6 -20 -3 0 -10 9 -16 20 -6 11 -8 20 -6 20 3 0 10 -9
16 -20z m-12 -35 c-3 -3 -9 2 -12 12 -6 14 -5 15 5 6 7 -7 10 -15 7 -18z
m1713 -4 c-9 -6 -10 -11 -2 -15 16 -10 14 -39 -3 -33 -10 4 -12 0 -8 -16 5
-20 4 -20 -11 -8 -22 17 -22 59 0 83 12 13 20 15 27 8 8 -8 7 -13 -3 -19z
m225 1 c-4 -3 -14 2 -24 12 -16 18 -16 18 6 6 13 -6 21 -14 18 -18z m-1796 -4
c0 -6 -8 -4 -17 3 -15 12 -16 12 -11 -3 4 -10 1 -18 -10 -21 -9 -3 -24 -8 -33
-11 -10 -5 -19 -1 -23 9 -3 9 -2 13 4 10 6 -3 10 1 10 10 0 9 4 13 10 10 5 -3
17 -2 27 3 19 11 43 5 43 -10z m27 -3 c0 -8 -4 -12 -9 -9 -5 3 -6 10 -3 15 9
13 12 11 12 -6z m1595 -25 c2 -17 -2 -25 -12 -25 -17 0 -25 28 -16 52 9 21 25
5 28 -27z m-1222 26 c0 -3 -4 -8 -10 -11 -5 -3 -10 -1 -10 4 0 6 5 11 10 11 6
0 10 -2 10 -4z m1434 -4 c3 -5 -1 -9 -9 -9 -8 0 -12 4 -9 9 3 4 7 8 9 8 2 0 6
-4 9 -8z m-1944 -33 c0 -4 -8 -9 -18 -11 -10 -3 -19 0 -19 6 0 7 9 12 19 12
10 0 18 -3 18 -7z m233 -24 c-3 -9 -8 -14 -10 -11 -3 3 -2 9 2 15 9 16 15 13
8 -4z m217 9 c0 -8 -19 -13 -24 -6 -3 5 1 9 9 9 8 0 15 -2 15 -3z m52 -9 c3 3
5 -2 5 -10 0 -8 -7 -15 -14 -15 -8 0 -11 5 -7 12 5 7 2 9 -8 6 -8 -4 -15 0
-15 7 0 10 5 11 17 5 10 -5 19 -7 22 -5z m-498 -13 c3 -5 -1 -9 -9 -9 -8 0
-15 4 -15 9 0 4 4 8 9 8 6 0 12 -4 15 -8z m1653 -20 c11 3 13 -1 13 -24 0 -9
-4 -8 -11 2 -9 12 -10 11 -6 -7 3 -15 1 -20 -9 -16 -10 4 -12 0 -8 -11 3 -9
10 -16 15 -16 4 0 13 -9 19 -20 9 -17 8 -20 -12 -17 -20 2 -23 -2 -20 -25 2
-16 -1 -28 -7 -28 -6 0 -11 5 -11 10 0 6 -8 10 -18 10 -10 0 -25 9 -35 20 -16
19 -15 22 26 78 23 33 45 55 48 50 3 -5 11 -8 16 -6z m-983 -28 c3 -8 2 -12
-4 -9 -6 3 -10 10 -10 16 0 14 7 11 14 -7z m320 -52 c3 -5 -1 -9 -9 -9 -8 0
-12 4 -9 9 3 4 7 8 9 8 2 0 6 -4 9 -8z m1009 -17 c-3 -9 -8 -14 -10 -11 -3 3
-2 9 2 15 9 16 15 13 8 -4z m-422 -75 c6 0 7 5 3 12 -4 7 -3 8 5 4 8 -6 9 -12
2 -20 -6 -7 -8 -15 -5 -19 11 -11 -8 -49 -22 -43 -11 4 -13 -1 -10 -22 5 -26
4 -26 -9 -8 -15 19 -50 33 -39 15 3 -5 0 -9 -5 -9 -6 0 -11 -5 -11 -11 0 -5 4
-8 9 -5 5 4 7 -4 4 -15 -6 -21 -7 -21 -19 -4 -10 14 -11 22 -2 32 6 7 8 16 5
19 -6 6 7 32 43 86 l25 37 8 -24 c5 -14 13 -25 18 -25z m-666 -62 c31 -12 59
-27 62 -35 3 -7 11 -13 19 -13 8 0 14 -5 14 -10 0 -6 9 -21 20 -33 12 -12 16
-23 10 -25 -5 -2 -10 -8 -10 -13 0 -6 6 -7 13 -3 6 4 5 -1 -4 -12 -8 -10 -16
-30 -17 -44 -1 -14 -11 -33 -24 -44 -13 -10 -22 -23 -20 -29 2 -6 -5 -4 -14 4
-10 8 -15 9 -11 3 3 -6 -4 -17 -18 -24 -13 -7 -21 -18 -19 -24 3 -7 -7 -13
-23 -14 -16 -1 -35 -12 -44 -23 -9 -12 -19 -18 -22 -13 -7 12 -58 10 -81 -3
-11 -6 -27 -8 -37 -6 -11 3 -19 1 -19 -5 0 -6 -11 -9 -25 -8 -13 2 -22 -1 -19
-5 3 -5 1 -9 -4 -9 -6 0 -12 6 -15 13 -3 8 -19 13 -42 12 -23 -1 -34 2 -32 9
5 13 -18 38 -27 29 -3 -4 -6 15 -6 40 0 63 25 121 77 176 23 25 43 49 43 54 0
4 6 7 13 7 7 0 22 9 34 19 25 24 97 50 140 51 17 0 57 -10 88 -22z m624 -55
c10 -19 9 -22 -9 -20 -13 1 -19 6 -15 15 3 7 5 19 5 24 0 14 4 10 19 -19z
m-67 -10 c19 -17 25 -63 8 -63 -5 0 -10 -6 -10 -13 0 -14 -43 -59 -51 -55 -2
2 -1 -1 3 -6 12 -15 10 -28 -3 -20 -6 3 -15 0 -20 -7 -8 -12 -11 -11 -20 3 -9
16 -11 16 -30 -3 -11 -11 -25 -17 -32 -13 -7 4 -1 -6 13 -22 l25 -29 -25 20
c-14 11 -29 25 -33 30 -5 6 -6 1 -2 -10 7 -23 8 -25 6 -42 0 -7 -8 -13 -16
-13 -8 0 -14 3 -14 8 3 19 -2 33 -11 27 -5 -3 -10 -19 -10 -35 0 -16 -4 -32
-10 -35 -6 -3 -7 1 -4 9 4 11 0 16 -15 16 -13 0 -21 -7 -22 -17 -1 -16 -2 -15
-6 1 -4 14 -7 15 -13 6 -5 -8 -9 -1 -12 18 -2 17 -2 30 1 30 14 -2 101 44 101
54 0 6 9 8 20 5 15 -4 28 8 57 50 l37 55 11 -33 c11 -33 12 -33 18 -9 10 36 8
52 -3 45 -14 -8 -1 26 18 48 19 21 21 21 44 0z m649 -86 c-13 -13 -26 -3 -16
12 3 6 11 8 17 5 6 -4 6 -10 -1 -17z m-31 -12 c8 -10 3 -12 -27 -11 -21 2 -47
7 -58 11 -18 9 -17 10 10 15 36 7 61 2 75 -15z m-2353 -37 c-3 -8 -6 -5 -6 6
-1 11 2 17 5 13 3 -3 4 -12 1 -19z m306 2 c3 -11 1 -18 -4 -14 -5 3 -9 12 -9
20 0 20 7 17 13 -6z m2115 -29 c20 -11 -73 -24 -138 -19 -39 3 -42 5 -23 13
29 13 141 17 161 6z m-2108 -26 c0 -8 -2 -15 -4 -15 -2 0 -6 7 -10 15 -3 8 -1
15 4 15 6 0 10 -7 10 -15z m1081 -88 c-8 -8 -11 -3 -11 19 1 25 2 27 11 11 8
-14 8 -22 0 -30z m-1291 -29 c0 -12 -3 -18 -7 -14 -11 10 -12 36 -2 36 5 0 9
-10 9 -22z m1307 -274 c-3 -3 -12 -4 -19 -1 -8 3 -5 6 6 6 11 1 17 -2 13 -5z
m1101 -21 c-10 -2 -26 -2 -35 0 -10 3 -2 5 17 5 19 0 27 -2 18 -5z m-348 -7
c0 -2 -7 -6 -15 -10 -8 -3 -15 -1 -15 4 0 6 7 10 15 10 8 0 15 -2 15 -4z
m-988 -38 c-7 -7 -12 -8 -12 -2 0 14 12 26 19 19 2 -3 -1 -11 -7 -17z m1368
-23 c0 -2 -9 -3 -19 -2 -11 0 -18 5 -15 9 4 6 34 0 34 -7z"/>
<path d="M2294 2945 c-8 -27 -8 -35 3 -39 9 -4 13 5 13 34 0 22 -1 40 -3 40
-1 0 -7 -16 -13 -35z"/>
<path d="M2335 2924 c5 -51 15 -55 15 -6 0 23 -4 42 -9 42 -5 0 -8 -16 -6 -36z"/>
<path d="M2075 1417 c-39 -29 -68 -58 -63 -63 3 -2 17 10 33 26 16 17 34 30
41 30 6 0 17 7 24 15 18 22 0 18 -35 -8z"/>
<path d="M1780 1234 c0 -6 -18 -20 -40 -33 -22 -12 -40 -19 -40 -16 0 4 -7 0
-15 -9 -8 -8 -15 -22 -15 -30 0 -9 -6 -16 -13 -16 -10 0 -47 -81 -47 -103 0
-18 33 -11 61 14 22 20 28 29 16 29 -9 0 -19 -4 -22 -10 -3 -5 -12 -10 -18 -9
-9 0 -9 2 1 6 6 2 12 10 12 17 0 7 8 20 19 30 12 11 16 25 13 41 -3 19 0 25
12 25 9 0 22 5 29 10 7 6 23 19 37 29 14 11 22 23 18 27 -5 4 -8 3 -8 -2z"/>
<path d="M1867 1200 c-3 -11 -2 -20 3 -20 12 0 21 28 11 35 -5 2 -11 -4 -14
-15z"/>
<path d="M1815 1199 c-11 -17 1 -21 15 -4 8 9 8 15 2 15 -6 0 -14 -5 -17 -11z"/>
<path d="M1905 1189 c-4 -6 -5 -12 -2 -15 2 -3 7 2 10 11 7 17 1 20 -8 4z"/>
<path d="M1885 1150 c-3 -5 -1 -10 4 -10 6 0 11 5 11 10 0 6 -2 10 -4 10 -3 0
-8 -4 -11 -10z"/>
<path d="M2655 1290 c-19 -7 -19 -8 5 -18 26 -10 40 -7 40 8 0 13 -23 18 -45
10z"/>
<path d="M2485 920 c3 -5 8 -10 11 -10 2 0 4 5 4 10 0 6 -5 10 -11 10 -5 0 -7
-4 -4 -10z"/>
<path d="M1640 622 c-20 -9 -24 -32 -5 -32 8 0 15 -5 15 -12 0 -19 11 -2 16
26 5 27 0 30 -26 18z"/>
<path d="M1015 2441 c-3 -5 -2 -12 3 -15 5 -3 9 1 9 9 0 17 -3 19 -12 6z"/>
<path d="M608 1853 c-23 -6 -24 -51 -2 -60 9 -3 24 3 37 17 12 13 16 20 10 16
-8 -4 -13 -1 -13 8 0 18 -10 24 -32 19z"/>
<path d="M369 1538 c-1 -10 -2 -24 -3 -30 -1 -7 2 -25 6 -39 8 -24 13 -26 53
-23 32 2 50 -2 69 -17 18 -14 37 -19 63 -17 37 3 38 4 41 47 2 24 -1 48 -5 52
-5 5 -40 0 -78 -11 -64 -18 -105 -19 -105 -2 0 4 -9 18 -20 32 -16 21 -20 22
-21 8z"/>
<path d="M672 1501 c-11 -7 -11 -9 2 -14 10 -4 16 -1 16 8 0 17 -1 17 -18 6z"/>
<path d="M633 1470 c1 -15 5 -17 22 -8 20 11 20 11 1 -11 -11 -11 -16 -24 -13
-28 4 -3 7 -1 7 5 0 6 7 9 16 5 12 -4 15 0 12 17 -4 29 -47 48 -45 20z"/>
<path d="M638 1403 c6 -3 12 -11 12 -19 0 -9 -4 -13 -9 -9 -5 3 -12 2 -15 -3
-2 -4 5 -8 18 -8 30 0 32 42 2 43 -12 1 -15 -1 -8 -4z"/>
<path d="M538 1351 c-9 -11 -13 -23 -10 -27 4 -3 -3 -2 -15 5 -32 16 -73 14
-80 -6 -5 -14 -8 -12 -15 7 -6 16 -12 20 -19 13 -13 -13 9 -53 28 -53 7 0 13
-4 13 -10 0 -5 13 -10 29 -10 16 0 45 -7 66 -16 51 -21 69 -13 61 29 -4 17 -7
44 -7 60 0 33 -26 37 -51 8z"/>
<path d="M640 1340 c0 -5 7 -10 15 -10 8 0 15 5 15 10 0 6 -7 10 -15 10 -8 0
-15 -4 -15 -10z"/>
<path d="M380 1299 c0 -5 5 -7 10 -4 6 3 10 8 10 11 0 2 -4 4 -10 4 -5 0 -10
-5 -10 -11z"/>
<path d="M1075 1281 c3 -5 -7 -12 -22 -14 -23 -3 -21 -4 10 -6 37 -1 50 12 21
23 -8 3 -12 2 -9 -3z"/>
<path d="M490 1161 c0 -10 -7 -24 -15 -31 -25 -21 -17 -31 20 -24 30 5 35 3
35 -12 1 -16 3 -15 15 6 20 36 19 61 -2 35 -15 -20 -15 -20 -10 1 3 16 -2 25
-19 33 -21 9 -24 8 -24 -8z"/>
<path d="M702 1158 c-7 -7 -12 -16 -12 -22 0 -5 6 -2 13 9 11 14 16 15 22 5 5
-8 1 -18 -10 -27 -21 -15 -22 -14 23 -18 21 -1 32 2 32 11 0 22 -4 29 -16 29
-6 0 -18 6 -26 12 -11 10 -17 10 -26 1z"/>
<path d="M378 1076 c-29 -21 -22 -40 7 -19 24 18 32 33 18 33 -5 0 -16 -7 -25
-14z"/>
<path d="M240 1051 c0 -10 -9 -21 -20 -24 -11 -3 -20 -11 -20 -17 0 -7 7 -10
16 -6 9 3 19 6 23 6 11 0 31 47 24 54 -12 12 -23 6 -23 -13z"/>
<path d="M311 1051 c-29 -29 -72 -121 -66 -141 6 -19 34 -30 79 -30 25 0 27
-3 22 -24 -4 -16 -1 -26 8 -29 18 -7 42 18 26 28 -5 3 -10 12 -10 18 0 8 3 7
9 -2 12 -19 34 23 28 55 -2 13 -1 21 3 19 4 -2 7 8 7 24 0 25 -4 28 -34 29
-46 2 -50 6 -45 42 5 35 -1 37 -27 11z"/>
<path d="M535 1051 c-12 -11 -3 -61 13 -77 16 -17 16 -17 -6 -12 -12 3 -20 2
-16 -3 3 -5 14 -9 25 -9 11 0 19 -7 19 -17 0 -12 7 -7 20 15 18 29 19 35 6 48
-13 12 -15 12 -19 -4 -4 -15 -5 -15 -6 0 0 9 4 20 9 23 6 3 10 11 10 16 0 6
-4 7 -10 4 -5 -3 -7 0 -4 9 4 11 0 14 -16 13 -11 -1 -23 -3 -25 -6z"/>
<path d="M450 1043 c-6 -97 -14 -154 -26 -177 -7 -16 -14 -38 -14 -49 0 -16 5
-18 29 -15 17 2 28 1 25 -4 -3 -4 3 -8 13 -8 11 0 28 -7 39 -15 30 -23 34 -18
34 35 0 47 -5 55 -32 51 -9 -1 1 27 21 59 l16 25 -27 -18 c-28 -17 -28 -17
-28 8 0 15 -4 24 -9 20 -5 -3 -4 7 4 22 16 35 29 82 18 67 -4 -6 -20 -14 -35
-18 -22 -5 -26 -3 -22 9 4 8 3 15 0 15 -3 0 -6 -3 -6 -7z"/>
<path d="M623 915 c-3 -9 -3 -18 -1 -21 3 -3 8 4 11 16 6 23 -1 27 -10 5z"/>
<path d="M502 648 c-7 -9 -6 -17 4 -26 16 -15 16 -15 19 16 3 24 -7 29 -23 10z"/>
<path d="M76 568 c-8 -32 -7 -50 2 -44 8 5 15 66 7 66 -1 0 -5 -10 -9 -22z"/>
<path d="M480 570 c0 -11 5 -20 10 -20 6 0 10 9 10 20 0 11 -4 20 -10 20 -5 0
-10 -9 -10 -20z"/>
<path d="M477 533 c-10 -9 -9 -23 1 -23 5 0 9 7 9 15 0 17 -1 18 -10 8z"/>
<path d="M86 503 c-6 -14 -5 -15 5 -6 7 7 10 15 7 18 -3 3 -9 -2 -12 -12z"/>
<path d="M646 355 c-9 -26 -7 -32 5 -12 6 10 9 21 6 23 -2 3 -7 -2 -11 -11z"/>
<path d="M592 285 c-12 -14 -22 -31 -22 -38 0 -6 10 0 21 16 11 15 25 25 30
21 5 -3 9 -1 9 5 0 21 -18 19 -38 -4z"/>
<path d="M1316 71 c-3 -5 1 -11 9 -15 8 -3 15 -1 15 4 0 13 -18 22 -24 11z"/>
<path d="M2506 54 c-9 -22 -8 -24 11 -24 9 0 13 3 10 7 -4 3 -2 12 4 20 9 10
8 13 -4 13 -8 0 -18 -7 -21 -16z"/>
<path d="M2550 59 c0 -5 9 -9 20 -9 11 0 20 2 20 4 0 2 -9 6 -20 9 -11 3 -20
1 -20 -4z"/>
<path d="M3055 50 c-3 -5 -2 -10 4 -10 5 0 13 5 16 10 3 6 2 10 -4 10 -5 0
-13 -4 -16 -10z"/>
<path d="M1098 33 c6 -2 18 -2 25 0 6 3 1 5 -13 5 -14 0 -19 -2 -12 -5z"/>
<path d="M2245 20 c-19 -8 -19 -9 3 -9 12 -1 22 4 22 9 0 6 -1 10 -2 9 -2 0
-12 -4 -23 -9z"/>
<path d="M2188 13 c6 -2 18 -2 25 0 6 3 1 5 -13 5 -14 0 -19 -2 -12 -5z"/>
</g>
</svg>
