<?xml version="1.0" standalone="no"?>
<!DOCTYPE svg PUBLIC "-//W3C//DTD SVG 20010904//EN"
 "http://www.w3.org/TR/2001/REC-SVG-20010904/DTD/svg10.dtd">
<svg version="1.0" xmlns="http://www.w3.org/2000/svg"
 width="900.000000pt" height="500.000000pt" viewBox="0 0 900.000000 500.000000"
 preserveAspectRatio="xMidYMid meet">

<g transform="translate(0.000000,500.000000) scale(0.100000,-0.100000)"
fill="#000000" stroke="none">
<path d="M0 4551 c0 -405 2 -450 17 -462 9 -8 18 -12 21 -9 3 3 9 -7 13 -22 8
-31 -4 -37 -20 -10 -10 16 -10 16 -11 0 0 -10 -5 -18 -11 -18 -8 0 -8 -5 1
-15 7 -8 10 -24 7 -35 -6 -24 -3 -25 17 -4 9 8 16 11 16 5 0 -6 7 -11 15 -11
8 0 15 -4 15 -10 0 -5 -13 -10 -30 -10 -23 0 -30 -4 -30 -20 0 -11 -5 -20 -10
-20 -7 0 -10 -150 -10 -436 l1 -436 22 5 c12 3 31 1 42 -4 18 -8 18 -8 -5 -7
-65 3 -60 46 -60 -473 0 -363 3 -475 12 -487 10 -13 10 -14 1 -8 -10 6 -13
-22 -13 -128 0 -98 3 -136 13 -139 9 -4 9 -6 0 -6 -10 -1 -13 -164 -13 -782
l0 -781 25 6 c14 4 25 2 25 -3 0 -5 30 -15 68 -21 63 -11 90 -11 270 6 51 4
72 3 72 -5 0 -8 11 -6 33 5 68 35 57 56 -26 48 -34 -3 -80 -8 -102 -10 -22 -2
-59 -7 -82 -10 -27 -4 -43 -2 -43 4 0 6 -12 15 -28 20 -26 10 -26 10 11 11 23
1 36 5 32 11 -3 6 1 10 9 10 9 0 16 -5 16 -10 0 -6 13 -4 30 5 16 8 35 15 43
15 8 0 20 7 27 15 7 8 21 15 32 15 10 0 28 9 40 20 12 11 31 20 43 20 12 0 32
9 45 20 25 22 40 26 40 10 0 -5 7 -10 16 -10 8 0 12 5 9 11 -8 12 72 8 93 -5
15 -9 16 6 0 22 -9 9 -6 12 16 12 15 0 25 4 21 10 -4 6 9 10 32 10 28 0 34 -3
23 -10 -9 -6 -10 -10 -3 -10 6 0 14 4 18 10 3 5 34 9 69 8 35 0 67 2 72 5 5 3
18 -1 28 -8 17 -13 17 -14 -8 -21 -31 -7 -35 -40 -6 -49 23 -7 43 2 35 16 -4
5 3 8 15 6 12 -2 26 -10 30 -17 7 -12 12 -10 27 7 14 16 23 19 36 12 11 -7 17
-6 17 0 0 6 13 9 30 8 16 -1 30 -7 30 -14 0 -6 6 -14 13 -16 6 -3 -1 -6 -16
-6 -31 -1 -28 -21 3 -21 10 0 21 -4 24 -9 4 -5 -4 -7 -16 -4 -22 4 -23 4 -4
-11 11 -9 31 -16 45 -16 l26 0 -22 -18 c-16 -11 -39 -17 -73 -16 -28 1 -53 -3
-57 -9 -4 -6 6 -8 26 -5 32 5 38 -1 20 -19 -8 -8 -7 -13 2 -18 7 -5 10 -4 5 3
-7 12 4 21 35 27 16 3 19 0 17 -17 -2 -16 4 -24 22 -29 14 -4 18 -8 10 -8 -8
-1 -26 -4 -40 -7 -20 -4 -22 -3 -10 5 8 6 10 11 4 11 -5 0 -16 -6 -23 -12 -11
-10 -14 -10 -18 0 -6 16 -33 15 -52 -2 -11 -9 -23 -11 -38 -5 -23 8 -31 28
-13 30 6 1 15 2 22 3 6 0 13 7 16 14 5 15 -34 16 -44 1 -3 -6 -17 -9 -30 -6
-23 4 -24 3 -10 -18 13 -19 12 -23 -4 -33 -15 -9 -17 -8 -13 7 3 11 0 22 -6
25 -7 5 -8 1 -4 -10 5 -15 1 -16 -32 -10 -22 4 -44 14 -50 22 -6 9 -17 12 -29
8 -14 -5 -15 -9 -4 -16 8 -5 2 -6 -17 -2 -16 4 -34 10 -40 14 -5 4 -29 7 -53
7 -33 0 -49 -6 -73 -27 -16 -16 -35 -31 -42 -34 -6 -4 -2 -4 11 -2 12 2 28 -1
35 -8 34 -32 70 -47 95 -40 36 10 142 11 142 2 0 -5 -19 -8 -42 -8 -24 0 -38
-4 -31 -8 7 -4 9 -12 5 -17 -9 -13 -35 -18 -27 -5 3 5 -1 11 -9 11 -9 1 -22 2
-28 4 -7 1 -24 -5 -37 -13 -13 -8 -20 -9 -17 -3 5 7 -8 11 -40 11 -40 0 -45
-2 -34 -15 11 -13 8 -15 -13 -15 -14 0 -38 -5 -54 -11 -34 -14 -73 -18 -67 -7
3 4 -4 8 -16 8 -16 0 -19 4 -14 24 5 20 1 24 -21 29 -19 3 -33 -1 -46 -14 -25
-25 -33 -24 -26 2 5 19 2 20 -34 14 -36 -6 -39 -5 -39 17 0 37 -15 54 -34 39
-8 -7 -20 -10 -26 -6 -7 4 -14 -2 -17 -13 -3 -12 -12 -23 -22 -25 -14 -4 -14
-5 2 -6 29 -2 21 -39 -10 -43 -16 -2 -27 -10 -29 -21 -1 -11 3 -17 13 -15 9 2
18 -2 20 -8 2 -7 -7 -11 -22 -11 -14 0 -25 3 -25 8 0 5 -5 9 -11 9 -5 0 -8 -3
-5 -8 2 -4 -14 -6 -37 -3 -37 3 -40 2 -28 -13 12 -15 370 -16 4457 -16 l4444
0 0 1395 0 1395 -1057 2 c-1707 4 -1793 3 -1793 -15 0 -5 -10 3 -22 19 -13 16
-22 32 -21 36 2 5 0 8 -5 8 -11 0 -119 99 -108 100 5 0 3 7 -4 15 -10 12 -10
15 1 15 12 0 12 2 1 9 -8 4 -13 12 -13 17 0 5 -6 9 -13 9 -8 0 -18 3 -21 7 -4
4 -13 4 -19 2 -7 -3 -19 2 -26 11 -12 14 -11 18 1 26 11 7 10 9 -6 9 -11 0
-15 4 -10 8 13 9 15 42 3 42 -6 0 -8 9 -5 20 3 10 0 22 -7 25 -6 3 -2 4 10 1
12 -2 21 2 21 9 0 7 -7 11 -16 8 -11 -3 -10 0 4 12 20 16 20 17 0 13 -13 -2
-23 5 -30 20 -10 22 -22 27 -62 23 -13 -1 -23 3 -23 10 0 6 7 9 15 5 8 -3 15
-1 15 4 0 5 6 7 13 4 8 -3 13 5 15 23 1 16 11 35 21 44 18 15 18 17 2 31 -9 8
-25 17 -34 21 -9 3 -17 13 -17 20 0 8 -9 13 -22 12 -13 -1 -26 3 -31 9 -5 7
-12 5 -21 -7 -17 -22 -30 -6 -21 26 6 21 6 21 -11 -3 -10 -14 -17 -34 -16 -45
2 -18 2 -19 -8 -2 -6 9 -9 21 -5 26 3 5 0 13 -6 16 -7 5 -9 -4 -7 -26 2 -26
-1 -34 -16 -37 -16 -3 -18 2 -15 47 4 50 3 52 -28 63 l-33 12 0 97 c0 89 -2
98 -20 104 -16 5 -20 15 -20 46 0 24 5 39 13 40 6 0 -6 7 -28 15 -22 8 -54 21
-72 29 -17 8 -49 15 -70 15 -21 0 -44 5 -51 12 -8 8 -15 8 -26 -1 -11 -9 -16
-9 -21 0 -4 6 -1 15 6 20 10 6 7 9 -12 9 -15 0 -32 7 -39 15 -10 12 -15 13
-21 4 -5 -9 -18 -9 -52 0 -25 6 -62 11 -82 11 -22 0 -34 4 -30 10 3 6 2 10 -4
10 -5 0 -11 -4 -13 -9 -1 -5 -19 -18 -38 -29 -19 -11 -34 -25 -32 -32 2 -9 -5
-11 -20 -6 -13 3 -29 6 -35 6 -9 0 -13 22 -13 75 0 50 4 75 12 75 6 0 9 2 6 5
-3 3 -45 10 -94 16 -49 5 -93 14 -98 19 -4 4 -15 6 -22 3 -8 -3 -14 0 -14 6 0
6 12 11 28 12 25 1 24 2 -8 10 -48 12 -133 7 -146 -10 -9 -11 -13 -11 -25 1
-8 8 -21 17 -30 20 -13 5 -16 2 -11 -15 5 -21 5 -21 -12 -4 -10 9 -25 17 -35
17 -10 0 -20 3 -23 6 -9 8 3 45 12 39 10 -6 7 21 -3 31 -3 4 -14 1 -24 -7 -11
-9 -14 -10 -9 -1 4 6 3 12 -3 12 -5 0 -13 -5 -16 -11 -4 -6 -14 -8 -22 -5 -8
3 -11 1 -8 -4 3 -6 0 -10 -8 -10 -7 0 -14 -6 -14 -14 0 -8 6 -12 14 -9 7 3 13
0 13 -6 0 -6 -9 -11 -19 -11 -17 0 -20 6 -18 41 2 22 -1 43 -5 45 -4 3 -8 -7
-9 -23 l-1 -28 -8 25 c-4 14 -8 20 -9 13 -1 -6 -9 -9 -19 -6 -14 3 -23 -5 -35
-29 -14 -27 -17 -29 -17 -11 0 13 -8 24 -20 28 -11 3 -20 11 -20 17 0 7 5 6
14 -1 12 -10 13 -8 9 9 -4 16 -9 18 -19 9 -7 -6 -18 -8 -24 -4 -5 3 -13 0 -16
-9 -6 -14 -44 -19 -44 -4 0 12 18 19 23 8 3 -6 4 -5 3 1 -1 7 -10 13 -19 15
-9 1 -15 -1 -12 -6 3 -4 -2 -11 -11 -14 -25 -10 -27 -7 -13 12 12 15 12 16 -1
6 -14 -11 -77 -11 -142 -1 -16 2 -28 1 -28 -2 0 -3 -27 -5 -60 -4 -40 1 -60
-3 -60 -10 -1 -7 -9 -2 -19 11 -11 12 -28 22 -39 22 -11 0 -22 4 -24 10 -2 6
-14 4 -30 -4 -15 -8 -28 -12 -31 -10 -6 6 -75 -24 -82 -37 -4 -5 -13 -8 -20
-5 -8 3 -19 -2 -25 -10 -16 -18 -30 -18 -30 0 0 8 10 17 23 20 26 7 61 52 52
66 -7 12 -35 13 -35 2 0 -5 -14 -8 -32 -7 -33 2 -68 -24 -68 -50 0 -16 -30
-20 -45 -6 -17 16 -51 17 -79 1 -25 -13 -29 -13 -41 3 -15 21 -25 22 -25 2 0
-16 -9 -19 -35 -9 -9 4 -12 10 -7 13 15 9 19 54 5 58 -8 3 -13 -4 -13 -16 0
-18 -4 -20 -25 -15 -19 5 -25 2 -25 -9 0 -9 4 -18 10 -22 5 -3 7 -12 4 -20 -4
-8 -10 -12 -15 -9 -5 3 -8 0 -7 -7 2 -7 -5 -15 -14 -17 -12 -2 -19 5 -24 22
-6 24 -28 41 -43 32 -4 -3 -18 13 -31 35 -14 21 -32 39 -40 39 -18 0 -62 32
-99 73 -13 15 -32 27 -40 26 -41 -4 -57 3 -73 31 -9 17 -23 30 -30 30 -8 0
-20 9 -28 20 -9 13 -26 20 -46 20 -23 0 -33 5 -37 19 -4 18 -76 63 -94 60 -25
-4 -43 3 -43 16 0 8 -6 15 -14 15 -7 0 -19 7 -26 15 -6 8 -15 14 -18 13 -10
-2 -126 56 -160 81 -17 11 -34 21 -40 21 -5 0 -15 7 -22 15 -7 9 -28 22 -46
31 -21 10 -35 25 -39 43 -7 34 -39 55 -64 42 -14 -8 -23 -5 -38 12 -11 12 -23
30 -27 41 -5 15 -13 17 -41 13 -27 -4 -41 -1 -62 17 -37 31 -68 46 -92 46 -11
0 -22 9 -26 20 -6 20 -15 20 -881 20 l-874 0 0 -449z m1595 -330 c3 -5 1 -12
-5 -16 -5 -3 -10 1 -10 9 0 18 6 21 15 7z m-145 -21 c0 -5 -12 -10 -27 -9 -25
0 -26 1 -8 9 27 12 35 12 35 0z m2508 -24 c-2 -1 -10 -7 -18 -13 -13 -10 -16
-8 -16 6 0 13 6 17 19 13 10 -2 16 -5 15 -6z m-2315 -26 c-7 -28 -13 -25 -13
6 0 14 4 23 9 20 5 -3 7 -15 4 -26z m68 -27 c-9 -15 -10 -12 -10 17 0 29 1 32
10 18 7 -12 7 -24 0 -35z m2449 43 c0 -3 -4 -8 -10 -11 -5 -3 -10 -1 -10 4 0
6 5 11 10 11 6 0 10 -2 10 -4z m-2390 -38 c0 -19 -2 -20 -10 -8 -13 19 -13 30
0 30 6 0 10 -10 10 -22z m1378 -5 c-2 -11 2 -17 10 -15 9 1 11 -2 6 -10 -6
-10 -4 -10 7 -2 10 7 23 6 46 -7 18 -9 30 -18 28 -21 -3 -3 20 -3 50 0 30 2
61 0 67 -5 7 -5 39 -9 70 -8 31 0 51 -3 45 -7 -9 -6 -9 -8 1 -8 6 0 12 -8 12
-19 0 -15 -6 -18 -34 -15 -27 4 -34 1 -32 -13 1 -14 -10 -19 -49 -24 -27 -4
-54 -8 -60 -9 -27 -6 -47 1 -42 15 5 12 -39 55 -57 55 -12 0 -45 34 -40 42 3
4 0 8 -5 8 -6 0 -20 9 -31 20 -21 21 -27 35 -10 25 6 -3 10 -1 10 4 0 6 2 11
5 11 3 0 5 -8 3 -17z m989 1 c-3 -3 -12 -4 -19 -1 -8 3 -5 6 6 6 11 1 17 -2
13 -5z m-3482 -23 c3 -6 -5 -15 -17 -22 -20 -11 -22 -11 -10 3 10 13 10 17 0
21 -9 4 -7 6 4 6 9 1 19 -3 23 -8z m665 -17 c0 -31 -23 -28 -28 4 -2 15 2 22
12 22 11 0 16 -9 16 -26z m-900 -14 c0 -11 -4 -20 -10 -20 -5 0 -10 9 -10 20
0 11 5 20 10 20 6 0 10 -9 10 -20z m3747 -12 c-3 -7 -5 -2 -5 12 0 14 2 19 5
13 2 -7 2 -19 0 -25z m-429 -16 c3 -16 -2 -22 -16 -22 -11 0 -27 -3 -36 -6
-11 -4 -16 -1 -16 10 0 15 -46 34 -57 23 -11 -12 7 -37 26 -37 14 0 19 -5 15
-15 -4 -8 -10 -15 -16 -15 -15 0 -38 27 -30 35 4 5 -1 5 -10 2 -10 -4 -18 -2
-18 3 0 6 5 10 10 10 6 0 10 9 10 20 0 23 38 28 58 8 9 -9 12 -9 12 4 0 26 64
8 68 -20z m910 32 c44 -12 23 -26 -30 -20 -29 3 -55 6 -58 7 -4 1 33 12 60 18
3 0 15 -2 28 -5z m-1103 -22 c-3 -3 -11 0 -18 7 -9 10 -8 11 6 5 10 -3 15 -9
12 -12z m-3247 -11 c28 -3 10 -26 -20 -26 -26 0 -33 -5 -38 -25 -4 -17 -8 -21
-14 -12 -4 7 -5 20 -2 29 5 13 4 14 -8 4 -8 -7 -25 -9 -41 -5 -24 6 -26 4 -23
-17 2 -19 -1 -23 -16 -21 -17 3 -18 1 -8 -11 10 -12 8 -14 -13 -14 -16 0 -25
5 -25 15 0 8 3 12 7 9 9 -9 33 12 33 30 0 8 -4 12 -9 9 -4 -3 -28 -1 -52 4
l-44 9 47 -3 c27 -2 48 0 48 4 0 19 91 30 178 21z m192 -47 c0 -19 -4 -34 -10
-34 -11 0 -21 36 -18 67 3 36 28 6 28 -33z m80 25 c0 -9 -33 -29 -49 -29 -6 0
-11 5 -11 10 0 6 12 10 26 10 23 0 25 2 14 15 -11 13 -10 14 4 9 9 -3 16 -10
16 -15z m29 -29 c0 -10 -3 -8 -9 5 -12 27 -12 43 0 25 5 -8 9 -22 9 -30z
m3541 9 c0 -5 -16 -9 -35 -7 -19 1 -35 5 -35 9 0 4 16 7 35 7 19 0 35 -4 35
-9z m586 -14 c-3 -8 -1 -15 5 -15 6 0 7 -4 4 -10 -11 -18 -25 -10 -25 15 0 14
5 25 11 25 6 0 9 -7 5 -15z m-4328 -33 c6 -20 -37 -13 -48 7 -9 17 -7 18 17
12 15 -4 28 -12 31 -19z m1762 -14 c16 -19 30 -44 30 -59 0 -24 -5 -27 -46
-33 -77 -10 -79 -10 -77 26 1 18 2 41 2 50 1 13 39 45 59 48 1 0 16 -15 32
-32z m790 16 c0 -2 -9 -4 -20 -4 -11 0 -20 4 -20 9 0 5 9 7 20 4 11 -3 20 -7
20 -9z m-2520 -15 c0 -5 -4 -9 -10 -9 -5 0 -10 7 -10 16 0 8 5 12 10 9 6 -3
10 -10 10 -16z m3527 -1 c-3 -8 -6 -5 -6 6 -1 11 2 17 5 13 3 -3 4 -12 1 -19z
m-2684 -2 c7 -19 -18 -40 -38 -32 -8 3 -15 15 -15 26 0 14 7 20 24 20 13 0 26
-6 29 -14z m2764 -8 c-3 -8 -6 -5 -6 6 -1 11 2 17 5 13 3 -3 4 -12 1 -19z
m188 13 c19 -8 19 -8 0 -18 -24 -12 -45 -6 -45 13 0 15 14 17 45 5z m-3530
-19 c-9 -9 -35 -11 -35 -3 0 14 12 20 26 14 8 -3 12 -8 9 -11z m3771 -24 c-1
-32 1 -33 44 -39 44 -6 44 -6 8 -7 -29 -2 -36 -5 -32 -17 4 -9 0 -15 -9 -15
-8 0 -17 -6 -20 -12 -2 -7 -5 13 -6 45 -1 51 3 77 13 77 2 0 3 -15 2 -32z
m-3301 4 c-3 -3 -11 0 -18 7 -9 10 -8 11 6 5 10 -3 15 -9 12 -12z m608 11 c-7
-2 -19 -2 -25 0 -7 3 -2 5 12 5 14 0 19 -2 13 -5z m102 -12 c3 -8 -1 -19 -10
-23 -8 -5 -13 -14 -9 -19 3 -6 -8 -9 -28 -9 -18 1 -43 -1 -55 -5 -20 -6 -23
-4 -23 19 0 23 2 25 19 16 28 -14 31 -13 31 14 0 22 4 24 35 23 20 -1 37 -8
40 -16z m1545 -1 c8 -5 11 -10 5 -10 -5 0 -4 -4 4 -9 7 -5 10 -14 6 -21 -6 -9
-9 -9 -16 1 -6 10 -13 10 -34 1 -37 -17 -42 -15 -42 14 0 24 2 25 36 20 26 -5
32 -4 21 3 -19 13 0 14 20 1z m563 4 c6 -6 -16 -34 -26 -34 -4 0 -3 21 2 38 2
4 18 2 24 -4z m-3253 -35 c0 -11 -4 -17 -10 -14 -5 3 -10 13 -10 21 0 8 5 14
10 14 6 0 10 -9 10 -21z m867 15 c-3 -3 -12 -4 -19 -1 -8 3 -5 6 6 6 11 1 17
-2 13 -5z m1340 -6 c-2 -7 -16 -13 -30 -13 -14 1 -23 -3 -21 -7 3 -4 -7 -8
-22 -8 -22 0 -24 2 -14 14 18 23 95 35 87 14z m543 2 c0 -5 -4 -10 -10 -10 -5
0 -10 5 -10 10 0 6 5 10 10 10 6 0 10 -4 10 -10z m270 0 c-8 -5 -22 -10 -30
-10 -13 0 -13 1 0 10 8 5 22 10 30 10 13 0 13 -1 0 -10z m407 -4 c3 -3 -25 -6
-63 -6 -48 0 -64 3 -54 10 16 10 106 7 117 -4z m490 -18 c-3 -8 -6 -5 -6 6 -1
11 2 17 5 13 3 -3 4 -12 1 -19z m-4166 -25 c-9 -16 -10 -14 -11 12 0 21 3 26
11 18 8 -8 8 -16 0 -30z m1109 27 c0 -5 -2 -10 -4 -10 -3 0 -8 5 -11 10 -3 6
-1 10 4 10 6 0 11 -4 11 -10z m1442 -13 c-12 -13 -19 -27 -15 -31 4 -4 0 -4
-10 0 -11 4 -24 -2 -37 -17 -15 -19 -19 -21 -20 -7 0 9 -3 23 -6 31 -4 10 7
19 38 30 65 22 75 21 50 -6z m646 -2 c-3 -14 -2 -25 2 -25 5 0 6 -9 3 -20 -7
-27 -23 -25 -23 3 0 12 -4 29 -9 37 -12 17 -5 30 16 30 11 0 14 -7 11 -25z
m-1291 -17 c30 -28 32 -53 2 -38 -11 6 -33 12 -50 12 -36 1 -41 34 -6 41 12 2
24 5 26 6 3 0 15 -9 28 -21z m728 12 c3 -5 1 -10 -4 -10 -6 0 -11 5 -11 10 0
6 2 10 4 10 3 0 8 -4 11 -10z m1454 -2 c-5 -43 0 -47 64 -51 61 -3 61 -3 -13
-4 -41 -1 -86 3 -100 7 -22 7 -22 8 -4 9 12 1 26 12 32 26 12 26 24 33 21 13z
m-4489 -8 c8 -5 11 -10 5 -10 -5 0 -17 5 -25 10 -8 5 -10 10 -5 10 6 0 17 -5
25 -10z m3263 3 c6 -11 -11 -53 -21 -53 -5 0 -9 14 -10 30 -1 28 20 42 31 23z
m747 -43 c0 -21 -4 -42 -10 -45 -15 -9 -13 -125 3 -126 10 0 10 -2 0 -6 -9 -3
-13 -26 -13 -67 0 -61 0 -62 -33 -74 -42 -15 -70 -15 -85 0 -17 17 -102 12
-173 -11 -34 -12 -70 -21 -79 -21 -9 0 -21 -5 -26 -10 -7 -7 -10 -4 -8 12 1
13 3 37 3 55 l1 32 143 -5 c81 -4 152 -2 166 3 19 8 -4 11 -95 17 -196 11
-214 15 -214 42 0 22 4 24 48 22 l47 -1 -42 -4 c-48 -5 -63 -33 -17 -33 14 0
23 4 19 10 -3 6 1 10 10 10 9 0 14 -4 11 -9 -7 -11 49 -25 64 -16 6 3 8 10 5
15 -3 5 -1 11 5 15 5 3 10 -3 10 -14 0 -19 6 -21 70 -21 66 0 70 1 69 23 0 12
-3 16 -6 10 -8 -21 -33 -15 -33 7 0 14 7 20 23 21 l22 2 -22 4 c-21 4 -23 10
-23 67 0 58 2 64 25 74 36 17 53 15 86 -9 32 -22 32 -23 29 40 -1 29 2 41 9
37 6 -4 11 -25 11 -46z m91 8 c-5 -32 -6 -32 -9 -6 -2 15 -11 29 -20 31 -10 3
-7 5 9 6 23 1 25 -2 20 -31z m114 11 c23 -1 25 -3 8 -6 -21 -4 -34 -33 -15
-33 5 0 9 -6 9 -14 0 -8 -8 -11 -19 -8 -12 3 -18 14 -18 33 0 20 -5 29 -16 29
-8 0 -12 5 -8 11 4 8 9 8 17 0 6 -6 25 -12 42 -12z m-3827 -24 c-2 -20 -8 -24
-50 -27 -34 -2 -48 1 -48 10 0 6 6 12 13 12 7 0 19 8 26 18 19 27 61 17 59
-13z m3662 20 c0 -8 -4 -15 -10 -15 -5 0 -10 7 -10 15 0 8 5 15 10 15 6 0 10
-7 10 -15z m1293 8 c-7 -2 -21 -2 -30 0 -10 3 -4 5 12 5 17 0 24 -2 18 -5z
m-3443 -33 c0 -11 -4 -20 -10 -20 -5 0 -10 9 -10 20 0 11 5 20 10 20 6 0 10
-9 10 -20z m-1870 -31 c0 -18 -4 -28 -10 -24 -5 3 -10 1 -10 -4 0 -6 -4 -11
-8 -11 -13 0 -13 63 0 71 19 12 28 1 28 -32z m4373 34 c-7 -2 -19 -2 -25 0 -7
3 -2 5 12 5 14 0 19 -2 13 -5z m-2456 -9 c-3 -3 -12 -4 -19 -1 -8 3 -5 6 6 6
11 1 17 -2 13 -5z m2103 -4 c0 -5 -4 -10 -10 -10 -5 0 -10 5 -10 10 0 6 5 10
10 10 6 0 10 -4 10 -10z m960 -16 c0 -8 -4 -14 -10 -14 -5 0 -10 9 -10 21 0
11 5 17 10 14 6 -3 10 -13 10 -21z m420 11 c7 -8 10 -22 6 -30 -8 -21 3 -45
22 -45 8 0 13 -3 9 -6 -3 -3 -15 -3 -26 1 -17 5 -21 15 -22 48 l-2 42 -7 -40
-7 -40 -2 43 c-1 44 8 52 29 27z m-80 -57 c0 -38 -27 -38 -28 0 0 19 5 29 14
29 9 0 14 -11 14 -29z m-1980 -14 c0 -26 -14 -32 -27 -11 -11 17 -10 31 1 39
15 10 26 -1 26 -28z m2012 4 c-8 -8 -9 -4 -5 13 4 13 8 18 11 10 2 -7 -1 -18
-6 -23z m-5406 5 c-3 -18 -20 -18 -24 0 -2 7 4 14 11 14 8 0 14 -6 13 -14z
m3311 8 c13 13 40 2 40 -16 0 -8 -11 -13 -29 -13 -15 1 -32 -2 -36 -6 -4 -5 4
-6 17 -4 14 2 26 -3 29 -11 3 -10 0 -12 -12 -8 -10 4 -26 7 -37 7 -15 0 -19 7
-19 30 0 27 2 29 18 21 13 -7 22 -7 29 0z m784 -18 c1 -16 1 -34 0 -40 -1 -9
12 -13 39 -13 38 0 40 2 40 30 0 28 3 30 34 30 33 0 35 -2 38 -37 3 -37 4 -38
46 -41 31 -2 43 0 41 10 -5 38 2 60 17 54 8 -3 12 -2 9 4 -9 14 19 12 33 -2 9
-9 12 -7 12 13 0 13 4 19 8 13 4 -6 15 -13 24 -17 12 -4 15 -2 11 9 -3 7 0 14
6 14 6 0 11 -9 11 -20 0 -17 7 -20 40 -20 44 0 55 -14 13 -18 -39 -3 -41 -11
-5 -18 l32 -6 -17 -29 c-13 -21 -20 -26 -30 -17 -12 10 -17 4 -14 -15 1 -5 -3
-6 -9 -2 -5 3 -10 1 -10 -4 0 -6 -8 -11 -18 -11 -10 0 -24 -6 -30 -12 -10 -10
-15 -10 -21 1 -7 11 -10 9 -16 -8 -7 -22 -33 -25 -47 -6 -4 6 -8 2 -8 -7 0
-10 -5 -18 -11 -18 -6 0 -9 7 -5 15 4 10 -1 15 -15 15 -11 0 -17 5 -14 10 3 6
-3 10 -14 10 -16 0 -21 -6 -21 -26 0 -14 -4 -23 -10 -19 -5 3 -10 15 -10 26 0
10 -7 19 -15 19 -10 0 -15 -10 -15 -27 0 -48 -12 -56 -69 -48 l-51 7 0 114 c0
69 4 114 10 114 6 0 11 -12 11 -27z m62 20 c-7 -2 -19 -2 -25 0 -7 3 -2 5 12
5 14 0 19 -2 13 -5z m137 -53 c0 -16 -4 -30 -9 -30 -5 0 -11 14 -13 30 -3 20
0 30 9 30 8 0 13 -12 13 -30z m1065 10 c8 0 12 -8 9 -22 -4 -21 -3 -21 7 2 11
24 11 24 19 5 7 -19 8 -19 13 3 4 19 4 18 3 -4 -1 -37 21 -43 27 -7 3 18 5 10
6 -22 2 -27 5 -44 8 -37 2 6 9 12 14 12 4 0 6 -7 2 -16 -3 -9 -15 -14 -32 -12
-19 2 -27 10 -31 30 -7 37 -30 22 -33 -20 -1 -22 -6 -31 -15 -27 -8 3 -20 5
-28 5 -8 0 -14 4 -14 9 0 5 9 7 20 4 23 -6 26 7 8 25 -10 10 -10 15 1 21 10 7
11 13 1 27 -9 15 -10 16 -6 2 3 -12 1 -15 -10 -11 -7 3 -14 14 -14 25 0 14 5
18 16 14 9 -3 22 -6 29 -6z m-1979 -18 c-10 -2 -22 0 -28 6 -6 6 0 7 19 4 21
-5 23 -7 9 -10z m-323 1 c-7 -2 -21 -2 -30 0 -10 3 -4 5 12 5 17 0 24 -2 18
-5z m1555 0 c-10 -2 -26 -2 -35 0 -10 3 -2 5 17 5 19 0 27 -2 18 -5z m-1034
-14 c-3 -6 -1 -15 7 -20 9 -5 3 -7 -18 -7 -24 1 -29 5 -26 19 3 11 14 19 25
19 11 0 16 -4 12 -11z m43 5 c-3 -3 -12 -4 -19 -1 -8 3 -5 6 6 6 11 1 17 -2
13 -5z m-107 -14 c0 -5 -4 -10 -9 -10 -6 0 -13 5 -16 10 -3 6 1 10 9 10 9 0
16 -4 16 -10z m210 2 c0 -5 -13 -7 -30 -4 -16 2 -30 6 -30 8 0 2 14 4 30 4 17
0 30 -4 30 -8z m123 1 c-7 -2 -19 -2 -25 0 -7 3 -2 5 12 5 14 0 19 -2 13 -5z
m-80 -10 c-7 -2 -19 -2 -25 0 -7 3 -2 5 12 5 14 0 19 -2 13 -5z m-1953 -33 c0
-16 -4 -30 -10 -30 -11 0 -14 43 -3 53 11 12 13 8 13 -23z m3497 8 c-3 -8 -6
-5 -6 6 -1 11 2 17 5 13 3 -3 4 -12 1 -19z m-3129 -25 c-4 -50 -22 -52 -26 -3
-2 31 1 40 13 40 13 0 15 -9 13 -37z m750 30 c-10 -2 -26 -2 -35 0 -10 3 -2 5
17 5 19 0 27 -2 18 -5z m-1582 -18 c-8 -7 -13 -15 -9 -18 3 -4 1 -7 -6 -7 -7
0 -9 -4 -6 -10 3 -5 1 -10 -4 -10 -15 0 -14 28 1 44 7 7 19 13 26 13 12 0 11
-3 -2 -12z m57 8 c-7 -2 -13 -12 -13 -21 0 -15 -2 -15 -10 -2 -15 23 -12 30
13 29 12 0 16 -3 10 -6z m84 -25 c-3 -7 -5 -2 -5 12 0 14 2 19 5 13 2 -7 2
-19 0 -25z m1312 28 c-12 -10 -60 -16 -54 -6 3 5 18 10 32 10 15 0 24 -2 22
-4z m188 -18 c-4 -12 -1 -28 5 -35 15 -19 -2 -16 -24 4 -25 23 -24 53 3 53 17
0 20 -4 16 -22z m528 12 c-3 -5 -14 -10 -23 -9 -14 0 -13 2 3 9 27 11 27 11
20 0z m35 -2 c0 -20 -13 -33 -35 -36 -18 -2 -18 -2 -2 8 9 6 17 18 17 25 0 8
5 15 10 15 6 0 10 -6 10 -12z m43 -1 c3 -8 -3 -14 -14 -14 -11 -1 -19 5 -19
13 0 18 26 19 33 1z m-750 -14 c-9 -3 -10 -10 -3 -23 13 -23 -3 -35 -20 -15
-16 19 -6 45 17 44 11 0 13 -3 6 -6z m64 -16 c9 -19 8 -23 -8 -24 -14 -1 -19
5 -19 23 0 30 14 31 27 1z m563 13 c0 -5 -4 -10 -10 -10 -5 0 -10 5 -10 10 0
6 5 10 10 10 6 0 10 -4 10 -10z m1130 -2 c0 -4 -11 -8 -25 -8 -14 0 -25 4 -25
10 0 5 11 9 25 8 14 -1 25 -6 25 -10z m566 -5 c13 -17 13 -17 14 -1 0 11 5 15
14 12 10 -4 12 -15 7 -37 -3 -18 -6 -44 -5 -59 1 -15 -3 -25 -7 -22 -5 3 -9
12 -9 20 0 8 -4 14 -10 14 -5 0 -10 -7 -10 -15 0 -8 -4 -15 -10 -15 -5 0 -10
10 -10 23 0 16 -3 18 -9 9 -5 -9 -10 -2 -14 24 -5 28 -2 40 11 50 22 17 22 17
38 -3z m131 -5 c-3 -8 -6 -5 -6 6 -1 11 2 17 5 13 3 -3 4 -12 1 -19z m-209 0
c7 -7 11 -30 11 -52 -1 -23 -3 -33 -6 -24 -4 16 -39 34 -56 30 -5 -1 -6 2 -3
7 4 5 2 12 -4 16 -18 11 -11 23 10 18 11 -3 20 0 20 6 0 14 13 14 28 -1z
m-3168 -13 c0 -11 -11 -15 -37 -15 l-38 1 30 14 c40 18 45 18 45 0z m785 5 c3
-5 1 -10 -4 -10 -6 0 -11 5 -11 10 0 6 2 10 4 10 3 0 8 -4 11 -10z m315 0 c0
-5 -2 -10 -4 -10 -3 0 -8 5 -11 10 -3 6 -1 10 4 10 6 0 11 -4 11 -10z m2435 0
c-27 -12 -35 -12 -35 0 0 6 12 10 28 9 24 0 25 -1 7 -9z m-4228 -22 c-3 -8 -6
-5 -6 6 -1 11 2 17 5 13 3 -3 4 -12 1 -19z m2256 15 c-7 -2 -19 -2 -25 0 -7 3
-2 5 12 5 14 0 19 -2 13 -5z m1750 -13 c3 -13 0 -20 -9 -20 -8 0 -14 9 -14 20
0 11 4 20 9 20 5 0 11 -9 14 -20z m-3393 0 c0 -5 -2 -10 -4 -10 -3 0 -8 5 -11
10 -3 6 -1 10 4 10 6 0 11 -4 11 -10z m3501 -7 c1 -17 2 -17 6 0 8 30 22 18
21 -18 -1 -21 -6 -35 -14 -35 -15 0 -34 31 -34 54 0 22 20 20 21 -1z m-3033 0
c-10 -2 -28 -2 -40 0 -13 2 -5 4 17 4 22 1 32 -1 23 -4z m202 -23 c0 -11 -7
-20 -15 -20 -27 0 -18 30 13 39 1 1 2 -8 2 -19z m50 10 c0 -5 -7 -10 -15 -10
-8 0 -15 5 -15 10 0 6 7 10 15 10 8 0 15 -4 15 -10z m150 -15 c0 -18 -4 -23
-15 -19 -8 4 -15 15 -15 25 0 10 7 19 15 19 9 0 15 -9 15 -25z m2290 4 c0 -4
-7 -6 -15 -3 -8 4 -15 10 -15 15 0 4 7 6 15 3 8 -4 15 -10 15 -15z m-1530 -9
c0 -11 -4 -20 -9 -20 -5 0 -7 9 -4 20 3 11 7 20 9 20 2 0 4 -9 4 -20z m1600 0
c0 -5 -7 -7 -15 -4 -8 4 -15 8 -15 10 0 2 7 4 15 4 8 0 15 -4 15 -10z m-3736
-31 c-3 -5 1 -6 9 -3 8 3 17 1 21 -4 3 -5 0 -9 -7 -10 -7 -1 -26 -5 -44 -9
-26 -6 -30 -11 -23 -23 9 -13 11 -13 19 0 8 12 11 12 17 -4 5 -12 2 -23 -7
-30 -8 -6 -13 -20 -11 -30 3 -15 0 -18 -19 -13 -13 3 -30 1 -38 -6 -11 -9 -15
-9 -18 1 -3 6 -17 13 -31 13 -17 1 -21 3 -9 6 19 5 23 23 5 23 -7 0 -21 14
-30 30 -15 27 -16 32 -3 36 8 4 26 4 38 0 14 -3 32 1 43 9 10 8 29 15 42 15
13 0 22 6 22 16 0 13 3 14 15 4 8 -7 12 -16 9 -21z m830 4 c-1 -16 -3 -31 -3
-35 -1 -5 -5 -8 -11 -8 -5 0 -10 16 -10 35 0 22 5 35 13 35 8 0 12 -11 11 -27z
m2211 18 c-3 -5 2 -17 11 -25 8 -9 11 -16 5 -16 -5 0 -11 -21 -13 -46 -3 -46
-3 -47 -41 -51 -29 -3 -37 -1 -31 9 4 8 3 10 -2 5 -5 -5 -9 -14 -9 -19 0 -6
-5 -13 -11 -15 -7 -2 -10 5 -7 20 3 14 0 28 -6 31 -6 4 -11 23 -11 42 0 20 -5
44 -10 55 -10 18 -7 19 60 19 41 0 69 -4 65 -9z m-245 -11 c18 -6 7 -8 -40 -8
-47 0 -58 2 -40 8 14 4 32 8 40 8 8 0 26 -4 40 -8z m1200 -26 c0 -2 -13 -4
-30 -4 -23 0 -30 5 -30 19 0 18 2 19 30 5 17 -9 30 -17 30 -20z m130 16 c0 -5
-5 -10 -11 -10 -5 0 -7 5 -4 10 3 6 8 10 11 10 2 0 4 -4 4 -10z m-1670 -10
c-8 -5 -19 -10 -25 -10 -5 0 -3 5 5 10 8 5 20 10 25 10 6 0 3 -5 -5 -10z m40
-31 c0 -18 -4 -28 -10 -24 -5 3 -10 20 -10 36 0 18 4 28 10 24 6 -3 10 -20 10
-36z m225 29 c27 3 45 0 45 -6 0 -18 -22 -25 -31 -11 -7 12 -10 11 -21 -2 -7
-9 -21 -19 -30 -22 -15 -5 -18 -1 -17 26 0 18 2 27 5 22 2 -6 24 -9 49 -7z
m1455 2 c0 -5 -4 -10 -10 -10 -5 0 -10 5 -10 10 0 6 5 10 10 10 6 0 10 -4 10
-10z m40 -30 c0 -22 -4 -40 -9 -40 -4 0 -8 18 -8 40 0 22 4 40 8 40 5 0 9 -18
9 -40z m-1403 24 c-3 -3 -12 -4 -19 -1 -8 3 -5 6 6 6 11 1 17 -2 13 -5z m48
-4 c-3 -5 -12 -7 -20 -3 -21 7 -19 13 6 13 11 0 18 -4 14 -10z m-1005 -10 c0
-5 -12 -10 -27 -9 l-28 1 25 8 c14 4 26 8 28 9 1 1 2 -3 2 -9z m547 -22 c-3
-7 -5 -2 -5 12 0 14 2 19 5 13 2 -7 2 -19 0 -25z m510 10 c-3 -8 -6 -5 -6 6
-1 11 2 17 5 13 3 -3 4 -12 1 -19z m-62 -6 c-3 -3 -11 0 -18 7 -9 10 -8 11 6
5 10 -3 15 -9 12 -12z m-2765 -7 c0 -1 -9 -5 -19 -8 -13 -3 -18 -1 -14 9 4 10
33 10 33 -1z m1260 -1 c0 -8 -7 -22 -15 -30 -13 -14 -15 -12 -15 15 0 21 5 31
15 31 8 0 15 -7 15 -16z m860 6 c0 -5 -4 -10 -8 -10 -13 0 -13 -63 0 -73 9 -6
8 -7 -5 -3 -10 3 -23 6 -28 6 -5 0 -9 16 -9 35 0 30 -3 35 -22 35 -19 0 -20 2
-8 10 20 13 80 13 80 0z m1667 4 c-3 -3 -12 -4 -19 -1 -8 3 -5 6 6 6 11 1 17
-2 13 -5z m-2627 -29 c0 -16 -6 -25 -15 -25 -15 0 -21 31 -8 43 13 14 23 6 23
-18z m2866 -10 c1 -28 1 -28 -3 -2 -3 21 -10 27 -29 27 -18 0 -24 -6 -25 -22
0 -13 -3 -17 -6 -10 -10 25 6 43 34 40 23 -2 28 -8 29 -33z m-3951 15 c3 -5 1
-10 -4 -10 -6 0 -11 5 -11 10 0 6 2 10 4 10 3 0 8 -4 11 -10z m2062 -27 c-3
-10 -5 -4 -5 12 0 17 2 24 5 18 2 -7 2 -21 0 -30z m1973 -55 c0 -39 -4 -68
-10 -68 -5 0 -10 11 -10 25 0 14 -4 25 -10 25 -5 0 -10 -11 -10 -25 0 -35 -43
-31 -50 5 -3 16 -13 26 -28 28 -20 3 -22 -1 -22 -42 l0 -46 -55 0 -55 0 0 48
c0 33 4 49 13 49 8 0 11 -11 9 -34 -4 -30 -2 -33 22 -33 22 0 26 4 26 29 0 24
5 30 33 36 17 4 26 9 20 12 -24 9 -13 25 15 22 15 -2 33 1 41 5 9 6 12 5 8 -1
-6 -10 12 -31 42 -48 11 -6 12 2 7 51 -5 42 -4 55 3 44 6 -8 11 -45 11 -82z
m-2060 47 c0 -40 -15 -48 -18 -9 -2 25 4 44 14 44 2 0 4 -16 4 -35z m1790 14
c0 -5 -4 -9 -10 -9 -5 0 -10 7 -10 16 0 8 5 12 10 9 6 -3 10 -10 10 -16z
m-1342 -14 c74 -22 83 -41 15 -31 -27 4 -84 7 -128 7 -44 -1 -84 2 -90 6 -16
12 -16 33 -1 27 8 -3 17 0 21 6 10 16 106 8 183 -15z m-1781 9 c-3 -3 -12 -4
-19 -1 -8 3 -5 6 6 6 11 1 17 -2 13 -5z m2990 -51 c-3 -10 -5 -2 -5 17 0 19 2
27 5 18 2 -10 2 -26 0 -35z m-4817 16 c0 -5 5 -7 11 -3 7 4 10 1 7 -7 -7 -20
-52 -18 -56 4 -2 12 3 17 17 17 12 0 21 -5 21 -11z m1820 -49 c5 0 11 12 13
28 4 25 4 25 3 -3 -1 -43 -30 -41 -33 3 -3 32 -3 32 3 2 3 -16 9 -30 14 -30z
m83 45 c-3 -9 -8 -14 -10 -11 -3 3 -2 9 2 15 9 16 15 13 8 -4z m1357 11 c0 -3
-4 -8 -10 -11 -5 -3 -10 -1 -10 4 0 6 5 11 10 11 6 0 10 -2 10 -4z m1937 -2
c-3 -3 -12 -4 -19 -1 -8 3 -5 6 6 6 11 1 17 -2 13 -5z m-1480 -10 c-3 -3 -12
-4 -19 -1 -8 3 -5 6 6 6 11 1 17 -2 13 -5z m173 -38 c0 -19 -3 -41 -6 -50 -12
-32 -24 -15 -24 34 0 38 4 50 15 50 10 0 15 -10 15 -34z m-1522 -26 c-2 -5 -9
-6 -16 -1 -7 4 -10 15 -6 25 6 17 8 17 16 2 5 -9 8 -21 6 -26z m979 27 c0 -7
3 -25 7 -40 4 -17 2 -27 -4 -27 -6 0 -8 5 -5 10 3 6 2 10 -4 10 -5 0 -9 14 -9
30 1 28 15 45 15 17z m130 -49 c-2 -13 -4 -3 -4 22 0 25 2 35 4 23 2 -13 2
-33 0 -45z m1450 25 c-3 -10 -5 -4 -5 12 0 17 2 24 5 18 2 -7 2 -21 0 -30z
m30 5 c-3 -7 -5 -2 -5 12 0 14 2 19 5 13 2 -7 2 -19 0 -25z m-4073 13 c4 -5 3
-16 0 -25 -6 -15 -8 -15 -19 1 -13 18 -11 33 5 33 5 0 11 -4 14 -9z m-984 -11
c-8 -5 -22 -9 -30 -9 -10 0 -8 3 5 9 27 12 43 12 25 0z m920 6 c0 -3 -4 -8
-10 -11 -5 -3 -10 -1 -10 4 0 6 5 11 10 11 6 0 10 -2 10 -4z m2790 -31 l0 -35
-52 2 -53 2 47 3 c46 4 47 5 41 34 -3 18 -1 29 6 29 6 0 11 -16 11 -35z
m-3782 16 c11 -6 10 -10 -4 -15 -9 -3 -19 -4 -22 -1 -3 3 1 5 9 5 11 0 11 2
-1 10 -8 5 -10 10 -5 10 6 0 16 -4 23 -9z m3492 -6 c0 -8 -9 -15 -20 -15 -11
0 -20 7 -20 15 0 8 9 15 20 15 11 0 20 -7 20 -15z m-1564 -44 c2 -19 1 -19 -3
-1 -6 26 -23 26 -23 0 0 -11 -7 -20 -15 -20 -18 0 -19 12 -3 28 9 9 9 12 -1
12 -7 0 -10 4 -6 10 10 16 50 -6 51 -29z m-1223 22 c-7 -2 -19 -2 -25 0 -7 3
-2 5 12 5 14 0 19 -2 13 -5z m500 0 c-7 -2 -21 -2 -30 0 -10 3 -4 5 12 5 17 0
24 -2 18 -5z m3917 -3 c8 -5 11 -10 5 -10 -5 0 -17 5 -25 10 -8 5 -10 10 -5
10 6 0 17 -5 25 -10z m-3110 -4 c0 -2 -9 -6 -20 -9 -11 -3 -18 -1 -14 4 5 9
34 13 34 5z m666 -31 c1 -8 -4 -11 -12 -8 -15 6 -18 16 -7 26 8 9 16 1 19 -18z
m467 14 c-8 -8 -16 -8 -30 0 -16 9 -14 10 12 11 21 0 26 -3 18 -11z m117 -9
c0 -11 -4 -20 -10 -20 -5 0 -10 9 -10 20 0 11 5 20 10 20 6 0 10 -9 10 -20z
m-63 4 c-3 -3 -12 -4 -19 -1 -8 3 -5 6 6 6 11 1 17 -2 13 -5z m-2120 -26 c-3
-8 -6 -5 -6 6 -1 11 2 17 5 13 3 -3 4 -12 1 -19z m53 11 c0 -4 -9 -9 -20 -12
-12 -3 -20 0 -20 7 0 6 9 12 20 12 11 0 20 -3 20 -7z m80 1 c0 -5 -4 -10 -9
-10 -5 0 -12 -8 -14 -17 -3 -11 -5 -7 -6 10 -1 18 4 27 14 27 8 0 15 -4 15
-10z m2180 6 c0 -2 -7 -7 -16 -10 -8 -3 -12 -2 -9 4 6 10 25 14 25 6z m843
-13 c-13 -2 -33 -2 -45 0 -13 2 -3 4 22 4 25 0 35 -2 23 -4z m-253 -17 c0 -8
-8 -14 -19 -13 -11 0 -17 6 -14 14 7 18 33 17 33 -1z m-1210 -16 c0 -5 -4 -10
-10 -10 -5 0 -10 5 -10 10 0 6 5 10 10 10 6 0 10 -4 10 -10z m1272 -15 c-2
-14 -6 -25 -8 -25 -2 0 -4 11 -4 25 0 14 4 25 9 25 4 0 6 -11 3 -25z m337 18
c0 -5 -4 -17 -9 -28 -8 -17 -8 -16 -7 8 1 15 5 27 9 27 4 0 8 -3 7 -7z m-229
-35 c-1 -26 -3 -30 -10 -16 -6 9 -7 23 -4 32 9 25 14 19 14 -16z m-1730 7 c0
-8 -6 -15 -14 -15 -16 0 -29 -27 -20 -41 3 -5 1 -9 -4 -9 -15 0 -23 29 -16 56
4 17 13 24 30 24 15 0 24 -6 24 -15z m36 -12 c-10 -10 -19 5 -10 18 6 11 8 11
12 0 2 -7 1 -15 -2 -18z m41 5 c-3 -8 -6 -5 -6 6 -1 11 2 17 5 13 3 -3 4 -12
1 -19z m1573 1 c0 -5 -4 -9 -10 -9 -5 0 -10 7 -10 16 0 8 5 12 10 9 6 -3 10
-10 10 -16z m167 -16 c-3 -10 -5 -4 -5 12 0 17 2 24 5 18 2 -7 2 -21 0 -30z
m110 0 c-3 -10 -5 -4 -5 12 0 17 2 24 5 18 2 -7 2 -21 0 -30z m-157 12 c0 -8
-2 -15 -4 -15 -2 0 -6 7 -10 15 -3 8 -1 15 4 15 6 0 10 -7 10 -15z m-343 -19
c-7 -7 -21 -16 -32 -20 -16 -6 -18 -5 -7 5 15 16 16 33 0 23 -6 -4 -8 -3 -5 3
4 6 18 8 31 6 20 -4 23 -8 13 -17z m-3067 -2 c0 -2 -7 -4 -15 -4 -8 0 -15 4
-15 10 0 5 7 7 15 4 8 -4 15 -8 15 -10z m836 -45 c-8 -52 -16 -45 -16 12 1 42
3 50 11 36 6 -9 8 -31 5 -48z m188 53 c8 -14 -5 -52 -19 -52 -13 0 -27 45 -17
55 8 8 30 6 36 -3z m-1664 -37 c0 -18 -5 -25 -20 -25 -15 0 -20 7 -20 25 0 18
5 25 20 25 15 0 20 -7 20 -25z m317 3 c-3 -8 -6 -5 -6 6 -1 11 2 17 5 13 3 -3
4 -12 1 -19z m137 8 c-7 -19 -64 -18 -64 1 0 8 12 13 35 13 26 0 33 -4 29 -14z
m126 -6 c0 -11 -4 -20 -10 -20 -5 0 -10 9 -10 20 0 11 5 20 10 20 6 0 10 -9
10 -20z m315 -3 c11 -2 -5 -5 -35 -4 -30 0 -43 2 -27 4 15 2 27 10 27 16 0 9
2 9 8 1 4 -7 16 -14 27 -17z m272 -29 c-3 -7 -5 -2 -5 12 0 14 2 19 5 13 2 -7
2 -19 0 -25z m2751 -37 c-2 -32 -7 -55 -13 -54 -6 1 -12 -7 -12 -18 -1 -10 3
-19 8 -19 6 0 8 -4 5 -9 -4 -5 0 -12 6 -14 7 -3 -13 -6 -44 -6 l-58 -1 2 88
c0 48 3 72 5 55 4 -29 8 -33 35 -33 27 0 30 3 24 24 -9 35 2 55 25 49 17 -5
20 -13 17 -62z m-1435 17 c3 -10 -1 -21 -8 -26 -7 -4 -15 -16 -18 -27 -4 -18
-5 -18 -6 3 0 12 -5 22 -11 22 -5 0 -9 10 -8 23 2 29 44 33 51 5z m-2638 5
c26 -5 28 -7 10 -14 -28 -11 -77 -11 -71 0 4 5 0 11 -6 14 -17 7 30 6 67 0z
m575 -33 c0 -33 3 -40 20 -40 16 0 20 7 20 34 0 29 4 34 28 38 26 4 28 1 30
-29 3 -35 -9 -54 -41 -66 -10 -4 -16 -10 -14 -14 3 -5 -9 -8 -26 -7 -32 1 -32
1 -35 62 -2 39 1 62 8 62 5 0 10 -18 10 -40z m3307 3 c-3 -10 -5 -4 -5 12 0
17 2 24 5 18 2 -7 2 -21 0 -30z m-3147 2 c0 -14 -4 -25 -10 -25 -5 0 -10 11
-10 25 0 14 5 25 10 25 6 0 10 -11 10 -25z m-420 -178 c12 -10 420 -18 420 -7
0 5 20 10 45 10 41 0 45 -2 45 -25 0 -22 -4 -25 -35 -25 -33 0 -35 -2 -35 -32
0 -25 -3 -29 -10 -18 -5 8 -10 27 -10 43 l0 27 -97 1 c-54 1 -140 3 -190 5
-56 2 -93 -1 -93 -6 0 -6 4 -10 10 -10 5 0 9 -11 8 -24 -2 -17 -10 -27 -25
-31 -16 -4 -23 -13 -23 -30 0 -14 5 -25 10 -25 8 0 9 -87 1 -141 -1 -4 -20 -2
-43 3 -24 4 -59 11 -80 14 -32 6 -37 10 -40 40 -3 27 -1 33 12 29 9 -3 24 9
40 31 27 41 36 32 35 -36 0 -22 3 -40 7 -40 7 0 12 27 10 59 0 8 6 21 14 29
15 14 17 89 3 98 -4 2 -18 5 -32 6 -18 2 -23 7 -19 20 2 10 0 18 -6 18 -6 0
-8 8 -5 18 3 12 -3 22 -19 29 -22 11 -22 12 10 12 29 1 32 -2 32 -28 0 -34 9
-61 20 -61 16 0 22 37 22 140 l1 105 6 -97 c3 -53 8 -98 11 -101z m760 167 c0
-8 -10 -14 -25 -14 -14 0 -25 5 -25 10 0 6 -5 10 -11 10 -5 0 -7 -4 -4 -10 3
-5 -3 -10 -14 -10 -13 0 -21 7 -21 18 0 14 8 16 50 14 35 -3 50 -8 50 -18z
m914 -7 c-21 -12 -29 -2 -13 16 10 11 16 12 21 4 4 -7 0 -16 -8 -20z m119 26
c-29 -2 -53 -8 -53 -12 0 -5 -10 -11 -22 -14 -22 -6 -22 -5 -5 8 18 13 17 14
-5 18 -13 2 13 4 57 4 54 -1 63 -2 28 -4z m-2041 -10 c-6 -2 -10 -9 -6 -14 3
-5 1 -9 -5 -9 -5 0 -13 5 -16 10 -12 20 -25 9 -25 -20 0 -16 -4 -30 -10 -30
-11 0 -13 30 -4 54 4 11 18 16 43 15 20 0 30 -3 23 -6z m278 3 c0 -2 -7 -7
-16 -10 -8 -3 -12 -2 -9 4 6 10 25 14 25 6z m760 -11 c0 -8 -4 -15 -10 -15 -5
0 -10 7 -10 15 0 8 5 15 10 15 6 0 10 -7 10 -15z m17 -7 c-3 -8 -6 -5 -6 6 -1
11 2 17 5 13 3 -3 4 -12 1 -19z m833 18 c0 -9 -50 -12 -62 -5 -8 6 1 9 25 9
20 0 37 -2 37 -4z m324 -11 c15 -8 35 -15 42 -15 10 0 14 -8 11 -25 -3 -24
-17 -47 -17 -28 0 14 -41 9 -68 -8 -13 -8 -22 -25 -23 -39 0 -14 -3 -19 -6
-13 -7 19 -33 -10 -33 -36 0 -12 -4 -21 -10 -21 -5 0 -10 -10 -10 -22 0 -19
-2 -20 -10 -8 -7 11 -10 11 -10 2 0 -7 -4 -10 -10 -7 -5 3 -10 0 -11 -7 0 -10
-2 -10 -6 0 -2 6 -8 10 -12 7 -5 -2 -8 18 -7 45 1 36 5 49 14 45 7 -2 17 6 22
20 5 14 15 25 22 26 7 0 3 4 -9 9 -39 16 -28 45 22 64 24 10 50 14 56 10 8 -4
9 -3 5 4 -10 17 13 15 48 -3z m123 -22 c-3 -10 -5 -4 -5 12 0 17 2 24 5 18 2
-7 2 -21 0 -30z m-1242 17 c3 -5 1 -10 -4 -10 -6 0 -11 5 -11 10 0 6 2 10 4
10 3 0 8 -4 11 -10z m192 4 c-3 -3 -12 -4 -19 -1 -8 3 -5 6 6 6 11 1 17 -2 13
-5z m1333 -15 c0 -6 -4 -7 -10 -4 -5 3 -10 11 -10 16 0 6 5 7 10 4 6 -3 10
-11 10 -16z m1520 -4 c0 -8 -7 -15 -15 -15 -16 0 -20 12 -8 23 11 12 23 8 23
-8z m-3274 -9 c19 -20 18 -26 -6 -26 -13 0 -20 7 -20 20 0 24 6 25 26 6z m431
-23 c-3 -10 -5 -4 -5 12 0 17 2 24 5 18 2 -7 2 -21 0 -30z m419 30 c-15 -4
-16 -7 -5 -14 9 -5 -14 -9 -63 -9 -42 0 -85 -2 -95 -6 -10 -3 -2 4 17 14 25
14 54 20 100 20 36 0 56 -3 46 -5z m-1716 -23 c0 -11 -4 -20 -8 -20 -4 0 -8 9
-9 20 -1 11 2 20 8 20 5 0 9 -9 9 -20z m808 14 c41 -11 22 -23 -33 -21 -36 1
-55 6 -55 15 0 13 48 16 88 6z m299 -16 c-3 -8 -6 -5 -6 6 -1 11 2 17 5 13 3
-3 4 -12 1 -19z m2480 16 c-3 -3 -12 -4 -19 -1 -8 3 -5 6 6 6 11 1 17 -2 13
-5z m71 -1 c-10 -2 -26 -2 -35 0 -10 3 -2 5 17 5 19 0 27 -2 18 -5z m-3178
-18 c0 -11 -13 -15 -52 -16 -29 0 -61 -2 -72 -4 -25 -5 -46 4 -46 21 0 11 19
14 85 14 69 0 85 -3 85 -15z m1829 -57 c-2 -77 -6 -69 -11 20 -2 28 0 52 5 52
4 0 6 -33 6 -72z m156 62 c8 -13 -5 -13 -25 0 -13 8 -13 10 2 10 9 0 20 -4 23
-10z m95 -6 c0 -2 -18 -4 -41 -4 -22 0 -38 4 -35 8 5 8 76 4 76 -4z m-2395
-13 c-3 -5 3 -12 12 -14 10 -3 0 -5 -22 -5 -30 0 -35 1 -20 8 18 7 16 8 -10
12 -27 5 -26 5 8 7 21 0 36 -3 32 -8z m1642 -13 c-3 -8 -6 -5 -6 6 -1 11 2 17
5 13 3 -3 4 -12 1 -19z m90 0 c-3 -8 -6 -5 -6 6 -1 11 2 17 5 13 3 -3 4 -12 1
-19z m70 -10 c-3 -7 -5 -2 -5 12 0 14 2 19 5 13 2 -7 2 -19 0 -25z m59 7 c1
-8 -2 -13 -7 -9 -5 3 -9 12 -9 21 0 19 13 9 16 -12z m1584 21 c0 -3 -4 -8 -10
-11 -5 -3 -10 -1 -10 4 0 6 5 11 10 11 6 0 10 -2 10 -4z m210 -17 c-7 -11 -14
-18 -17 -15 -3 3 0 12 7 21 18 21 23 19 10 -6z m310 -14 c0 -28 4 -35 20 -35
16 0 20 7 20 35 0 40 30 52 31 13 1 -37 1 -179 0 -230 l-1 -48 -74 0 -73 0 -2
150 -2 150 40 0 c40 0 41 -1 41 -35z m-4142 -8 c6 3 12 0 12 -6 0 -6 -10 -11
-22 -11 -18 0 -23 6 -25 27 -1 26 -1 26 10 7 7 -12 18 -19 25 -17z m1287 3
c65 -7 94 -15 103 -27 9 -13 25 -17 60 -16 40 1 44 0 25 -9 -13 -6 -23 -15
-23 -20 0 -5 -7 -2 -16 6 -23 24 -44 20 -44 -9 0 -23 4 -25 44 -25 24 0 46 -4
48 -9 2 -5 107 -11 234 -12 215 -4 229 -3 210 13 -21 16 -20 16 7 11 43 -8 31
-37 -18 -44 -31 -5 -25 -6 27 -6 37 1 70 -2 74 -6 4 -4 -29 -7 -74 -7 -44 0
-84 5 -87 10 -3 6 -11 10 -16 10 -6 0 -8 -4 -5 -8 2 -4 -5 -9 -17 -9 -17 -2
-19 0 -7 7 9 6 10 10 3 10 -6 0 -15 -5 -18 -10 -6 -10 -70 -6 -120 7 -14 4
-17 2 -10 -5 6 -6 19 -12 30 -15 11 -2 7 -2 -10 0 -16 3 -57 5 -89 6 -37 2
-61 7 -64 15 -2 7 -8 10 -13 6 -5 -3 -24 0 -42 7 -29 10 -40 9 -83 -11 -27
-12 -43 -24 -36 -27 6 -3 12 -20 12 -38 0 -33 0 -33 -55 -37 l-55 -3 0 39 c0
31 -3 37 -16 32 -9 -3 -22 -6 -29 -6 -8 0 -12 -12 -11 -32 1 -29 -2 -33 -26
-36 -26 -3 -28 -1 -28 32 0 29 -4 36 -20 36 -16 0 -20 7 -22 33 0 17 -2 38 -2
45 -1 8 -9 18 -19 23 -12 7 -17 23 -17 58 l0 47 63 -8 c34 -4 103 -13 152 -18z
m-1201 5 c-4 -8 -10 -15 -15 -15 -4 0 -6 7 -3 15 4 8 10 15 15 15 4 0 6 -7 3
-15z m1239 8 c-7 -2 -19 -2 -25 0 -7 3 -2 5 12 5 14 0 19 -2 13 -5z m-809 -14
c4 6 12 11 17 11 6 0 3 -7 -5 -16 -37 -36 -22 -42 116 -43 73 -1 134 -4 137
-7 7 -7 -422 -3 -442 5 -10 4 -18 11 -17 16 1 6 -9 13 -22 16 -22 5 -22 5 4
11 15 3 25 2 23 -2 -7 -12 23 -33 35 -25 7 5 8 11 1 19 -8 9 -1 12 24 12 19 0
35 -4 35 -8 0 -4 -9 -8 -20 -8 -11 0 -20 -7 -20 -15 0 -10 10 -14 35 -13 19 1
32 5 30 9 -8 12 6 39 17 33 5 -3 4 -11 -3 -20 -13 -16 -13 -16 18 -19 19 -2
21 1 17 29 -4 21 -3 27 4 17 7 -9 12 -10 16 -2z m3093 -5 c-3 -3 -12 -4 -19
-1 -8 3 -5 6 6 6 11 1 17 -2 13 -5z m-3050 -10 c-3 -3 -12 -4 -19 -1 -8 3 -5
6 6 6 11 1 17 -2 13 -5z m3126 -1 c-7 -2 -21 -2 -30 0 -10 3 -4 5 12 5 17 0
24 -2 18 -5z m-2730 -10 c-7 -2 -21 -2 -30 0 -10 3 -4 5 12 5 17 0 24 -2 18
-5z m-823 -23 c0 -5 -19 -9 -42 -9 l-43 2 40 7 c22 4 41 8 43 9 1 0 2 -3 2 -9z
m1447 -22 c-3 -7 -5 -2 -5 12 0 14 2 19 5 13 2 -7 2 -19 0 -25z m2398 2 c5 1
11 -2 12 -7 2 -4 -15 -8 -37 -8 -22 0 -40 1 -40 2 0 1 10 12 22 23 20 18 23
19 28 5 3 -9 10 -16 15 -15z m778 16 c15 2 16 0 6 -12 -7 -8 -8 -14 -3 -13 5
1 16 1 24 0 12 -1 12 -3 2 -9 -7 -5 -14 -21 -15 -37 -2 -25 3 -30 31 -38 17
-6 32 -14 32 -20 0 -5 12 -6 28 -3 15 4 23 3 17 -1 -5 -4 -10 -14 -11 -20 -2
-29 -5 -32 -18 -27 -8 3 -12 12 -9 20 3 9 -1 14 -12 14 -12 0 -15 -5 -11 -16
10 -26 -4 -37 -24 -19 -22 20 -40 12 -40 -16 0 -12 -4 -17 -11 -14 -6 4 -17
-1 -25 -11 -8 -11 -14 -14 -13 -9 4 28 -3 45 -17 45 -11 0 -14 6 -9 21 5 14 3
19 -3 15 -6 -3 -13 -2 -17 4 -3 5 -16 11 -28 11 -18 1 -19 2 -4 6 11 3 16 11
13 19 -4 10 4 16 24 21 27 5 30 8 26 39 -3 19 -1 32 3 30 4 -3 14 4 21 14 8
11 17 16 20 11 3 -4 13 -7 23 -5z m-2600 -16 c-3 -11 -7 -20 -9 -20 -2 0 -4 9
-4 20 0 11 4 20 9 20 5 0 7 -9 4 -20z m1462 -9 c-6 -5 -25 10 -25 20 0 5 6 4
14 -3 8 -7 12 -15 11 -17z m-3758 -21 c-2 -23 -10 -17 -12 10 -1 10 2 17 6 14
4 -2 7 -13 6 -24z m251 -45 l1 -20 -9 20 c-5 11 -8 31 -8 45 l0 25 8 -25 c4
-14 8 -34 8 -45z m1757 45 c-3 -5 -23 -9 -43 -9 l-37 2 40 7 c22 4 41 8 43 9
2 0 0 -3 -3 -9z m151 -37 c-11 -11 -17 4 -9 23 7 18 8 18 11 1 2 -10 1 -21 -2
-24z m-2078 9 c2 -7 -3 -12 -10 -12 -8 0 -15 7 -15 15 0 18 19 15 25 -3z
m3237 8 c3 -5 2 -10 -3 -10 -6 0 -8 -9 -5 -20 6 -23 -4 -25 -28 -7 -21 16 -24
28 -7 38 18 12 35 11 43 -1z m-148 -20 c1 -11 -2 -20 -7 -20 -5 0 -11 -8 -13
-17 -3 -12 -4 -11 -2 3 1 19 -3 20 -72 17 -68 -3 -73 -2 -73 17 0 18 6 20 83
20 76 0 83 -2 84 -20z m948 10 c3 -6 -1 -13 -9 -16 -9 -3 -13 -10 -10 -15 3
-5 -2 -6 -10 -3 -24 9 -19 24 7 24 18 0 19 2 7 10 -9 6 -10 10 -3 10 6 0 15
-5 18 -10z m-3235 -20 c0 -11 -7 -20 -15 -20 -8 0 -15 9 -15 20 0 11 7 20 15
20 8 0 15 -9 15 -20z m317 -2 c-3 -8 -6 -5 -6 6 -1 11 2 17 5 13 3 -3 4 -12 1
-19z m1768 12 c3 -5 -3 -10 -14 -10 -12 0 -21 5 -21 10 0 6 6 10 14 10 8 0 18
-4 21 -10z m669 -42 c6 -4 -16 -9 -49 -10 -57 -2 -58 -2 -12 -5 42 -4 47 -7
47 -28 0 -25 -42 -65 -67 -65 -8 0 -12 -4 -9 -9 3 -5 -5 -16 -18 -24 -15 -10
-24 -26 -25 -49 -3 -55 -4 -58 -13 -58 -4 0 -8 -6 -8 -14 0 -9 -12 -16 -27
-18 -20 -2 -28 -8 -27 -20 1 -11 -5 -18 -15 -18 -10 0 -27 -9 -39 -20 -12 -11
-31 -20 -42 -20 -20 0 -21 -4 -16 -42 l6 -43 -14 40 c-8 22 -14 32 -15 23 -1
-10 -6 -18 -12 -18 -5 0 -7 -4 -4 -10 4 -6 -1 -7 -10 -3 -15 5 -15 3 -4 -16 8
-11 19 -21 26 -21 14 0 15 -6 5 -32 -5 -13 -11 -15 -22 -8 -11 7 -11 10 -2 10
7 0 10 5 7 10 -3 6 -18 10 -33 10 -25 0 -25 1 -6 15 11 9 13 13 4 10 -11 -4
-15 3 -16 30 -1 19 -2 41 -3 49 -1 9 -18 13 -61 14 -43 0 -58 -3 -53 -11 9
-15 4 -58 -9 -74 -6 -7 -7 -13 -2 -13 4 0 -1 -7 -12 -16 -10 -8 -13 -13 -6 -9
6 3 12 2 12 -4 0 -5 3 -17 7 -27 4 -10 2 -15 -3 -11 -6 3 -16 2 -24 -4 -13 -7
-12 -9 3 -9 12 0 17 -8 16 -27 l-1 -28 -8 25 c-8 24 -8 24 -9 -7 -1 -17 5 -34
12 -36 6 -3 2 -6 -10 -6 -21 -1 -23 4 -23 47 0 26 6 54 13 61 10 11 9 12 -2 6
-10 -6 -12 -1 -6 25 10 46 12 90 4 90 -3 0 -7 36 -8 80 l-2 79 63 4 63 3 -66
2 c-45 1 -66 6 -66 15 0 6 -3 28 -5 47 -3 19 -3 27 -1 18 4 -16 18 -18 119
-18 l114 0 0 39 0 38 77 7 c42 3 93 6 115 6 37 0 38 -1 38 -34 0 -19 4 -37 9
-40 16 -10 29 18 24 52 l-5 32 -97 2 -96 2 90 6 c50 3 81 8 70 9 -18 3 -17 4
5 11 14 4 44 8 68 9 39 1 42 3 43 29 2 27 2 27 6 2 3 -14 10 -28 17 -32z m996
42 c0 -5 -2 -10 -4 -10 -3 0 -8 5 -11 10 -3 6 -1 10 4 10 6 0 11 -4 11 -10z
m-2430 -60 c5 0 7 6 4 13 -3 8 2 20 11 27 9 7 15 8 15 2 0 -20 -13 -43 -29
-52 -14 -7 -17 -3 -18 28 0 27 1 29 4 10 2 -16 8 -28 13 -28z m1957 44 c-3 -3
-12 -4 -19 -1 -8 3 -5 6 6 6 11 1 17 -2 13 -5z m-4118 -26 c7 -11 7 -18 1 -18
-5 0 -10 5 -10 10 0 6 -7 10 -15 10 -8 0 -15 4 -15 8 0 16 27 9 39 -10z m723
-3 c3 -14 1 -25 -3 -25 -5 0 -9 11 -9 25 0 14 2 25 4 25 2 0 6 -11 8 -25z
m2445 -7 c-3 -7 -5 -2 -5 12 0 14 2 19 5 13 2 -7 2 -19 0 -25z m75 7 c3 -14 1
-25 -3 -25 -5 0 -9 11 -9 25 0 14 2 25 4 25 2 0 6 -11 8 -25z m188 -9 c0 -3
-7 -6 -15 -6 -9 0 -15 9 -15 21 0 18 2 19 15 5 8 -8 15 -17 15 -20z m-2231 19
c-3 -2 -41 -6 -86 -7 -78 -3 -80 -4 -79 -28 1 -19 8 -26 31 -31 22 -5 24 -7 8
-8 -37 -2 -53 10 -53 40 0 28 -1 28 -67 32 -38 2 4 4 91 5 88 1 157 0 155 -3z
m1242 -22 c-12 -20 -14 -14 -5 12 4 9 9 14 11 11 3 -2 0 -13 -6 -23z m1669 17
c0 -5 -2 -10 -4 -10 -3 0 -8 5 -11 10 -3 6 -1 10 4 10 6 0 11 -4 11 -10z m904
3 c-5 -5 -12 -12 -16 -18 -4 -6 -8 -2 -8 8 0 9 7 17 17 17 9 0 12 -3 7 -7z
m-3344 -29 c0 -8 -4 -14 -10 -14 -5 0 -10 9 -10 21 0 11 5 17 10 14 6 -3 10
-13 10 -21z m1264 3 c-10 -12 -19 -23 -20 -25 -1 -2 -1 8 -1 21 0 16 6 23 19
24 20 2 20 1 2 -20z m-2665 -14 c-17 -22 -42 -42 -51 -43 -10 0 45 57 56 59 5
0 2 -7 -5 -16z m864 -3 c3 -11 1 -18 -4 -14 -5 3 -9 12 -9 20 0 20 7 17 13 -6z
m567 -5 c14 -19 14 -19 -2 -6 -10 7 -18 18 -18 24 0 6 1 8 3 6 1 -2 9 -13 17
-24z m140 15 c0 -5 -4 -10 -10 -10 -5 0 -10 5 -10 10 0 6 5 10 10 10 6 0 10
-4 10 -10z m49 -3 c-2 -1 -13 -9 -24 -17 -19 -14 -19 -14 -6 3 7 9 18 17 24
17 6 0 8 -1 6 -3z m-1859 -11 c0 -2 -8 -10 -17 -17 -16 -13 -17 -12 -4 4 13
16 21 21 21 13z m60 -11 c0 -8 -4 -15 -10 -15 -5 0 -7 7 -4 15 4 8 8 15 10 15
2 0 4 -7 4 -15z m1117 -32 c-3 -10 -5 -4 -5 12 0 17 2 24 5 18 2 -7 2 -21 0
-30z m563 23 c0 -8 -6 -16 -14 -19 -12 -5 -14 6 -7 31 3 9 21 -1 21 -12z m50
5 c0 -5 9 -13 20 -16 11 -3 20 -11 20 -17 0 -7 -5 -6 -14 1 -11 9 -20 9 -35 2
-28 -15 -31 -14 -31 14 0 18 5 25 20 25 11 0 20 -4 20 -9z m90 -11 c0 -5 -2
-10 -4 -10 -3 0 -8 5 -11 10 -3 6 -1 10 4 10 6 0 11 -4 11 -10z m588 -67 l-1
-38 -4 38 c-3 27 -9 37 -22 37 -25 0 -33 11 -19 27 19 23 48 -18 46 -64z m609
30 c-3 -10 -5 -4 -5 12 0 17 2 24 5 18 2 -7 2 -21 0 -30z m1872 12 c21 13 5
-36 -17 -51 -21 -15 -28 -10 -23 19 0 4 -3 7 -9 7 -5 0 -10 7 -10 16 0 8 5 12
10 9 6 -3 10 2 10 12 1 17 1 17 15 -1 7 -10 18 -15 24 -11z m-3853 -10 c3 -14
4 -39 1 -55 -7 -32 6 -46 36 -42 9 2 17 -1 17 -7 0 -5 -21 -9 -47 -9 -38 1
-43 2 -23 8 24 8 24 8 3 9 -21 1 -23 6 -23 57 0 40 -3 54 -12 51 -9 -2 -12
-21 -11 -53 2 -46 -7 -64 -32 -64 -5 0 -11 29 -13 65 l-3 65 50 0 c46 0 51 -2
57 -25z m1174 13 c0 -7 4 -7 13 -1 22 17 105 16 123 -2 17 -16 13 -45 -6 -45
-6 0 -8 -4 -5 -10 3 -5 2 -10 -4 -10 -5 0 -11 15 -13 32 -2 22 -9 34 -20 36
-15 3 -18 -4 -18 -40 0 -31 -3 -39 -10 -28 -5 8 -10 11 -10 5 0 -5 -5 -3 -10
5 -8 13 -10 13 -10 1 0 -12 -3 -12 -12 -3 -18 18 -46 15 -51 -5 -3 -10 -5 1
-6 24 -1 31 -6 43 -18 46 -10 2 -1 4 20 4 20 1 37 -4 37 -9z m-80 -23 c0 -16
-6 -25 -15 -25 -11 0 -15 -11 -15 -40 l0 -40 123 -1 c67 0 129 -2 137 -3 56
-11 230 -15 230 -6 0 5 9 10 21 10 12 0 23 8 26 20 3 11 9 20 14 20 5 0 9 18
9 40 0 27 4 40 14 40 13 0 13 -7 7 -97 0 -12 -9 -24 -18 -26 -10 -2 -6 -3 10
-1 27 4 39 -17 17 -31 -5 -3 -10 -24 -10 -46 0 -21 -4 -39 -10 -39 -5 0 -10
20 -10 45 0 33 -4 45 -15 45 -11 0 -15 -12 -15 -45 0 -25 -4 -45 -10 -45 -5 0
-10 25 -10 56 0 35 -4 53 -10 49 -6 -4 -10 -24 -8 -46 1 -21 -1 -42 -5 -45 -4
-4 -7 11 -7 34 0 36 -3 42 -21 42 -19 0 -21 -5 -17 -40 2 -28 0 -40 -9 -40 -7
0 -13 -11 -13 -25 0 -22 5 -25 61 -31 33 -4 56 -10 51 -13 -6 -3 -12 -22 -15
-41 l-4 -35 -1 38 c-1 20 -6 37 -12 37 -11 0 -12 -7 -12 -55 0 -23 -1 -25 -5
-7 -2 12 -8 22 -13 22 -4 0 -6 8 -3 19 3 10 0 22 -6 25 -7 5 -11 -3 -12 -18
-1 -14 -3 -30 -4 -36 -1 -5 -3 -15 -4 -21 -1 -7 -8 -8 -18 -3 -24 10 -83 14
-83 5 0 -3 -18 -7 -39 -7 l-39 -1 -6 56 c-7 79 -8 81 -22 81 -15 0 -30 63 -19
79 3 6 -1 11 -9 11 -12 0 -16 -11 -16 -50 0 -27 5 -50 10 -50 6 0 10 -4 10
-10 0 -5 -15 -10 -34 -10 -26 0 -35 5 -39 22 -5 18 -9 19 -21 9 -8 -7 -20 -10
-27 -6 -6 4 -14 2 -18 -4 -4 -6 -5 16 -3 49 4 51 2 60 -12 60 -14 0 -16 -8
-10 -60 6 -60 6 -60 -20 -60 -14 0 -26 -4 -26 -10 0 -5 -4 -10 -10 -10 -5 0
-10 7 -10 16 0 8 -3 13 -7 11 -5 -3 -9 6 -9 19 -1 13 2 21 7 18 5 -3 9 4 9 15
0 12 5 21 11 21 7 0 8 16 3 48 -10 67 -7 102 12 123 22 24 24 24 24 -6z m458
-17 l-1 -43 -4 38 c-3 29 -9 37 -24 37 -15 0 -19 -8 -20 -37 -2 -32 -3 -33 -6
-10 -6 41 3 57 32 57 23 0 25 -3 23 -42z m-142 20 c5 -7 3 -8 -6 -3 -9 5 -11
4 -6 -4 6 -8 12 -9 20 -2 9 8 13 7 13 -4 0 -8 -9 -15 -19 -15 -10 0 -18 2 -18
4 0 2 -3 11 -6 20 -7 18 11 22 22 4z m171 -25 c-3 -10 -5 -4 -5 12 0 17 2 24
5 18 2 -7 2 -21 0 -30z m2050 21 c-3 -3 -12 -4 -19 -1 -8 3 -5 6 6 6 11 1 17
-2 13 -5z m-647 -11 c0 -5 -8 -17 -17 -28 -14 -18 -15 -18 -9 -2 3 10 6 23 6
28 0 5 5 9 10 9 6 0 10 -3 10 -7z m-2349 -17 c5 3 9 -11 9 -31 0 -22 -4 -34
-10 -30 -5 3 -10 -3 -10 -14 0 -12 5 -21 10 -21 6 0 10 -8 10 -18 0 -10 -7
-19 -15 -19 -12 0 -15 15 -14 76 0 42 3 70 6 63 2 -6 9 -10 14 -6z m2879 -1
c0 -9 -9 -15 -24 -15 -13 0 -28 -6 -34 -12 -10 -13 -12 -18 -12 -40 -1 -18
-16 10 -23 43 -6 25 -5 25 38 24 24 -1 42 2 39 6 -3 5 0 9 5 9 6 0 11 -7 11
-15z m140 -9 c0 -8 -4 -18 -10 -21 -6 -4 -7 1 -3 11 4 12 3 15 -5 10 -7 -4
-12 -2 -12 3 0 6 7 11 15 11 8 0 15 -6 15 -14z m64 -1 c20 -9 42 -13 48 -9 7
5 8 2 3 -5 -4 -8 -20 -11 -36 -9 -23 4 -26 2 -17 -9 6 -8 17 -12 25 -9 7 3 13
1 13 -5 0 -6 7 -9 15 -6 8 4 16 3 19 -1 8 -13 -29 -11 -70 3 -36 12 -59 35
-35 35 6 0 11 5 11 11 0 6 -7 8 -16 5 -8 -3 -12 -2 -9 4 8 13 6 13 49 -5z
m130 -10 c-4 -8 -11 -15 -16 -15 -6 0 -5 6 2 15 7 8 14 15 16 15 2 0 1 -7 -2
-15z m73 -1 c-3 -3 -12 -4 -19 -1 -8 3 -5 6 6 6 11 1 17 -2 13 -5z m-2068 -30
c7 -6 -68 -3 -129 6 -44 7 -37 8 35 4 49 -3 91 -7 94 -10z m-2789 -14 c0 -5
-2 -10 -4 -10 -3 0 -8 5 -11 10 -3 6 -1 10 4 10 6 0 11 -4 11 -10z m4350 -4
c0 -8 -4 -18 -10 -21 -5 -3 -10 -18 -10 -33 0 -19 -3 -23 -11 -15 -8 8 -6 19
5 41 8 16 12 32 9 36 -4 3 -1 6 5 6 7 0 12 -6 12 -14z m-3153 -19 c0 -8 -6
-14 -13 -14 -7 0 -10 6 -7 14 3 7 8 13 12 13 4 0 8 -6 8 -13z m596 6 c-7 -2
-19 -2 -25 0 -7 3 -2 5 12 5 14 0 19 -2 13 -5z m871 -34 c-11 -12 -13 -19 -5
-19 7 0 10 -3 8 -7 -3 -5 0 -12 7 -18 16 -13 39 -18 32 -6 -4 5 0 12 6 14 7 3
3 6 -10 6 -13 1 -21 5 -17 11 3 5 13 6 21 3 13 -5 15 -1 9 15 -5 19 -3 22 19
20 21 -2 24 -6 20 -25 -6 -22 10 -53 27 -53 4 0 10 19 12 43 3 39 4 39 5 -11
l2 -54 -60 4 c-34 2 -61 -1 -63 -7 -2 -5 -3 -29 -2 -52 0 -24 -2 -43 -5 -43
-3 0 -6 -12 -7 -27 -2 -26 -1 -27 7 -5 10 24 23 31 14 7 -4 -9 3 -16 21 -21
30 -7 46 3 25 16 -13 9 -13 10 0 10 12 1 11 3 -2 11 -24 13 -25 84 -2 93 12 5
15 2 10 -11 -6 -16 -6 -16 12 0 17 15 18 15 17 -6 -1 -12 -4 -29 -7 -37 -13
-31 -16 -60 -7 -60 5 0 9 6 9 13 0 7 7 4 15 -7 14 -19 15 -19 15 -1 0 41 8 6
15 -62 5 -50 3 -73 -4 -73 -6 0 -11 10 -11 23 0 19 -5 23 -34 22 -26 0 -32 -3
-24 -12 7 -9 7 -13 0 -13 -11 0 -22 23 -22 48 0 12 3 13 12 4 20 -20 30 -14
11 6 -10 10 -25 18 -33 17 -8 -1 -32 6 -52 17 -41 20 -44 17 -40 -35 1 -11 -3
-17 -10 -15 -16 6 -23 58 -9 58 12 0 15 56 3 62 -4 2 -5 31 -4 66 3 57 6 62
23 57 18 -6 24 6 20 40 -1 13 43 33 48 22 1 -4 -5 -17 -15 -28z m1945 25 c6 4
11 5 11 2 0 -3 -9 -10 -20 -16 -17 -9 -20 -8 -20 12 0 17 3 19 9 9 5 -7 14
-10 20 -7z m275 -24 c-3 -2 -9 2 -14 10 -6 8 -10 10 -10 4 0 -7 -7 -14 -15
-18 -19 -7 -15 15 5 30 11 9 17 8 26 -5 7 -9 10 -18 8 -21z m-3949 -65 c-5
-56 -10 -75 -21 -75 -9 0 -12 -4 -9 -10 3 -5 -1 -10 -9 -10 -25 0 -36 32 -20
60 7 14 14 36 15 50 1 17 3 20 6 8 7 -27 35 -22 33 5 -3 36 0 61 6 54 4 -3 3
-40 -1 -82z m3080 75 c-3 -5 -10 -10 -16 -10 -5 0 -9 5 -9 10 0 6 7 10 16 10
8 0 12 -4 9 -10z m288 -32 c6 -4 8 -10 4 -15 -11 -10 -27 17 -26 42 l1 20 5
-20 c3 -11 10 -23 16 -27z m-3226 -15 c-3 -10 -5 -2 -5 17 0 19 2 27 5 18 2
-10 2 -26 0 -35z m3611 17 c7 -11 9 -20 6 -20 -6 0 -44 40 -44 46 0 10 27 -9
38 -26z m-3380 5 c19 2 20 1 5 -2 -13 -2 -23 -11 -23 -19 0 -9 -7 -22 -16 -31
-14 -14 -16 -14 -21 6 -4 14 -14 21 -32 22 -23 2 -24 2 -3 6 12 2 20 9 17 14
-4 5 -1 9 4 9 6 0 11 -4 11 -10 0 -5 5 -10 10 -10 6 0 9 3 9 8 -3 15 3 27 7
16 2 -6 17 -10 32 -9z m-114 -2 c-20 -3 -35 -12 -42 -26 -9 -21 -10 -21 -17
-3 -10 24 10 36 55 34 35 -1 35 -1 4 -5z m-87 -25 c-3 -8 -6 -5 -6 6 -1 11 2
17 5 13 3 -3 4 -12 1 -19z m3857 -18 c5 0 5 7 2 16 -3 8 -2 12 4 9 6 -4 8 -17
6 -31 -3 -17 0 -24 10 -24 8 0 13 4 10 8 -2 4 -1 14 5 22 7 13 9 12 9 -2 0 -9
8 -21 17 -26 12 -8 2 -11 -39 -13 -31 -2 -55 -2 -52 0 9 10 -33 29 -58 26 -25
-3 -26 -1 -16 21 8 17 17 23 30 18 11 -3 18 0 18 7 0 7 10 3 23 -9 13 -12 27
-22 31 -22z m-3394 -43 c4 -43 8 -52 25 -53 11 -1 36 -3 55 -4 30 -2 26 -4
-23 -13 -57 -9 -58 -10 -55 -41 1 -20 -2 -30 -10 -28 -8 1 -12 -12 -13 -35 0
-21 -3 -31 -6 -23 -8 20 -33 44 -39 37 -3 -3 -1 -14 5 -25 15 -27 14 -32 -5
-32 -8 0 -12 5 -9 10 3 6 2 10 -3 10 -6 0 -8 8 -5 19 3 10 0 22 -6 25 -18 11
-13 26 12 36 18 7 19 9 4 9 -20 1 -56 31 -37 31 6 0 8 5 5 10 -4 7 -13 7 -25
0 -17 -9 -21 -6 -26 15 -8 32 1 42 21 25 10 -8 15 -9 15 -1 0 6 -4 11 -9 11
-5 0 -11 9 -14 20 -3 11 -1 18 4 14 5 -3 9 0 9 6 0 6 5 8 10 5 6 -3 10 -1 10
6 0 8 3 9 13 0 8 -6 17 -8 20 -5 4 4 18 -1 32 -10 25 -16 25 -16 25 15 0 49
14 25 20 -34z m3020 53 c0 -5 -2 -10 -4 -10 -3 0 -8 5 -11 10 -3 6 -1 10 4 10
6 0 11 -4 11 -10z m-4110 -15 c0 -11 -29 -11 -33 -1 -4 10 1 12 14 9 10 -3 19
-7 19 -8z m1457 -37 c-2 -13 -4 -5 -4 17 -1 22 1 32 4 23 2 -10 2 -28 0 -40z
m-847 32 c-20 -13 -33 -13 -25 0 3 6 14 10 23 10 15 0 15 -2 2 -10z m520 -2
c0 -9 4 -8 10 2 7 11 9 2 9 -30 -1 -41 -2 -42 -9 -15 l-8 30 -1 -28 c-2 -40
-21 -23 -21 19 0 19 5 34 10 34 6 0 10 -6 10 -12z m207 -20 c-3 -7 -5 -2 -5
12 0 14 2 19 5 13 2 -7 2 -19 0 -25z m-787 -38 c0 -53 -3 -58 -26 -36 -17 18
-18 52 -1 71 21 24 27 17 27 -35z m3377 28 c-3 -8 -6 -5 -6 6 -1 11 2 17 5 13
3 -3 4 -12 1 -19z m73 7 c11 -13 8 -15 -14 -15 -23 0 -25 2 -14 15 16 18 13
18 28 0z m-1690 -72 c-11 -17 -11 -17 -6 0 3 10 7 31 7 45 l2 27 4 -27 c2 -15
-1 -35 -7 -45z m159 -5 c1 -10 -3 -18 -9 -18 -5 0 -10 19 -9 43 1 36 2 38 9
17 4 -14 8 -33 9 -42z m2758 47 c0 -8 -4 -12 -9 -9 -5 3 -6 10 -3 15 9 13 12
11 12 -6z m-5103 -11 c3 -8 2 -12 -4 -9 -6 3 -10 10 -10 16 0 14 7 11 14 -7z
m1581 5 c-11 -4 -45 -9 -75 -10 -53 -2 -54 -2 -15 -8 37 -6 40 -8 41 -38 1
-27 -2 -31 -12 -22 -8 6 -11 16 -8 21 5 7 -16 9 -60 6 -68 -4 -71 -2 -60 39 6
21 11 22 108 21 61 0 93 -4 81 -9z m2724 -37 c-5 -2 -7 -8 -3 -13 3 -5 1 -9
-4 -9 -5 0 -9 11 -9 24 0 19 2 22 12 13 7 -7 9 -14 4 -15z m-5152 12 c-3 -3
-12 -4 -19 -1 -8 3 -5 6 6 6 11 1 17 -2 13 -5z m2493 -25 c0 -24 -4 -30 -17
-27 -10 2 -17 10 -15 16 1 8 -11 12 -33 12 -50 0 -44 18 8 23 23 2 45 4 50 5
4 1 7 -12 7 -29z m-2427 -1 c5 -17 9 -19 20 -9 12 9 16 8 21 -4 3 -9 11 -13
16 -10 17 10 6 -45 -11 -56 -10 -8 -8 -9 9 -4 12 3 22 2 22 -3 0 -12 -49 -34
-61 -27 -5 3 -6 -1 -3 -9 3 -9 17 -16 31 -16 13 0 31 -7 39 -15 12 -12 20 -13
36 -4 18 10 20 9 15 -5 -4 -9 -2 -16 2 -16 5 0 11 5 13 12 7 19 28 -2 28 -28
0 -28 -7 -30 -31 -9 -16 15 -69 12 -69 -4 0 -4 -11 -8 -25 -9 -14 -1 -24 2
-24 6 3 19 -2 25 -11 12 -8 -12 -10 -12 -10 5 0 13 -3 16 -8 8 -5 -8 -14 -3
-27 17 -24 36 -28 37 -44 8 -6 -13 -9 -15 -7 -5 3 9 0 17 -7 17 -8 0 -7 4 3
10 16 10 23 70 8 70 -5 0 -6 5 -3 10 3 6 15 10 26 10 18 0 22 19 6 31 -13 10
4 39 23 39 10 0 20 -10 23 -22z m1377 18 c0 -2 -9 -6 -20 -9 -11 -3 -20 -1
-20 4 0 5 9 9 20 9 11 0 20 -2 20 -4z m3830 -8 c0 -4 -9 -8 -21 -8 -11 0 -18
4 -15 8 3 5 12 9 21 9 8 0 15 -4 15 -9z m-560 -18 c0 -5 -4 -10 -10 -10 -5 0
-10 5 -10 10 0 6 5 10 10 10 6 0 10 -4 10 -10z m-2847 -7 c-7 -2 -19 -2 -25 0
-7 3 -2 5 12 5 14 0 19 -2 13 -5z m547 -8 c0 -8 -2 -15 -4 -15 -2 0 -6 7 -10
15 -3 8 -1 15 4 15 6 0 10 -7 10 -15z m1790 -42 c-10 -16 -11 -15 -6 7 3 14 6
32 7 40 1 8 4 5 6 -7 2 -12 -1 -30 -7 -40z m-3184 -13 c42 0 44 -1 44 -30 0
-30 0 -30 -56 -30 l-56 0 7 -27 c3 -16 13 -32 21 -36 19 -11 18 -47 -1 -47 -8
0 -15 7 -15 15 0 8 -8 15 -17 16 -11 0 -13 3 -5 6 18 7 15 20 -8 26 -23 6 -25
-4 -8 -50 9 -23 9 -36 1 -44 -7 -7 -9 -4 -6 14 3 13 -2 30 -9 38 -8 8 -13 20
-10 27 2 7 0 18 -5 25 -14 18 -16 96 -3 112 6 8 9 18 6 23 -3 5 8 8 24 7 17
-1 30 3 31 9 1 6 6 -4 11 -21 10 -31 14 -33 54 -33z m669 28 c2 -22 -3 -28
-19 -28 -15 0 -17 3 -8 12 17 17 15 36 -5 42 -11 3 -8 4 7 3 19 -2 24 -8 25
-29z m565 3 c0 -20 -5 -27 -20 -27 -13 0 -20 7 -21 21 0 20 0 20 -9 0 -8 -18
-9 -18 -9 5 -1 21 4 25 29 26 26 1 30 -2 30 -25z m79 2 l-1 -28 -8 25 c-8 25
-8 25 -9 -4 -1 -32 -15 -26 -25 9 -3 12 -4 9 -2 -7 2 -16 -1 -28 -5 -28 -5 0
-9 14 -9 30 0 27 3 30 30 30 26 0 30 -3 29 -27z m892 17 c10 -6 19 -16 19 -23
0 -8 -3 -7 -9 2 -5 8 -16 11 -24 8 -9 -3 -21 1 -27 9 -10 11 -9 14 4 14 10 0
26 -5 37 -10z m-1861 -10 c0 -5 -5 -10 -11 -10 -5 0 -7 5 -4 10 3 6 8 10 11
10 2 0 4 -4 4 -10z m597 -37 c-3 -10 -5 -2 -5 17 0 19 2 27 5 18 2 -10 2 -26
0 -35z m53 34 c0 7 17 11 45 11 46 0 50 -4 39 -45 -5 -18 -10 -21 -24 -13 -13
7 -21 7 -25 0 -4 -6 -12 -7 -18 -4 -9 5 -9 4 0 -6 6 -7 9 -20 6 -29 -5 -13 -3
-14 8 -3 18 16 30 15 23 -2 -6 -17 -104 -17 -116 -1 -17 22 -7 35 27 35 19 0
35 5 35 11 0 5 -4 7 -10 4 -6 -4 -10 7 -10 27 0 25 3 29 10 18 6 -9 10 -10 10
-3z m152 -19 c-4 -28 -6 -30 -13 -13 -8 20 -8 20 -9 0 -2 -17 -3 -18 -7 -2 -2
9 -9 15 -14 12 -5 -4 -9 1 -9 9 0 9 7 13 20 11 11 -2 22 0 25 6 10 16 12 10 7
-23z m-722 12 c0 -5 -7 -10 -15 -10 -8 0 -15 5 -15 10 0 6 7 10 15 10 8 0 15
-4 15 -10z m537 -27 c-3 -10 -5 -4 -5 12 0 17 2 24 5 18 2 -7 2 -21 0 -30z
m3163 12 c14 -19 14 -19 -2 -6 -10 7 -18 18 -18 24 0 6 1 8 3 6 1 -2 9 -13 17
-24z m40 9 c0 -2 -7 -4 -15 -4 -8 0 -15 4 -15 10 0 5 7 7 15 4 8 -4 15 -8 15
-10z m94 -24 c-6 -5 -24 21 -24 34 0 6 6 1 14 -10 8 -10 12 -21 10 -24z m66 8
c0 -19 -16 -5 -17 14 -2 18 0 20 7 8 5 -8 10 -18 10 -22z m-2937 10 c-2 -5
-19 -8 -36 -8 -18 0 -27 4 -20 8 15 9 62 9 56 0z m1524 -10 c-3 -8 -6 -5 -6 6
-1 11 2 17 5 13 3 -3 4 -12 1 -19z m-2587 -10 c19 -3 4 -5 -33 -5 -38 -1 -72
-4 -75 -8 -4 -4 74 -5 173 -3 99 3 162 1 140 -3 -22 -4 -69 -13 -105 -20 -75
-14 -76 -14 -189 -4 -61 6 -78 11 -63 16 12 5 22 10 22 11 0 2 -31 2 -70 0
-46 -2 -70 0 -70 7 0 7 36 11 105 11 71 0 105 4 105 11 0 8 4 8 13 1 6 -6 28
-12 47 -14z m520 7 c0 -8 -2 -15 -4 -15 -2 0 -6 7 -10 15 -3 8 -1 15 4 15 6 0
10 -7 10 -15z m890 -20 c0 -19 -4 -35 -8 -35 -4 0 -6 16 -4 35 2 19 6 35 8 35
2 0 4 -16 4 -35z m-1317 18 c-7 -2 -19 -2 -25 0 -7 3 -2 5 12 5 14 0 19 -2 13
-5z m390 -11 c-6 -4 -13 -18 -16 -32 -4 -22 -4 -21 -6 7 0 17 5 33 12 36 16 6
24 -2 10 -11z m2072 -3 c-6 -29 -15 -37 -15 -12 0 17 8 33 16 33 2 0 1 -10 -1
-21z m-1505 1 c8 -5 19 -5 25 0 6 4 15 3 21 -4 9 -10 5 -13 -20 -14 -17 0 -42
2 -55 4 -20 4 -22 7 -10 15 18 11 20 11 39 -1z m770 6 c0 -3 -4 -8 -10 -11 -5
-3 -10 -1 -10 4 0 6 5 11 10 11 6 0 10 -2 10 -4z m37 -32 c1 -25 0 -26 -4 -4
-3 14 -10 29 -17 33 -7 6 -6 7 4 4 8 -2 16 -16 17 -33z m-1505 8 c4 -12 -1
-18 -13 -18 -10 0 -16 2 -14 5 3 2 0 10 -6 18 -9 10 -7 13 9 13 11 0 22 -8 24
-18z m437 -13 c-18 -18 -49 -17 -49 3 0 5 5 6 10 3 6 -3 10 0 10 8 0 10 8 13
24 10 24 -5 24 -5 5 -24z m-1269 11 c0 -5 -2 -10 -4 -10 -3 0 -8 5 -11 10 -3
6 -1 10 4 10 6 0 11 -4 11 -10z m5430 0 c12 -8 11 -10 -7 -10 -13 0 -23 5 -23
10 0 13 11 13 30 0z m-4792 -35 c-1 -14 -5 -25 -9 -25 -4 0 -6 11 -6 25 0 14
3 25 8 25 5 0 8 -11 7 -25z m1182 15 c0 -5 -4 -10 -10 -10 -5 0 -10 5 -10 10
0 6 5 10 10 10 6 0 10 -4 10 -10z m2575 -2 c5 4 5 1 1 -6 -6 -10 -11 -10 -22
-1 -8 6 -14 14 -14 16 0 3 6 0 13 -6 8 -6 18 -7 22 -3z m1188 -5 c20 -3 37 -9
37 -12 0 -4 31 -6 70 -5 39 1 67 -2 64 -7 -3 -6 13 -7 38 -4 34 4 38 3 21 -4
-26 -12 -31 -24 -6 -14 11 4 14 3 9 -5 -4 -7 -1 -12 9 -12 12 0 15 -5 11 -16
-3 -9 -6 -27 -6 -40 0 -27 -14 -31 -36 -10 -16 17 -18 35 -4 37 6 1 14 2 19 3
5 0 13 5 18 10 5 5 -4 6 -20 2 -22 -5 -27 -4 -21 6 6 10 5 10 -8 0 -14 -12
-16 -10 -11 10 4 18 3 20 -6 8 -6 -8 -11 -10 -11 -4 0 20 -30 25 -74 13 -68
-20 -114 -18 -119 3 -3 10 -13 18 -24 18 -10 0 -24 10 -32 21 -12 21 -11 21
16 15 15 -3 45 -9 66 -13z m-6218 -3 c-3 -5 -12 -7 -20 -3 -21 7 -19 13 6 13
11 0 18 -4 14 -10z m985 -17 c0 -9 -8 -22 -17 -30 -10 -8 -12 -12 -5 -8 7 3
12 0 12 -8 0 -9 -15 -14 -45 -16 -44 -2 -45 -1 -45 28 0 16 -6 32 -12 34 -27
11 11 22 61 19 38 -3 51 -8 51 -19z m675 7 c-6 -10 -85 -18 -85 -8 0 4 12 10
28 14 15 3 32 7 37 9 14 3 26 -5 20 -15z m55 10 c0 -5 -2 -10 -4 -10 -2 0 -11
-2 -19 -5 -8 -4 -14 0 -14 10 0 8 9 15 19 15 10 0 18 -4 18 -10z m-620 -30 c0
-30 -14 -41 -23 -17 -2 6 -8 9 -12 5 -4 -4 -3 -14 4 -22 10 -12 6 -14 -26 -13
-36 2 -38 4 -41 40 l-3 37 50 0 c50 0 51 -1 51 -30z m160 26 c0 -3 -4 -8 -10
-11 -5 -3 -10 -1 -10 4 0 6 5 11 10 11 6 0 10 -2 10 -4z m70 -6 c0 -5 -4 -10
-10 -10 -5 0 -10 5 -10 10 0 6 5 10 10 10 6 0 10 -4 10 -10z m1317 -27 c-3
-10 -5 -4 -5 12 0 17 2 24 5 18 2 -7 2 -21 0 -30z m-1506 -40 c-21 -26 -21
-26 -18 -3 2 13 9 26 15 28 7 2 13 13 13 25 2 22 2 22 6 -1 3 -13 -4 -33 -16
-49z m922 60 c-7 -2 -19 -2 -25 0 -7 3 -2 5 12 5 14 0 19 -2 13 -5z m514 -25
c-3 -7 -5 -2 -5 12 0 14 2 19 5 13 2 -7 2 -19 0 -25z m-1359 0 c2 -11 -3 -18
-13 -18 -9 0 -13 5 -10 10 3 6 -1 10 -9 10 -9 0 -16 4 -16 9 0 16 45 6 48 -11z
m653 -14 c-8 -24 -9 -25 -10 -6 -1 14 -8 22 -18 23 -12 1 -9 4 7 8 32 10 31
10 21 -25z m216 -11 c-3 -10 -5 -2 -5 17 0 19 2 27 5 18 2 -10 2 -26 0 -35z
m70 10 c-3 -10 -5 -4 -5 12 0 17 2 24 5 18 2 -7 2 -21 0 -30z m70 5 c-3 -7 -5
-2 -5 12 0 14 2 19 5 13 2 -7 2 -19 0 -25z m70 0 c-3 -7 -5 -2 -5 12 0 14 2
19 5 13 2 -7 2 -19 0 -25z m70 0 c-3 -7 -5 -2 -5 12 0 14 2 19 5 13 2 -7 2
-19 0 -25z m-345 -3 c3 -14 1 -25 -3 -25 -5 0 -9 11 -9 25 0 14 2 25 4 25 2 0
6 -11 8 -25z m-375 -22 c-3 -10 -5 -4 -5 12 0 17 2 24 5 18 2 -7 2 -21 0 -30z
m124 24 c-6 -8 -9 -17 -6 -20 3 -4 2 -5 -2 -2 -3 3 -13 -1 -22 -7 -9 -7 -5 0
8 15 25 27 43 39 22 14z m3157 -36 c-15 -6 -20 7 -12 31 l8 23 6 -25 c3 -14 2
-27 -2 -29z m1251 -5 c-11 -11 -19 -26 -19 -33 0 -9 -11 -6 -35 9 -34 23 -51
66 -20 54 8 -3 20 1 27 8 10 10 17 10 39 -3 26 -14 26 -15 8 -35z m-5341 22
c11 -14 11 -16 -2 -14 -21 3 -29 13 -21 26 4 6 8 10 9 8 1 -2 7 -11 14 -20z
m959 -10 c-3 -8 -6 -5 -6 6 -1 11 2 17 5 13 3 -3 4 -12 1 -19z m143 12 c0 -5
-5 -10 -11 -10 -5 0 -7 5 -4 10 3 6 8 10 11 10 2 0 4 -4 4 -10z m-530 -6 c0
-8 -19 -13 -24 -6 -3 5 1 9 9 9 8 0 15 -2 15 -3z m164 -9 c3 -9 0 -15 -9 -15
-8 0 -15 7 -15 15 0 8 4 15 9 15 5 0 11 -7 15 -15z m1033 -7 c-3 -8 -6 -5 -6
6 -1 11 2 17 5 13 3 -3 4 -12 1 -19z m-1257 4 c0 -5 -12 -14 -27 -21 l-28 -13
20 21 c21 21 35 26 35 13z m857 -14 c-3 -8 -6 -5 -6 6 -1 11 2 17 5 13 3 -3 4
-12 1 -19z m-1480 -10 c-3 -8 -6 -5 -6 6 -1 11 2 17 5 13 3 -3 4 -12 1 -19z
m738 12 c3 -5 1 -10 -4 -10 -6 0 -11 5 -11 10 0 6 2 10 4 10 3 0 8 -4 11 -10z
m722 -12 c-3 -8 -6 -5 -6 6 -1 11 2 17 5 13 3 -3 4 -12 1 -19z m90 0 c-3 -8
-6 -5 -6 6 -1 11 2 17 5 13 3 -3 4 -12 1 -19z m-1382 2 c-3 -4 -16 -7 -30 -7
-13 0 -23 3 -20 7 3 4 16 8 30 8 13 0 23 -4 20 -8z m61 -10 c13 0 26 5 29 10
3 6 24 10 46 10 23 0 38 -4 34 -10 -3 -5 -12 -7 -20 -3 -8 3 -15 0 -15 -6 0
-7 -23 -11 -60 -11 -50 0 -60 3 -60 17 0 13 3 14 12 5 7 -7 22 -12 34 -12z
m4119 10 c-3 -5 -12 -10 -18 -10 -7 0 -6 4 3 10 19 12 23 12 15 0z m1685 1
c-32 -5 -36 -11 -31 -41 0 -5 22 -9 49 -8 36 1 39 2 15 5 -21 3 -33 10 -33 19
0 11 6 13 23 8 12 -4 56 -8 97 -10 41 -1 79 -3 83 -3 5 -1 5 -5 2 -11 -3 -5 3
-10 15 -10 14 0 19 4 14 13 -5 9 -4 9 6 0 8 -8 20 -9 37 -2 16 6 32 5 46 -3
12 -6 23 -11 25 -10 8 6 102 0 102 -6 0 -15 -143 -31 -275 -33 -192 -1 -207 0
-200 11 4 6 3 10 -2 9 -21 -4 -156 2 -151 6 2 3 36 6 75 7 75 2 85 13 37 38
-34 19 -13 30 51 29 45 -2 47 -2 15 -8z m91 -13 c-14 -5 -29 -4 -39 2 -14 9
-12 10 7 4 15 -4 21 -2 17 4 -4 6 2 8 16 4 l22 -5 -23 -9z m-5221 -8 c0 -11
-4 -20 -10 -20 -5 0 -10 9 -10 20 0 11 5 20 10 20 6 0 10 -9 10 -20z m1697 -2
c-3 -8 -6 -5 -6 6 -1 11 2 17 5 13 3 -3 4 -12 1 -19z m483 17 c0 -2 -10 -9
-22 -15 -22 -11 -22 -10 -4 4 21 17 26 19 26 11z m-2540 -18 c-25 -13 -45 -45
-52 -82 -1 -11 -10 -23 -18 -27 -12 -5 -11 -7 4 -7 13 -1 17 -6 13 -21 -3 -13
0 -20 9 -20 17 0 17 5 4 31 -9 16 -7 19 12 19 17 0 19 -3 9 -9 -17 -11 -4 -34
16 -27 8 3 20 3 26 -1 7 -4 2 -10 -13 -14 -24 -7 -24 -7 -2 -8 26 -1 31 -31 5
-31 -15 0 -16 -2 -3 -9 8 -6 18 -7 24 -4 5 3 6 1 2 -5 -4 -6 -13 -9 -21 -5 -8
3 -15 0 -15 -6 0 -12 -58 -15 -84 -5 -9 3 -13 10 -10 15 3 5 -10 9 -28 9 -34
0 -89 12 -121 25 -17 7 -18 6 -6 -14 12 -17 24 -21 74 -22 78 -1 45 -17 -37
-18 -71 -1 -92 -8 -75 -25 6 -7 21 -18 32 -25 18 -11 18 -12 1 -7 -10 4 -25 1
-32 -5 -7 -6 -17 -8 -21 -6 -5 3 -9 -2 -10 -12 -1 -13 14 -22 59 -35 33 -10
74 -19 91 -19 21 -1 33 -8 35 -19 3 -13 -9 -17 -65 -22 -37 -4 -96 -10 -130
-15 -71 -11 -104 -5 -101 16 2 11 -8 17 -31 19 -19 2 -40 12 -48 22 -8 9 -11
11 -8 4 6 -10 -1 -12 -32 -6 -21 4 -40 8 -42 10 -5 4 63 8 95 5 12 -1 36 12
53 28 l32 30 -24 27 c-14 15 -23 33 -20 41 3 8 8 11 11 9 3 -3 20 4 39 15 24
15 44 20 66 16 29 -5 30 -5 10 5 -26 13 -30 28 -8 28 8 0 15 5 15 10 0 6 7 10
15 10 13 0 19 11 17 31 -2 15 57 57 88 63 26 4 31 3 20 -5 -11 -8 -12 -12 -2
-16 18 -7 4 -23 -15 -16 -10 4 -14 2 -10 -5 4 -6 -1 -12 -10 -15 -10 -2 15 -4
56 -4 56 1 75 5 79 17 3 8 13 20 21 27 14 10 14 12 -1 18 -10 4 -18 11 -18 17
0 5 5 6 10 3 6 -3 10 -1 10 4 0 6 9 11 19 11 11 0 23 5 26 10 3 6 14 10 23 10
12 0 9 -4 -8 -13z m540 -8 c0 -11 -4 -17 -10 -14 -5 3 -10 13 -10 21 0 8 5 14
10 14 6 0 10 -9 10 -21z m2710 -31 c0 -12 -40 -29 -51 -22 -6 3 -16 -2 -23
-12 -9 -12 -15 -14 -20 -6 -4 7 -2 12 4 12 6 0 9 4 6 9 -3 5 3 11 14 14 10 3
21 0 23 -7 3 -8 8 -8 17 1 11 10 11 15 -1 29 -13 16 -12 16 9 3 12 -8 22 -17
22 -21z m563 25 c-7 -2 -19 -2 -25 0 -7 3 -2 5 12 5 14 0 19 -2 13 -5z m-4423
-18 c0 -8 -2 -15 -4 -15 -2 0 -6 7 -10 15 -3 8 -1 15 4 15 6 0 10 -7 10 -15z
m1687 -7 c-3 -8 -6 -5 -6 6 -1 11 2 17 5 13 3 -3 4 -12 1 -19z m2053 -4 c0 -8
-4 -12 -10 -9 -5 3 -10 10 -10 16 0 5 5 9 10 9 6 0 10 -7 10 -16z m-3258 -16
c-6 -6 -15 -8 -19 -4 -4 4 -1 11 7 16 19 12 27 3 12 -12z m5423 6 c39 -5 46
-8 30 -15 -19 -7 -19 -8 2 -8 12 -1 28 -8 37 -16 17 -17 86 -20 86 -4 0 7 -12
10 -29 7 -17 -2 -28 -1 -25 4 3 4 -6 8 -20 8 -14 0 -26 4 -26 10 0 12 93 1 98
-12 2 -4 16 -8 30 -8 15 0 51 -7 81 -15 30 -8 58 -13 64 -12 5 1 12 -4 14 -10
3 -8 -5 -13 -21 -13 -14 0 -26 5 -26 10 0 13 -27 13 -32 0 -2 -6 -48 -11 -105
-13 -55 -1 -99 -5 -96 -9 2 -5 -4 -9 -14 -9 -49 -3 54 -17 142 -19 102 -2 103
-5 8 -30 -27 -7 -44 -17 -48 -30 -7 -22 -25 -18 -25 6 0 9 5 12 11 8 7 -4 10
-1 7 7 -3 9 -22 14 -54 15 -98 2 -110 4 -94 14 16 10 15 11 -29 14 -16 1 -27
56 -11 56 24 0 7 27 -25 40 -42 17 -48 42 -7 35 15 -2 50 -7 77 -11z m-5790
-4 c4 -6 11 -7 17 -4 7 4 8 2 4 -5 -6 -9 -11 -9 -21 -1 -8 7 -18 9 -24 6 -5
-3 -20 -2 -33 3 -21 9 -19 10 14 10 20 1 40 -4 43 -9z m1815 -4 c-6 -8 -11
-23 -10 -33 1 -10 2 -35 1 -55 -1 -41 -20 -53 -22 -15 l-2 22 -4 -22 c-2 -13
-10 -23 -17 -23 -10 0 -12 15 -10 55 2 41 0 54 -9 48 -22 -14 -37 -11 -37 7 0
23 13 28 74 29 41 1 47 -1 36 -13z m1120 9 c0 -2 -10 -10 -22 -16 -21 -11 -22
-11 -9 4 13 16 31 23 31 12z m-1280 -15 c0 -5 -9 -10 -19 -10 -11 0 -23 5 -26
10 -4 6 5 10 19 10 14 0 26 -4 26 -10z m-1545 -10 c-3 -5 -16 -10 -28 -9 -20
1 -20 2 3 9 14 4 26 8 28 9 2 1 0 -3 -3 -9z m-60 -20 c-8 -13 -65 -13 -85 0
-11 7 0 10 38 10 33 0 51 -4 47 -10z m-632 -17 c-7 -2 -13 -12 -13 -20 0 -9
-3 -14 -6 -10 -10 10 4 37 18 36 10 0 10 -2 1 -6z m2317 -14 c0 -5 -7 -9 -15
-9 -8 0 -15 7 -15 15 0 9 6 12 15 9 8 -4 15 -10 15 -15z m414 6 c-7 -16 -24
-21 -24 -6 0 8 7 13 27 20 1 1 0 -6 -3 -14z m-2920 -10 c4 -10 -1 -15 -15 -15
-17 0 -18 2 -7 15 16 18 15 18 22 0z m297 -8 c-10 -9 -11 -8 -5 6 3 10 9 15
12 12 3 -3 0 -11 -7 -18z m1071 -10 c-12 -7 -21 -15 -20 -18 2 -2 -2 1 -8 8
-6 7 -13 10 -16 7 -4 -3 -9 -1 -13 5 -4 7 9 11 37 11 40 -1 41 -2 20 -13z
m-802 -22 c0 -25 -15 -24 -16 1 -1 13 2 21 7 18 5 -3 9 -11 9 -19z m1945 16
c3 -5 1 -12 -5 -16 -5 -3 -10 1 -10 9 0 18 6 21 15 7z m3755 -1 c0 -5 -4 -10
-10 -10 -5 0 -10 5 -10 10 0 6 5 10 10 10 6 0 10 -4 10 -10z m-6175 -9 c-3 -6
13 -11 36 -13 25 -2 44 -9 47 -17 3 -8 0 -11 -7 -7 -6 4 -11 1 -11 -6 0 -10
-2 -10 -9 1 -7 11 -20 12 -58 6 -72 -12 -142 -14 -149 -4 -3 5 12 9 33 9 21 0
56 9 78 19 49 23 48 23 40 12z m143 -32 c-3 -20 -5 -19 -9 9 -3 20 -2 29 4 23
5 -5 7 -19 5 -32z m160 -20 l77 -2 -55 -7 c-30 -5 -93 -8 -140 -7 -63 1 -70 2
-27 4 l57 4 2 37 c1 37 1 37 5 5 l4 -33 77 -1z m79 24 c-3 -10 -5 -4 -5 12 0
17 2 24 5 18 2 -7 2 -21 0 -30z m285 18 c13 -5 30 -16 37 -25 11 -13 9 -17
-14 -26 -46 -18 -95 -12 -115 13 -18 22 -18 22 3 40 22 17 41 16 89 -2z m5764
-19 c-11 -10 -45 10 -39 24 5 13 8 13 24 -2 11 -10 17 -19 15 -22z m-6689 22
c-3 -3 -12 -4 -19 -1 -8 3 -5 6 6 6 11 1 17 -2 13 -5z m533 -9 c10 -12 10 -15
-4 -15 -9 0 -16 7 -16 15 0 8 2 15 4 15 2 0 9 -7 16 -15z m37 -7 c-3 -8 -6 -5
-6 6 -1 11 2 17 5 13 3 -3 4 -12 1 -19z m1031 0 c-5 -14 -50 -40 -57 -33 -5 5
41 44 52 45 5 0 7 -6 5 -12z m4799 6 c-3 -3 -12 -4 -19 -1 -8 3 -5 6 6 6 11 1
17 -2 13 -5z m187 -6 c-3 -4 -11 -8 -19 -8 -8 0 -16 4 -19 8 -2 4 6 8 19 8 13
0 21 -4 19 -8z m-6613 -5 c-10 -4 -10 -7 -1 -13 7 -5 2 -7 -14 -7 -29 0 -35
13 -8 20 24 7 40 6 23 0z m5522 -10 c-7 -2 -19 -2 -25 0 -7 3 -2 5 12 5 14 0
19 -2 13 -5z m1480 -47 c-4 -6 1 -5 10 3 15 12 21 9 18 -11 0 -4 14 -7 33 -6
18 1 37 -2 43 -5 5 -3 58 -7 116 -8 59 -1 110 -5 113 -10 3 -5 15 -9 27 -9 20
0 20 0 2 -14 -20 -15 -41 -11 -64 11 -7 8 -16 11 -19 8 -4 -3 0 -10 8 -15 12
-8 9 -10 -10 -10 l-25 -1 23 -16 c12 -8 22 -20 22 -26 0 -6 -12 0 -26 14 -26
24 -30 25 -50 8 -7 -5 -18 -1 -32 11 -14 13 -22 16 -25 7 -3 -8 -10 -7 -24 6
-14 12 -34 17 -66 16 -36 -2 -52 3 -77 24 -17 15 -26 27 -18 28 7 0 -3 6 -22
11 -34 11 -34 11 -10 17 27 8 63 -15 53 -33z m-1810 27 c-7 -2 -21 -2 -30 0
-10 3 -4 5 12 5 17 0 24 -2 18 -5z m1317 1 c0 -8 -32 -33 -42 -34 -5 0 -8 5
-8 10 0 6 7 10 15 10 8 0 15 5 15 10 0 6 5 10 10 10 6 0 10 -3 10 -6z m130 -4
c-8 -5 -22 -9 -30 -9 -10 0 -8 3 5 9 27 12 43 12 25 0z m110 6 c0 -2 -11 -6
-25 -8 -14 -3 -25 -1 -25 3 0 5 11 9 25 9 14 0 25 -2 25 -4z m-370 -16 c-8 -5
-19 -10 -25 -10 -5 0 -3 5 5 10 8 5 20 10 25 10 6 0 3 -5 -5 -10z m446 -17
c-2 -2 -11 0 -20 3 -14 5 -15 9 -5 15 12 7 34 -10 25 -18z m37 20 c-7 -2 -19
-2 -25 0 -7 3 -2 5 12 5 14 0 19 -2 13 -5z m-6563 -9 c-60 -8 -130 -8 -130 -1
0 4 35 6 78 6 42 -1 66 -3 52 -5z m675 -14 c-20 -22 -31 -20 -22 5 4 8 14 15
23 15 16 0 16 -2 -1 -20z m595 11 c0 -5 -7 -11 -15 -15 -15 -5 -20 5 -8 17 9
10 23 9 23 -2z m-1522 -8 c-21 -2 -57 -2 -80 0 -24 2 -7 4 37 4 44 0 63 -2 43
-4z m4819 1 c-3 -3 -12 -4 -19 -1 -8 3 -5 6 6 6 11 1 17 -2 13 -5z m-3382 -15
c-7 -10 -195 -7 -195 3 0 5 44 8 99 7 55 -2 98 -6 96 -10z m3257 -1 c-17 -8
-26 -8 -34 0 -9 9 -4 12 23 11 32 0 33 -1 11 -11z m871 5 c-18 -2 -48 -2 -65
0 -18 2 -4 4 32 4 36 0 50 -2 33 -4z m784 1 c-3 -3 -12 -4 -19 -1 -8 3 -5 6 6
6 11 1 17 -2 13 -5z m183 -14 c0 -15 -7 -20 -25 -20 -27 0 -28 1 -19 24 9 24
44 20 44 -4z m-2175 0 c3 -6 -1 -7 -9 -4 -18 7 -21 14 -7 14 6 0 13 -4 16 -10z
m2228 3 c-7 -2 -19 -2 -25 0 -7 3 -2 5 12 5 14 0 19 -2 13 -5z m80 0 c-7 -2
-19 -2 -25 0 -7 3 -2 5 12 5 14 0 19 -2 13 -5z m237 -3 c0 -5 -5 -10 -11 -10
-5 0 -7 5 -4 10 3 6 8 10 11 10 2 0 4 -4 4 -10z m-5355 -16 c30 -12 35 -18 24
-26 -10 -7 -8 -8 8 -3 12 3 30 2 40 -4 10 -5 27 -12 38 -16 17 -5 17 -8 5 -14
-23 -12 -102 -23 -96 -13 3 5 -13 15 -35 22 -22 8 -43 18 -46 23 -4 6 0 8 9 5
8 -4 21 -2 29 3 12 8 11 12 -5 24 -25 19 -18 19 29 -1z m3040 7 c-9 -8 -36
-10 -30 -2 2 4 11 8 20 8 8 0 13 -3 10 -6z m2191 -7 c16 -13 16 -15 2 -10 -16
5 -23 -4 -19 -26 2 -12 -37 -10 -44 2 -3 6 3 10 13 10 25 0 37 27 14 33 -14 4
-14 5 -1 6 8 0 24 -6 35 -15z m-61 -4 c3 -6 -1 -7 -9 -4 -18 7 -21 14 -7 14 6
0 13 -4 16 -10z m-455 -26 c0 -2 -9 0 -20 6 -11 6 -20 13 -20 16 0 2 9 0 20
-6 11 -6 20 -13 20 -16z m406 17 c-14 -5 -16 -10 -8 -15 7 -4 17 -4 22 -1 6 3
10 1 10 -5 0 -15 -72 -9 -77 7 -4 11 20 19 57 21 9 0 7 -3 -4 -7z m734 0 c0
-5 12 -12 28 -14 19 -3 14 -4 -16 -6 -24 0 -41 3 -37 8 3 5 -5 12 -17 14 -17
3 -14 5 10 6 17 0 32 -3 32 -8z m-3993 -7 c-3 -3 -12 -4 -19 -1 -8 3 -5 6 6 6
11 1 17 -2 13 -5z m2040 -10 c3 -9 0 -20 -8 -25 -19 -12 -32 -11 -24 1 3 6 -3
10 -14 10 -11 0 -23 -4 -26 -10 -7 -12 -25 -13 -25 -2 0 11 52 41 73 42 10 0
20 -7 24 -16z m-4255 -4 c-19 -4 -46 -4 -60 0 -21 6 -13 8 33 8 51 0 55 -1 27
-8z m5252 -7 c3 -7 -5 -18 -17 -23 -21 -11 -21 -11 -3 4 17 14 18 16 3 16 -9
0 -17 4 -17 8 0 14 29 10 34 -5z m1146 -14 c0 -5 -10 -9 -22 -9 -19 0 -20 2
-8 11 11 7 6 9 -20 6 -19 -2 -27 -2 -17 0 9 2 15 8 12 13 -3 5 8 4 25 -1 16
-6 30 -15 30 -20z m65 21 c13 -6 15 -9 5 -9 -8 0 -22 4 -30 9 -18 12 -2 12 25
0z m-7058 -14 c-3 -8 -1 -17 6 -20 9 -3 9 -5 0 -5 -15 -1 -26 16 -18 29 9 15
18 12 12 -4z m113 -7 c0 -5 -10 -8 -22 -8 -18 1 -19 2 -5 6 9 2 14 9 11 15 -4
7 -2 8 4 4 7 -4 12 -11 12 -17z m2830 17 c0 -2 -9 -6 -20 -9 -11 -3 -18 -1
-14 4 5 9 34 13 34 5z m140 -12 c0 -2 -7 -4 -15 -4 -8 0 -15 4 -15 10 0 5 7 7
15 4 8 -4 15 -8 15 -10z m-3025 -4 c-3 -5 -11 -10 -16 -10 -6 0 -7 5 -4 10 3
6 11 10 16 10 6 0 7 -4 4 -10z m5668 -5 c-3 -9 -8 -14 -10 -11 -3 3 -2 9 2 15
9 16 15 13 8 -4z m35 2 c8 -10 6 -13 -7 -13 -11 0 -17 6 -14 13 3 7 6 13 8 13
1 0 7 -6 13 -13z m179 7 c-3 -3 -12 -4 -19 -1 -8 3 -5 6 6 6 11 1 17 -2 13 -5z
m468 -14 c3 -5 1 -10 -4 -10 -6 0 -11 5 -11 10 0 6 2 10 4 10 3 0 8 -4 11 -10z
m495 -10 c3 -5 12 -10 20 -12 8 -2 20 -10 27 -18 10 -12 14 -13 25 -2 11 11
10 12 -7 7 -15 -5 -17 -4 -6 3 8 6 21 7 30 2 14 -7 51 -21 58 -21 2 -1 30 -7
64 -15 57 -13 63 -13 76 3 8 10 12 12 8 6 -4 -8 0 -13 10 -13 10 0 15 -7 13
-17 -2 -13 4 -18 20 -18 14 0 32 -12 44 -28 11 -15 29 -27 41 -27 17 0 19 -2
8 -9 -10 -7 -1 -11 32 -16 30 -5 47 -12 47 -21 0 -8 9 -14 19 -14 11 0 23 -5
27 -11 4 -6 19 -9 36 -5 18 3 27 2 23 -4 -3 -5 0 -7 8 -4 8 3 18 0 22 -6 4 -6
16 -8 28 -5 12 2 16 2 10 -1 -19 -9 -15 -24 6 -24 10 0 38 -7 62 -16 24 -8 66
-17 94 -20 45 -5 93 -30 80 -42 -5 -5 -48 -12 -90 -14 -11 -1 -38 2 -59 7 -31
6 -37 5 -31 -5 6 -10 4 -11 -11 -5 -10 5 -45 11 -76 13 -32 2 -58 8 -58 13 0
5 6 9 13 10 9 0 9 2 -1 6 -30 12 2 20 49 11 28 -5 58 -7 67 -5 10 3 6 5 -10 6
-15 0 -30 6 -33 11 -3 6 -17 10 -31 10 -14 0 -34 5 -45 11 -11 6 -25 8 -32 5
-7 -2 -2 -8 11 -12 18 -5 20 -9 11 -20 -6 -8 -8 -14 -3 -14 10 0 -17 -20 -27
-20 -3 0 -26 16 -50 35 -24 19 -48 35 -52 35 -5 0 -21 9 -37 20 -15 11 -30 17
-34 13 -3 -3 -6 1 -6 9 0 9 -7 19 -16 22 -15 6 -15 4 -3 -10 13 -16 12 -16 -8
-4 -11 8 -19 19 -16 26 3 8 -9 15 -34 19 -21 3 -56 10 -79 15 -40 9 -94 -4
-94 -22 0 -5 -5 -8 -12 -8 -9 0 -9 3 0 12 16 16 15 28 -3 28 -8 0 -15 5 -15
10 0 6 -21 10 -46 10 -31 0 -54 7 -71 20 -14 11 -29 17 -34 14 -5 -3 -9 -2 -8
3 6 32 -2 45 -23 39 -15 -4 -48 6 -95 30 -40 20 -73 37 -73 38 0 6 236 -8 240
-14z m127 14 c-3 -3 -12 -4 -19 -1 -8 3 -5 6 6 6 11 1 17 -2 13 -5z m-6137
-11 c20 -5 12 -9 -40 -19 -90 -18 -140 -18 -140 0 0 8 5 16 10 18 21 6 146 8
170 1z m720 -3 c0 -5 -4 -10 -10 -10 -5 0 -10 5 -10 10 0 6 5 10 10 10 6 0 10
-4 10 -10z m2810 6 c0 -2 -7 -7 -16 -10 -8 -3 -12 -2 -9 4 6 10 25 14 25 6z
m1863 -3 c-7 -2 -19 -2 -25 0 -7 3 -2 5 12 5 14 0 19 -2 13 -5z m207 -3 c0 -5
-10 -10 -22 -9 -22 0 -22 1 -3 9 11 5 21 9 23 9 1 1 2 -3 2 -9z m-6260 -20
c-19 -13 -30 -13 -30 0 0 6 10 10 23 10 18 0 19 -2 7 -10z m5475 0 c-3 -5 -12
-10 -18 -10 -7 0 -6 4 3 10 19 12 23 12 15 0z m830 0 c3 -5 2 -10 -4 -10 -5 0
-13 5 -16 10 -3 6 -2 10 4 10 5 0 13 -4 16 -10z m-6868 -6 c-3 -3 -12 -4 -19
-1 -8 3 -5 6 6 6 11 1 17 -2 13 -5z m1893 -2 c0 -15 -11 -21 -27 -15 -12 5
-12 7 -1 14 17 11 28 11 28 1z m-2003 -18 c-3 -3 -12 -4 -19 -1 -8 3 -5 6 6 6
11 1 17 -2 13 -5z m1545 -46 c-2 -10 -8 -18 -12 -18 -9 0 -19 58 -12 65 10 9
29 -29 24 -47z m5013 32 c3 -5 1 -10 -4 -10 -6 0 -11 5 -11 10 0 6 2 10 4 10
3 0 8 -4 11 -10z m-5965 -24 c0 -7 -35 -30 -77 -52 -43 -21 -100 -52 -128 -68
-85 -48 -104 -52 -60 -11 28 25 45 33 59 29 14 -3 17 -2 9 3 -10 7 -4 19 22
46 19 20 35 41 35 45 0 20 23 27 79 24 40 -3 61 -8 61 -16z m573 7 c-7 -2 -19
-2 -25 0 -7 3 -2 5 12 5 14 0 19 -2 13 -5z m1451 -13 c-6 -6 -15 -5 -24 1 -13
9 -12 10 3 5 9 -3 17 0 17 6 0 6 3 8 7 5 4 -4 2 -12 -3 -17z m3896 -5 c-7 -9
-15 -13 -17 -11 -6 6 20 36 26 30 2 -2 -2 -10 -9 -19z m165 15 c-3 -5 -13 -10
-21 -10 -8 0 -23 -5 -34 -12 -26 -16 -40 0 -16 18 23 16 81 19 71 4z m241 -14
c0 -14 -4 -22 -8 -20 -5 3 -6 10 -3 15 4 5 -1 9 -10 9 -9 0 -13 5 -10 10 12
19 31 10 31 -14z m249 3 c2 -9 -7 -16 -22 -17 -14 -1 -21 2 -18 8 3 6 14 10
23 10 15 0 15 2 2 11 -12 8 -12 10 -1 7 8 -2 15 -11 16 -19z m-4060 -9 c3 -6
-1 -7 -9 -4 -18 7 -21 14 -7 14 6 0 13 -4 16 -10z m145 -20 c0 -5 -4 -10 -10
-10 -5 0 -10 5 -10 10 0 6 5 10 10 10 6 0 10 -4 10 -10z m-165 -10 c3 -6 -1
-7 -9 -4 -18 7 -21 14 -7 14 6 0 13 -4 16 -10z m902 4 c-3 -3 -12 -4 -19 -1
-8 3 -5 6 6 6 11 1 17 -2 13 -5z m-3917 -33 c0 -11 -39 -21 -45 -11 -2 4 -2
10 2 14 10 9 43 7 43 -3z m6557 3 c-3 -3 -12 -4 -19 -1 -8 3 -5 6 6 6 11 1 17
-2 13 -5z m133 2 c0 -2 -7 -7 -16 -10 -8 -3 -12 -2 -9 4 6 10 25 14 25 6z
m440 -8 c0 -4 -7 -8 -15 -8 -8 0 -15 4 -15 8 0 5 7 9 15 9 8 0 15 -4 15 -9z
m-337 -25 c-9 -16 -18 -30 -20 -32 -2 -2 -3 3 -3 12 0 14 25 47 36 47 2 0 -3
-12 -13 -27z m554 -8 c0 -12 -3 -12 -16 -3 -9 7 -18 14 -20 15 -2 2 5 3 16 3
11 0 20 -7 20 -15z m-523 -6 c-4 -8 3 -9 25 -4 17 3 36 3 43 -2 8 -5 -1 -10
-27 -14 -25 -4 -43 -3 -47 4 -7 11 -2 27 8 27 3 0 2 -5 -2 -11z m454 -4 c2 -1
-4 -5 -12 -8 -8 -3 -22 1 -33 9 -17 13 -16 14 12 8 17 -4 31 -8 33 -9z m202 5
c0 -5 -7 -7 -15 -4 -8 4 -15 8 -15 10 0 2 7 4 15 4 8 0 15 -4 15 -10z m-443
-32 c-3 -8 -6 -5 -6 6 -1 11 2 17 5 13 3 -3 4 -12 1 -19z m-7177 5 c-8 -4 -21
-14 -28 -24 -7 -11 -20 -16 -30 -13 -13 5 -14 4 -3 -4 7 -5 23 -8 35 -5 19 4
20 3 3 -7 -14 -9 -26 -9 -48 1 -24 9 -32 9 -42 -1 -10 -10 -8 -12 5 -7 10 3
20 2 23 -2 2 -5 -12 -12 -33 -16 -46 -9 -46 -9 -50 3 -4 13 136 80 168 80 13
0 13 0 0 -5z m50 -18 c-26 -27 -46 -32 -53 -12 -2 6 10 17 27 24 47 18 52 15
26 -12z m7630 14 c12 -8 12 -12 2 -16 -10 -4 -9 -8 5 -19 17 -13 17 -13 -4
-14 -16 0 -21 5 -18 20 2 11 -3 24 -13 30 -14 7 -14 9 -2 10 8 0 22 -5 30 -11z
m-610 -10 c-14 -5 -31 -17 -38 -26 -6 -9 -19 -18 -28 -19 -18 -3 -15 1 30 34
16 12 36 22 45 21 9 0 6 -4 -9 -10z m-6483 -6 c-4 -3 -2 -12 4 -19 7 -8 6 -14
-2 -20 -8 -4 -9 -3 -5 4 5 8 -4 12 -26 13 l-33 1 30 13 c34 16 41 18 32 8z
m190 -9 c-3 -3 -12 -4 -19 -1 -8 3 -5 6 6 6 11 1 17 -2 13 -5z m6718 -14 c-10
-11 -30 -20 -44 -20 -25 1 -24 2 9 19 47 25 57 25 35 1z m149 10 c-7 -7 -19
-7 -35 -1 -23 9 -22 10 11 10 23 1 31 -2 24 -9z m-6894 -14 c0 -2 -7 -7 -16
-10 -8 -3 -12 -2 -9 4 6 10 25 14 25 6z m1885 -6 c3 -6 -1 -7 -9 -4 -18 7 -21
14 -7 14 6 0 13 -4 16 -10z m1270 0 c-3 -5 -11 -10 -16 -10 -6 0 -7 5 -4 10 3
6 11 10 16 10 6 0 7 -4 4 -10z m3515 -4 c0 -2 -9 -6 -20 -9 -11 -3 -18 -1 -14
4 5 9 34 13 34 5z m184 -5 c3 -4 16 -6 28 -4 13 2 32 -3 43 -14 23 -20 27 -21
79 -25 52 -3 28 -20 -31 -21 -35 -2 -54 3 -67 15 -9 10 -35 23 -56 29 -22 7
-37 16 -34 20 7 12 31 11 38 0z m-3669 -11 c-11 -5 -36 -8 -55 -8 l-35 0 30 8
c17 4 41 8 55 8 23 1 23 0 5 -8z m3355 0 c0 -5 -9 -10 -19 -10 -11 0 -23 5
-26 10 -4 6 5 10 19 10 14 0 26 -4 26 -10z m80 0 c0 -5 -7 -7 -15 -4 -8 4 -15
8 -15 10 0 2 7 4 15 4 8 0 15 -4 15 -10z m-6665 -10 c-3 -5 -13 -10 -21 -10
-8 0 -12 5 -9 10 3 6 13 10 21 10 8 0 12 -4 9 -10z m2145 -10 c0 -5 -8 -10
-17 -10 -15 0 -16 2 -3 10 19 12 20 12 20 0z m960 6 c0 -11 -19 -15 -25 -6 -3
5 1 10 9 10 9 0 16 -2 16 -4z m3516 -17 c19 -21 19 -21 0 -18 -11 2 -20 12
-22 22 -3 22 -1 22 22 -4z m-6993 4 c-7 -2 -13 -12 -13 -20 0 -9 -3 -14 -6
-10 -10 10 4 37 18 36 10 0 10 -2 1 -6z m2547 -3 c0 -5 -2 -10 -4 -10 -3 0 -8
5 -11 10 -3 6 -1 10 4 10 6 0 11 -4 11 -10z m4597 -14 c-3 -8 -1 -16 4 -18 18
-6 -2 -37 -19 -32 -13 4 -12 2 3 -11 20 -17 20 -17 -5 -10 -14 4 -30 14 -36
22 -7 8 -14 10 -16 6 -3 -4 -3 -2 -2 5 2 6 -3 12 -11 12 -8 0 -15 4 -15 9 0 5
-8 12 -17 14 -10 3 -2 5 17 6 24 0 31 -2 21 -8 -11 -7 -3 -12 28 -21 24 -6 46
-9 49 -6 3 3 -1 6 -9 6 -8 0 -15 9 -16 20 -1 12 4 20 14 20 9 0 13 -6 10 -14z
m-7193 -21 c3 -8 13 -15 23 -15 13 0 15 -2 5 -9 -10 -6 -9 -11 4 -22 16 -12
17 -12 9 1 -6 12 -6 13 6 2 12 -11 12 -14 -1 -22 -9 -6 -10 -10 -3 -10 7 0 17
8 23 18 9 15 10 14 5 -5 -5 -20 -2 -23 19 -23 14 0 26 -4 26 -9 0 -16 -20 -23
-33 -12 -10 7 -13 5 -12 -12 0 -12 3 -27 7 -33 5 -8 -10 -14 -50 -19 -31 -4
-60 -12 -65 -19 -13 -19 -37 24 -39 68 -1 37 -2 38 -5 9 l-4 -33 -67 -2 -67
-2 70 -6 c66 -6 67 -7 19 -8 -28 -1 -66 -5 -83 -8 l-31 -6 0 44 0 45 58 8 c78
9 95 13 123 25 23 10 23 10 -7 7 -19 -2 -31 2 -31 9 0 10 28 21 69 28 3 1 10
5 15 10 5 5 2 6 -6 1 -9 -5 -12 -4 -7 3 10 16 23 15 30 -3z m1486 -5 c-25 -3
-49 -3 -55 0 -14 7 56 17 80 10 13 -3 4 -7 -25 -10z m120 10 c21 -13 10 -19
-23 -13 -21 4 -25 8 -15 14 16 11 20 11 38 -1z m975 0 c-3 -5 -12 -10 -18 -10
-7 0 -6 4 3 10 19 12 23 12 15 0z m1922 4 c-3 -3 -12 -4 -19 -1 -8 3 -5 6 6 6
11 1 17 -2 13 -5z m2488 -4 c3 -5 -1 -10 -10 -10 -9 0 -13 5 -10 10 3 6 8 10
10 10 2 0 7 -4 10 -10z m298 -7 c9 -3 17 -9 17 -14 0 -5 5 -9 11 -9 17 0 41
-29 33 -41 -5 -8 -8 -8 -14 0 -4 7 -19 13 -33 15 -15 1 -30 6 -35 11 -4 4 -1
5 6 1 6 -4 12 -2 12 3 0 6 -5 11 -11 11 -5 0 -7 5 -4 10 3 6 -3 10 -13 10 -11
0 -23 -7 -26 -16 -4 -9 -9 -14 -12 -11 -11 11 21 47 36 41 8 -3 23 -9 33 -11z
m-516 1 c-3 -3 -12 -4 -19 -1 -8 3 -5 6 6 6 11 1 17 -2 13 -5z m1313 -4 c0 -5
-2 -10 -4 -10 -3 0 -8 5 -11 10 -3 6 -1 10 4 10 6 0 11 -4 11 -10z m-6420 -4
c0 -2 -7 -6 -15 -10 -8 -3 -15 -1 -15 4 0 6 7 10 15 10 8 0 15 -2 15 -4z
m5775 -6 c-3 -5 -11 -10 -16 -10 -6 0 -7 5 -4 10 3 6 11 10 16 10 6 0 7 -4 4
-10z m172 -6 c3 -7 10 -11 16 -7 6 3 7 1 3 -6 -6 -9 -14 -8 -32 3 -22 15 -23
15 -17 -1 4 -10 11 -22 17 -26 7 -5 4 -6 -7 -3 -10 3 -23 6 -28 6 -4 0 -6 7
-3 15 5 12 -3 15 -32 16 -38 1 -38 2 -9 8 52 12 86 10 92 -5z m278 -8 c24 -10
36 -11 44 -3 8 8 11 8 11 -1 0 -7 -3 -12 -7 -13 -5 0 -21 -3 -38 -5 -19 -4
-33 0 -41 10 -7 10 -33 17 -69 20 -31 3 -60 8 -64 12 -10 11 129 -6 164 -20z
m-887 -11 c-3 -3 -9 2 -12 12 -6 14 -5 15 5 6 7 -7 10 -15 7 -18z m-5247 -3
c-7 -2 -18 1 -23 6 -8 8 -4 9 13 5 13 -4 18 -8 10 -11z m6314 -13 c28 -8 54
-12 58 -11 5 1 5 -3 1 -9 -4 -7 0 -9 12 -5 11 3 26 1 34 -4 11 -7 0 -10 -37
-10 -36 0 -53 4 -53 13 0 6 -5 4 -11 -6 -10 -18 -11 -18 -26 0 -8 10 -12 13
-9 6 4 -6 2 -14 -4 -18 -5 -3 -10 -1 -10 6 0 8 -4 8 -15 -1 -12 -10 -15 -9
-16 6 -1 11 -1 22 0 27 2 11 -12 8 -31 -7 -10 -7 -15 -16 -11 -19 3 -4 -6 -7
-20 -7 -45 0 -33 29 17 42 25 6 42 16 39 21 -3 5 3 4 13 -2 11 -5 42 -15 69
-22z m-408 6 c0 -8 -4 -12 -9 -9 -5 3 -6 10 -3 15 9 13 12 11 12 -6z m-807 -5
c13 -8 13 -10 -2 -10 -9 0 -20 5 -23 10 -8 13 5 13 25 0z m244 -9 c9 -15 -18
-31 -34 -20 -13 8 -13 10 0 19 19 12 27 12 34 1z m-259 -19 c-3 -3 -11 0 -18
7 -9 10 -8 11 6 5 10 -3 15 -9 12 -12z m915 8 c0 -5 -2 -10 -4 -10 -3 0 -8 5
-11 10 -3 6 -1 10 4 10 6 0 11 -4 11 -10z m-7490 -7 c-14 -3 -27 -8 -30 -12
-11 -14 -59 -29 -79 -24 -37 10 -24 32 22 36 63 5 118 5 87 0z m98 -8 c-9 -7
-80 -13 -72 -5 10 10 55 18 67 12 5 -2 7 -5 5 -7z m6815 -5 c7 0 18 -4 26 -9
12 -8 12 -11 -1 -25 -18 -18 -33 -9 -17 11 9 10 5 13 -20 13 -27 0 -30 2 -19
14 7 8 15 10 16 5 2 -5 9 -9 15 -9z m-7441 -40 c4 -45 -3 -50 -63 -50 -35 0
-39 2 -39 26 0 15 -8 33 -17 41 -16 13 -16 13 5 3 12 -6 22 -15 22 -21 0 -6 5
-7 10 -4 6 4 8 11 5 16 -4 5 1 9 9 9 10 0 13 -6 9 -17 -5 -13 -3 -13 13 3 19
19 19 19 -6 23 -24 4 -24 4 5 11 40 9 42 7 47 -40z m1005 3 c-3 -10 -5 -4 -5
12 0 17 2 24 5 18 2 -7 2 -21 0 -30z m6383 25 c0 -9 -27 -21 -73 -32 -19 -4
-26 -3 -22 4 3 5 17 10 31 10 14 0 27 6 30 13 5 15 34 19 34 5z m307 6 c-3 -3
-12 -4 -19 -1 -8 3 -5 6 6 6 11 1 17 -2 13 -5z m758 -24 c55 -1 66 -3 51 -11
-10 -6 -34 -9 -53 -6 -29 5 -34 3 -29 -10 5 -12 1 -14 -16 -10 -13 4 -30 2
-37 -3 -11 -6 -5 -10 22 -15 41 -8 60 -25 28 -25 -11 0 -23 5 -26 10 -8 14
-36 13 -32 -1 1 -6 -15 -12 -40 -13 -23 0 -41 3 -40 9 1 5 -17 12 -40 15 -59
9 -66 20 -12 20 54 0 89 9 89 22 0 6 -17 8 -44 4 -24 -4 -47 -3 -49 1 -3 5 25
10 61 11 37 2 69 8 71 14 2 6 7 6 14 -1 6 -6 43 -11 82 -11z m208 13 c-7 -2
-19 -2 -25 0 -7 3 -2 5 12 5 14 0 19 -2 13 -5z m-7906 -9 c-3 -3 -12 -4 -19
-1 -8 3 -5 6 6 6 11 1 17 -2 13 -5z m-380 -10 c-3 -3 -12 -4 -19 -1 -8 3 -5 6
6 6 11 1 17 -2 13 -5z m7308 -4 c3 -5 -1 -10 -9 -10 -9 0 -16 5 -16 10 0 6 4
10 9 10 6 0 13 -4 16 -10z m168 -11 c3 -12 3 -19 1 -16 -3 3 -25 -1 -49 -9
-25 -7 -47 -9 -50 -4 -8 13 27 29 57 26 19 -2 25 1 21 10 -3 8 -1 14 5 14 5 0
12 -9 15 -21z m752 11 c3 -5 1 -10 -4 -10 -6 0 -11 5 -11 10 0 6 2 10 4 10 3
0 8 -4 11 -10z m-8175 -41 c0 -6 7 -9 15 -5 8 3 15 1 15 -4 0 -6 -7 -10 -16
-10 -9 0 -12 -5 -8 -12 4 -7 3 -8 -4 -4 -7 4 -12 13 -12 21 0 7 -6 16 -12 18
-8 3 -6 6 5 6 9 1 17 -4 17 -10z m1650 1 c-19 -13 -30 -13 -30 0 0 6 10 10 23
10 18 0 19 -2 7 -10z m200 -12 c0 -5 -4 -7 -9 -4 -5 4 -11 0 -14 -6 -2 -7 -8
-10 -12 -6 -13 12 3 38 20 32 8 -3 15 -10 15 -16z m1877 10 c3 7 23 12 49 12
30 0 43 -4 38 -11 -3 -6 -17 -9 -30 -6 -13 2 -24 1 -24 -3 0 -13 43 -20 57 -8
18 14 16 0 -2 -18 -11 -12 -18 -12 -34 -2 -15 9 -23 9 -34 0 -12 -10 -18 -9
-31 3 -9 9 -16 13 -16 8 0 -4 -4 -1 -9 7 -14 20 -2 33 17 18 12 -10 16 -10 19
0z m184 -15 c-8 -15 -10 -15 -11 -2 0 17 10 32 18 25 2 -3 -1 -13 -7 -23z
m3772 12 c-3 -9 -8 -14 -10 -11 -3 3 -2 9 2 15 9 16 15 13 8 -4z m-493 -10 c9
-10 9 -15 1 -15 -6 0 -11 5 -11 12 0 7 -5 5 -12 -5 -12 -15 -15 -15 -38 3
l-25 20 36 0 c21 0 42 -7 49 -15z m-7790 -11 c0 -2 -7 -4 -15 -4 -8 0 -15 4
-15 10 0 5 7 7 15 4 8 -4 15 -8 15 -10z m773 9 c-7 -2 -21 -2 -30 0 -10 3 -4
5 12 5 17 0 24 -2 18 -5z m187 -5 c0 -4 -7 -8 -15 -8 -8 0 -15 4 -15 8 0 5 7
9 15 9 8 0 15 -4 15 -9z m595 2 c3 -5 -1 -10 -9 -10 -9 0 -16 5 -16 10 0 6 4
10 9 10 6 0 13 -4 16 -10z m834 0 c-10 -7 -49 -2 -49 5 0 2 14 3 31 3 17 -1
25 -4 18 -8z m5229 -8 c-10 -2 -18 -8 -18 -13 0 -6 -4 -7 -10 -4 -24 15 10 40
35 26 6 -3 2 -7 -7 -9z m68 3 c-11 -8 -25 -15 -30 -15 -6 1 0 7 14 15 32 19
40 18 16 0z m189 5 c3 -5 1 -10 -4 -10 -6 0 -11 5 -11 10 0 6 2 10 4 10 3 0 8
-4 11 -10z m-7020 -10 c3 -6 -1 -7 -9 -4 -18 7 -21 14 -7 14 6 0 13 -4 16 -10z
m3775 0 c-20 -13 -33 -13 -25 0 3 6 14 10 23 10 15 0 15 -2 2 -10z m3440 -10
c13 -11 20 -23 17 -27 -4 -3 -16 4 -27 17 -31 36 -26 41 10 10z m134 -9 c-2
-3 -12 3 -22 13 -16 17 -16 18 5 5 12 -7 20 -15 17 -18z m-7394 3 c0 -2 -7 -4
-15 -4 -8 0 -15 4 -15 10 0 5 7 7 15 4 8 -4 15 -8 15 -10z m208 9 c-10 -2 -26
-2 -35 0 -10 3 -2 5 17 5 19 0 27 -2 18 -5z m3118 -6 c4 -4 -18 -7 -49 -7 -42
0 -57 -4 -57 -14 0 -18 -49 -31 -63 -17 -8 8 -5 11 9 11 18 1 18 1 2 14 -10 7
-18 15 -18 18 0 8 168 3 176 -5z m752 1 c6 -1 12 -7 12 -15 0 -7 9 -14 20 -14
11 -1 25 -3 30 -4 6 -1 24 -3 40 -4 17 0 30 -5 30 -11 0 -6 -24 -8 -60 -5 -38
3 -60 1 -60 -6 0 -6 -14 -1 -31 11 -16 12 -33 19 -36 16 -4 -3 -2 -6 4 -6 6 0
13 -9 16 -20 3 -13 1 -18 -6 -13 -5 3 -26 6 -46 5 -20 0 -30 2 -23 5 6 2 12
12 12 20 0 9 6 13 14 10 7 -3 18 -1 23 4 6 6 20 6 37 -1 21 -8 27 -7 24 2 -2
6 -20 18 -39 25 -32 12 -32 13 -4 8 17 -3 36 -6 43 -7z m3121 -10 c14 -19 5
-23 -18 -9 -7 5 -10 14 -6 21 4 6 8 10 9 8 1 -2 8 -11 15 -20z m-6749 -17 c14
-7 17 -9 7 -6 -10 3 -39 5 -63 5 -24 0 -44 4 -44 9 0 12 40 19 60 10 8 -4 26
-12 40 -18z m2960 19 c8 -5 11 -10 5 -10 -5 0 -17 5 -25 10 -8 5 -10 10 -5 10
6 0 17 -5 25 -10z m-1751 -16 c7 -7 -63 -2 -89 6 -17 6 -7 7 30 4 30 -3 56 -7
59 -10z m2201 -12 c18 -19 45 -28 73 -23 4 0 7 -3 7 -9 0 -5 17 -10 39 -10 22
0 44 -6 51 -15 15 -18 10 -26 -16 -26 -11 1 -56 2 -102 3 -64 2 -82 0 -82 -11
0 -8 -6 -11 -15 -7 -8 3 -15 4 -15 2 0 -3 -3 -12 -7 -22 -5 -13 -3 -15 7 -9 9
5 11 4 6 -3 -4 -7 -2 -12 4 -12 6 0 18 -7 26 -15 14 -13 13 -15 -4 -15 -26 0
-64 34 -57 52 4 11 -2 15 -24 16 -16 0 -39 5 -50 11 -11 6 -37 12 -58 12 l-38
1 45 10 c25 5 55 14 67 20 12 6 37 8 55 4 43 -8 48 -3 38 38 -6 28 -4 32 11
31 11 -1 28 -11 39 -23z m3280 20 c0 -4 -12 -8 -27 -9 -24 -1 -25 -1 -8 7 26
11 35 12 35 2z m420 -2 c0 -5 6 -10 14 -10 23 0 70 -28 72 -44 1 -8 -9 -17
-22 -20 -25 -7 -33 -31 -11 -39 6 -3 3 -5 -9 -4 -13 1 -20 8 -20 20 1 11 -6
21 -14 23 -8 1 -33 7 -55 12 -30 7 -33 10 -15 11 21 1 22 3 10 12 -13 9 -13
10 2 6 19 -7 43 17 33 33 -3 5 -1 10 4 10 6 0 11 -4 11 -10z m-233 -6 c-3 -3
-12 -4 -19 -1 -8 3 -5 6 6 6 11 1 17 -2 13 -5z m-6744 -11 c-7 -2 -19 -2 -25
0 -7 3 -2 5 12 5 14 0 19 -2 13 -5z m62 -3 c16 -7 14 -8 -12 -7 -17 1 -29 5
-26 10 5 9 12 8 38 -3z m7215 0 c8 -5 11 -10 5 -10 -5 0 -17 5 -25 10 -8 5
-10 10 -5 10 6 0 17 -5 25 -10z m-6973 -24 c3 -3 -10 -6 -30 -6 -20 0 -39 5
-42 10 -7 11 61 8 72 -4z m-123 -7 c3 -3 -6 -6 -19 -7 -14 -1 -25 2 -25 6 0 9
36 9 44 1z m245 0 c-8 -5 -27 -8 -44 -8 -25 0 -27 2 -10 8 28 12 71 11 54 0z
m230 0 c20 0 29 -3 21 -6 -8 -2 -24 -8 -35 -12 -11 -5 -33 -14 -48 -20 -15 -6
-42 -11 -59 -11 -27 0 -29 2 -17 17 12 14 12 17 0 21 -29 10 14 23 58 17 24
-3 60 -5 80 -6z m5466 1 c-3 -5 -18 -10 -33 -9 -24 0 -25 1 -7 9 28 12 47 12
40 0z m-7575 -16 c0 -2 -7 -4 -15 -4 -8 0 -15 4 -15 10 0 5 7 7 15 4 8 -4 15
-8 15 -10z m5017 10 c-3 -3 -12 -4 -19 -1 -8 3 -5 6 6 6 11 1 17 -2 13 -5z
m3254 -17 c-1 -12 -15 -9 -19 4 -3 6 1 10 8 8 6 -3 11 -8 11 -12z m-3311 -7
c0 -7 7 -7 21 0 11 6 25 9 32 6 7 -2 4 -5 -5 -5 -19 -1 -20 -21 -3 -33 6 -5 6
-8 -2 -8 -7 0 -25 11 -40 25 -15 13 -22 25 -15 25 6 0 12 -5 12 -10z m3715
-10 c4 -6 -1 -10 -9 -10 -9 0 -16 -6 -16 -12 0 -10 -2 -10 -9 0 -4 8 -11 13
-15 13 -25 -4 -56 0 -56 7 0 11 98 13 105 2z m-4455 -19 c0 -19 -25 -29 -37
-16 -10 11 -9 15 5 18 28 8 32 7 32 -2z m40 -6 c16 -19 5 -34 -20 -28 -22 6
-22 6 -14 27 8 20 18 20 34 1z m78 4 c35 2 39 -4 17 -33 -17 -22 -20 -40 -5
-31 5 3 24 -2 42 -12 33 -17 128 -25 128 -10 0 4 12 4 26 1 17 -4 25 -3 21 3
-4 6 3 19 16 29 l22 19 -19 -22 c-18 -22 -18 -23 0 -30 11 -4 25 -12 31 -19
10 -9 3 -11 -30 -7 -39 4 -41 3 -23 -11 11 -9 15 -16 9 -16 -7 0 -15 5 -18 10
-4 6 -10 8 -15 5 -5 -3 -11 -2 -14 3 -3 4 -26 9 -51 11 -25 1 -58 6 -71 11
-17 7 -23 7 -19 0 8 -13 5 -12 -34 1 -17 6 -31 17 -31 25 0 8 -5 14 -10 14 -6
0 -10 6 -9 13 3 26 -2 37 -16 37 -8 0 -15 5 -15 11 0 7 7 8 18 4 9 -4 32 -7
50 -6z m3042 1 c0 -5 -4 -10 -10 -10 -5 0 -10 5 -10 10 0 6 5 10 10 10 6 0 10
-4 10 -10z m50 6 c0 -11 -19 -15 -25 -6 -3 5 1 10 9 10 9 0 16 -2 16 -4z
m1345 -20 c13 6 14 8 3 15 -10 7 -9 9 3 9 9 0 22 -6 28 -14 9 -11 5 -15 -21
-19 -30 -4 -98 14 -98 27 0 3 15 -1 34 -9 19 -8 42 -12 51 -9z m-3830 4 c3 -6
-1 -7 -9 -4 -18 7 -21 14 -7 14 6 0 13 -4 16 -10z m2620 -9 c3 -5 1 -12 -5
-16 -5 -3 -10 1 -10 9 0 18 6 21 15 7z m-4282 -8 c-7 -3 -13 -9 -13 -15 0 -5
6 -8 13 -5 6 2 22 0 34 -4 15 -6 27 -4 36 6 11 10 23 12 43 5 16 -4 24 -9 17
-9 -7 -1 -10 -8 -7 -16 4 -8 10 -12 15 -9 5 3 9 1 9 -5 0 -11 102 -35 139 -33
14 1 28 7 32 13 4 6 22 10 42 7 22 -2 33 0 31 7 -3 6 5 11 16 12 11 1 20 -3
20 -8 0 -6 -5 -7 -12 -3 -7 4 -8 3 -4 -5 4 -6 12 -9 17 -6 5 4 19 8 31 10 13
3 28 11 33 18 10 15 41 5 57 -18 5 -6 8 -3 8 7 0 28 17 29 35 2 9 -15 12 -23
6 -20 -6 4 -11 2 -11 -3 0 -15 -33 -14 -48 1 -9 9 -12 8 -12 -4 0 -9 6 -19 13
-22 6 -3 3 -5 -8 -3 -11 1 -18 6 -17 11 6 15 -21 25 -39 15 -10 -5 -35 -9 -56
-9 -21 0 -56 -6 -78 -14 -22 -8 -57 -12 -77 -11 -21 2 -40 -1 -44 -6 -3 -5
-14 -9 -25 -9 -10 0 -19 -5 -19 -10 0 -7 -13 -8 -35 -4 -27 5 -36 2 -41 -9 -5
-13 -9 -14 -25 -4 -15 9 -21 8 -33 -8 -15 -19 -15 -19 -16 -1 0 12 -5 16 -15
13 -8 -4 -17 -2 -20 3 -4 6 -12 10 -18 10 -7 0 -6 -4 3 -10 10 -6 11 -10 3
-10 -7 0 -13 -8 -13 -17 -1 -17 -1 -17 -10 -1 -8 13 -20 15 -55 12 -26 -3 -45
-1 -45 4 0 6 -9 8 -21 5 -13 -4 -16 -8 -10 -13 7 -3 9 -14 5 -23 -7 -19 -20
-22 -29 -7 -9 15 -75 13 -75 -2 0 -7 -8 -1 -18 15 -10 17 -25 27 -40 27 -13 0
-21 -4 -17 -10 3 -5 12 -7 19 -4 8 3 17 1 21 -5 4 -7 -5 -11 -24 -11 -16 0
-33 -5 -36 -10 -4 -6 -10 -8 -15 -5 -5 3 -11 1 -15 -5 -10 -16 -43 -12 -57 8
-11 15 -26 18 -101 16 -50 -1 -85 2 -81 7 3 5 30 9 59 9 30 0 73 7 95 16 22 9
47 13 56 10 9 -4 22 -2 29 4 23 19 72 29 84 17 8 -8 11 -7 11 5 0 20 89 59
140 61 21 1 36 5 34 9 -3 4 3 8 14 8 10 0 28 8 39 18 11 9 36 18 54 18 19 1
28 -1 22 -3z m5297 -10 c0 -8 -8 -11 -22 -9 -13 3 -29 5 -35 5 -29 2 -10 16
22 17 23 0 35 -4 35 -13z m-8105 -3 c3 -5 1 -10 -4 -10 -6 0 -11 5 -11 10 0 6
2 10 4 10 3 0 8 -4 11 -10z m4333 -26 c-4 -3 -12 5 -18 18 -12 22 -12 22 6 6
10 -10 15 -20 12 -24z m72 26 c0 -5 -7 -10 -16 -10 -8 0 -12 5 -9 10 3 6 10
10 16 10 5 0 9 -4 9 -10z m3814 -16 c3 -8 2 -12 -4 -9 -6 3 -10 10 -10 16 0
14 7 11 14 -7z m-4631 -1 c-7 -2 -19 -2 -25 0 -7 3 -2 5 12 5 14 0 19 -2 13
-5z m4474 -9 c-3 -3 -12 -4 -19 -1 -8 3 -5 6 6 6 11 1 17 -2 13 -5z m146 -24
c9 -9 0 -11 -43 -5 -79 10 -99 27 -27 22 32 -3 64 -10 70 -17z m-4018 0 c-3
-5 -14 -10 -23 -9 -14 0 -13 2 3 9 27 11 27 11 20 0z m3813 -16 c18 -8 32 -20
32 -25 0 -11 0 -11 -38 2 -17 6 -33 17 -36 25 -7 18 3 18 42 -2z m342 12 c0
-2 -9 -6 -20 -9 -11 -3 -18 -1 -14 4 5 9 34 13 34 5z m-4090 -10 c0 -11 -19
-15 -25 -6 -3 5 1 10 9 10 9 0 16 -2 16 -4z m2690 -5 c0 -5 -8 -12 -17 -15
-10 -3 -5 -4 10 -2 15 2 26 -1 25 -6 -2 -5 -7 -9 -11 -9 -4 1 -16 1 -27 1 -22
0 -28 25 -7 33 19 8 27 8 27 -2z m170 -11 c0 -5 -15 -10 -32 -10 -25 0 -29 3
-18 10 20 13 50 13 50 0z m230 -25 c16 -8 43 -15 61 -15 18 0 29 -3 26 -7 -11
-10 -116 -9 -109 1 3 5 -2 7 -11 3 -10 -3 -17 -2 -17 3 0 5 -7 7 -15 4 -8 -4
-15 -2 -15 2 0 10 -60 12 -75 3 -5 -4 -19 -2 -30 2 -18 9 -18 9 3 5 12 -2 22
-1 22 3 0 15 130 11 160 -4z m-4110 -19 c0 -9 -8 -12 -27 -8 l-28 6 25 7 c14
4 26 7 28 8 1 1 2 -5 2 -13z m3763 7 c3 -5 -5 -8 -18 -8 -13 0 -21 3 -18 8 2
4 10 7 18 7 8 0 16 -3 18 -7z m1137 3 c0 -11 -19 -15 -25 -6 -3 5 1 10 9 10 9
0 16 -2 16 -4z m-5017 -13 c-7 -2 -19 -2 -25 0 -7 3 -2 5 12 5 14 0 19 -2 13
-5z m5079 -5 c-7 -7 -16 -7 -28 0 -14 8 -13 10 10 10 18 0 24 -4 18 -10z
m-5262 -2 c0 -3 -4 -8 -10 -11 -5 -3 -10 -1 -10 4 0 6 5 11 10 11 6 0 10 -2
10 -4z m4545 -6 c-3 -5 -13 -10 -21 -10 -8 0 -14 5 -14 10 0 6 9 10 21 10 11
0 17 -4 14 -10z m-490 -18 c-3 -3 -11 0 -18 7 -9 10 -8 11 6 5 10 -3 15 -9 12
-12z m45 2 c0 -8 -5 -12 -10 -9 -6 4 -8 11 -5 16 9 14 15 11 15 -7z m488 7
c10 -6 9 -11 -5 -22 -10 -7 -15 -9 -11 -5 4 5 3 15 -3 23 -13 14 -1 17 19 4z
m-357 -16 c-1 -6 -5 -11 -11 -11 -5 -1 -15 -2 -21 -3 -5 0 -8 -5 -5 -10 3 -5
0 -11 -8 -14 -9 -4 -12 0 -9 13 3 12 -1 20 -14 23 -10 2 -3 2 15 0 19 -2 32 0
32 7 0 7 5 10 11 8 6 -2 10 -8 10 -13z m49 5 c0 -5 -4 -10 -10 -10 -5 0 -10 5
-10 10 0 6 5 10 10 10 6 0 10 -4 10 -10z m-5390 -15 c14 -8 0 -35 -18 -35 -8
0 -12 3 -9 7 4 3 2 12 -4 20 -10 11 -15 9 -30 -9 -14 -16 -22 -19 -30 -11 -6
6 -18 9 -25 6 -8 -3 -14 0 -14 7 0 6 5 8 10 5 6 -3 10 -2 10 4 0 16 86 21 110
6z m-391 2 c-2 -2 -19 -11 -38 -20 -34 -17 -34 -17 -16 3 10 11 27 20 38 20
11 0 18 -2 16 -3z m421 -27 c0 -5 -4 -10 -10 -10 -5 0 -10 5 -10 10 0 6 5 10
10 10 6 0 10 -4 10 -10z m423 -16 c-8 -21 -23 -17 -23 6 0 13 5 18 14 14 8 -3
12 -12 9 -20z m77 16 c0 -5 -15 -10 -32 -10 -25 0 -29 3 -18 10 20 13 50 13
50 0z m5039 -6 c2 -2 -12 -4 -32 -4 -20 0 -37 -4 -37 -8 0 -13 -68 -1 -81 15
-11 12 -1 13 67 8 43 -4 81 -9 83 -11z m171 12 c0 -3 -4 -8 -10 -11 -5 -3 -10
-1 -10 4 0 6 5 11 10 11 6 0 10 -2 10 -4z m-6688 -17 c16 -9 23 -8 29 2 8 13
10 12 13 -12 0 -6 9 -16 19 -23 9 -7 17 -18 17 -25 0 -7 34 -11 110 -11 92 0
112 3 117 16 5 13 7 13 14 2 7 -11 9 -11 9 1 0 11 3 11 15 1 10 -9 15 -9 15
-1 0 6 9 11 20 11 11 0 20 -4 20 -10 0 -16 41 -12 54 5 10 13 15 13 38 1 15
-8 28 -11 30 -7 2 5 20 11 40 15 28 5 37 4 34 -6 -1 -7 -1 -10 1 -5 3 4 11 7
19 7 8 0 14 4 14 10 0 5 12 8 28 6 44 -6 73 -18 69 -29 -4 -13 -28 -22 -26
-10 3 20 -2 27 -11 13 -5 -8 -31 -20 -57 -26 -43 -10 -45 -12 -15 -13 17 0 32
-3 32 -5 0 -2 3 -12 7 -22 5 -14 2 -16 -22 -10 -17 4 -31 3 -35 -4 -4 -6 -25
-13 -48 -15 -36 -4 -40 -2 -37 15 2 13 -2 20 -11 20 -10 0 -13 -6 -10 -17 5
-16 -2 -18 -51 -19 -34 0 -59 -6 -61 -12 -5 -17 -22 -15 -22 3 0 8 5 15 12 15
6 0 9 3 6 6 -4 3 -16 0 -29 -6 -19 -11 -21 -10 -16 3 5 14 0 15 -26 11 -18 -3
-38 -7 -44 -10 -7 -2 -13 1 -13 7 0 9 -14 9 -77 -1 -13 -2 3 -21 30 -34 17 -8
25 -16 17 -16 -9 0 -26 7 -39 17 -33 22 -246 23 -282 0 -17 -10 -45 -14 -94
-12 -38 2 -78 1 -88 -2 -18 -5 -18 -6 -1 -24 9 -10 12 -19 7 -19 -6 0 -16 7
-23 15 -7 8 -19 15 -26 15 -8 0 -14 6 -14 14 0 8 -6 17 -12 19 -7 3 3 6 22 6
27 1 42 9 63 32 17 19 33 29 42 25 9 -3 18 1 21 9 4 8 9 13 13 11 4 -3 20 6
36 20 16 13 39 27 52 30 13 4 23 10 23 14 0 7 13 12 53 19 5 0 18 -4 29 -10z
m478 -9 c0 -5 -8 -10 -17 -10 -15 0 -16 2 -3 10 19 12 20 12 20 0z m285 -11
c-7 -21 -5 -22 36 -17 24 3 38 4 32 1 -19 -7 -16 -33 4 -33 14 0 14 -3 5 -12
-10 -10 -14 -10 -21 0 -10 16 -45 11 -69 -11 -10 -9 -27 -17 -38 -17 -13 1 -8
5 14 15 32 14 32 15 17 39 -14 22 -14 25 0 40 22 22 28 20 20 -5z m-235 -9
c-20 -13 -33 -13 -25 0 3 6 14 10 23 10 15 0 15 -2 2 -10z m6300 -20 c0 -5 -7
-10 -15 -10 -8 0 -15 5 -15 10 0 6 7 10 15 10 8 0 15 -4 15 -10z m-6540 -101
c0 -5 4 -8 9 -4 5 3 12 1 16 -5 10 -16 -21 -12 -35 5 -9 10 -9 15 -1 15 6 0
11 -5 11 -11z m1173 -6 c-7 -2 -21 -2 -30 0 -10 3 -4 5 12 5 17 0 24 -2 18 -5z
m-2175 -48 c-3 -3 -9 2 -12 12 -6 14 -5 15 5 6 7 -7 10 -15 7 -18z m312 15
c-8 -5 -19 -10 -25 -10 -5 0 -3 5 5 10 8 5 20 10 25 10 6 0 3 -5 -5 -10z m588
-29 c3 -9 -2 -11 -17 -6 -15 4 -21 2 -21 -8 0 -8 -7 -18 -16 -21 -8 -3 -12 -2
-9 4 3 6 -2 10 -12 11 -12 0 -9 4 10 11 15 5 27 13 27 18 0 13 33 5 38 -9z
m-323 -5 c6 0 17 4 25 7 23 10 44 4 84 -23 36 -25 49 -47 21 -36 -8 3 -15 1
-15 -4 0 -6 -9 -10 -20 -10 -31 0 -24 -20 8 -21 15 -1 30 -1 35 0 4 0 7 -4 7
-10 0 -7 -10 -9 -25 -7 -13 3 -22 2 -20 -3 14 -21 -50 -51 -69 -31 -4 4 -11 7
-14 7 -4 0 -22 11 -41 24 -31 22 -32 25 -15 32 10 4 13 8 7 8 -19 1 -16 41 3
41 11 0 14 6 9 23 -3 12 -3 17 2 12 4 -6 13 -10 18 -9z m186 -4 c-7 -2 -18 1
-23 6 -8 8 -4 9 13 5 13 -4 18 -8 10 -11z m8 -55 c-2 -1 -13 -9 -24 -17 -19
-14 -19 -14 -6 3 7 9 18 17 24 17 6 0 8 -1 6 -3z m-167 -136 c8 12 9 11 6 -1
-3 -9 -19 -15 -46 -16 -23 -1 -39 2 -37 6 3 5 14 6 24 3 10 -3 22 1 27 8 6 11
8 11 12 0 4 -11 6 -11 14 0z m-112 -73 c0 -5 5 -6 10 -3 6 3 10 1 10 -4 0 -6
-16 -11 -35 -11 -29 0 -34 2 -23 13 14 15 38 18 38 5z m-70 -22 c0 -16 -27
-29 -42 -20 -5 3 -1 12 9 20 23 17 33 17 33 0z m-70 0 c0 -3 -4 -8 -10 -11 -5
-3 -10 -1 -10 4 0 6 5 11 10 11 6 0 10 -2 10 -4z m-35 -26 c18 -8 17 -9 -7 -9
-16 -1 -28 4 -28 9 0 12 8 12 35 0z m-38 -26 c-3 -3 -12 -4 -19 -1 -8 3 -5 6
6 6 11 1 17 -2 13 -5z m-730 -40 c-3 -3 -12 -4 -19 -1 -8 3 -5 6 6 6 11 1 17
-2 13 -5z m903 -18 c0 -11 -19 -15 -25 -6 -3 5 1 10 9 10 9 0 16 -2 16 -4z"/>
<path d="M3291 4004 c0 -11 3 -14 6 -6 3 7 2 16 -1 19 -3 4 -6 -2 -5 -13z"/>
<path d="M3348 4003 c7 -3 16 -2 19 1 4 3 -2 6 -13 5 -11 0 -14 -3 -6 -6z"/>
<path d="M3963 3734 c10 -3 17 -15 17 -29 0 -14 -7 -25 -17 -28 -13 -3 -12 -5
5 -6 20 -1 23 3 20 31 -2 24 -8 33 -23 35 -16 1 -16 1 -2 -3z"/>
<path d="M4025 3685 c0 -14 3 -25 8 -25 4 0 7 11 7 25 0 14 -3 25 -7 25 -5 0
-8 -11 -8 -25z"/>
<path d="M4038 3613 c6 -2 18 -2 25 0 6 3 1 5 -13 5 -14 0 -19 -2 -12 -5z"/>
<path d="M4479 3609 c-10 -6 -7 -9 14 -9 29 0 35 5 14 13 -8 3 -20 1 -28 -4z"/>
<path d="M4160 3536 c0 -35 1 -36 40 -36 39 0 40 1 36 33 -3 29 -7 32 -40 35
-35 3 -36 2 -36 -32z"/>
<path d="M5471 3594 c0 -11 3 -14 6 -6 3 7 2 16 -1 19 -3 4 -6 -2 -5 -13z"/>
<path d="M3023 3575 c0 -8 4 -12 9 -9 5 3 6 10 3 15 -9 13 -12 11 -12 -6z"/>
<path d="M1228 3423 c7 -3 16 -2 19 1 4 3 -2 6 -13 5 -11 0 -14 -3 -6 -6z"/>
<path d="M4401 3374 c0 -11 3 -14 6 -6 3 7 2 16 -1 19 -3 4 -6 -2 -5 -13z"/>
<path d="M3858 3343 c7 -3 16 -2 19 1 4 3 -2 6 -13 5 -11 0 -14 -3 -6 -6z"/>
<path d="M4160 2929 c0 -15 26 -39 34 -32 14 15 5 43 -14 43 -11 0 -20 -5 -20
-11z"/>
<path d="M2334 2879 c1 -7 12 -13 24 -14 11 -1 19 2 16 7 -4 5 -12 7 -19 4 -8
-3 -16 -1 -19 5 -2 5 -3 4 -2 -2z"/>
<path d="M4370 2681 c0 -6 5 -13 10 -16 6 -3 10 1 10 9 0 9 -4 16 -10 16 -5 0
-10 -4 -10 -9z"/>
<path d="M1360 2820 c0 -39 1 -40 35 -40 34 0 35 1 35 40 0 39 -1 40 -35 40
-34 0 -35 -1 -35 -40z"/>
<path d="M1512 2823 c3 -33 7 -38 31 -41 26 -3 27 -1 27 37 0 39 -1 41 -31 41
-29 0 -30 -2 -27 -37z"/>
<path d="M1320 2826 c0 -2 7 -7 16 -10 8 -3 12 -2 9 4 -6 10 -25 14 -25 6z"/>
<path d="M4891 2724 c0 -11 3 -14 6 -6 3 7 2 16 -1 19 -3 4 -6 -2 -5 -13z"/>
<path d="M3675 2660 c-3 -5 -1 -10 4 -10 6 0 11 5 11 10 0 6 -2 10 -4 10 -3 0
-8 -4 -11 -10z"/>
<path d="M3371 2544 c0 -11 3 -14 6 -6 3 7 2 16 -1 19 -3 4 -6 -2 -5 -13z"/>
<path d="M3305 2510 c-31 -8 -18 -14 25 -10 30 2 54 21 25 19 -11 -1 -33 -5
-50 -9z"/>
<path d="M3418 2503 c-10 -3 -18 -13 -18 -24 0 -11 -5 -29 -10 -40 -8 -13 -7
-19 0 -19 6 0 9 -4 6 -9 -8 -12 29 -21 45 -11 13 9 15 89 1 100 -4 4 -15 5
-24 3z"/>
<path d="M3230 2466 c0 -13 -5 -26 -12 -28 -6 -2 -12 -12 -14 -21 -3 -25 42
-34 65 -13 10 9 20 14 23 11 3 -3 1 12 -5 35 -9 32 -16 40 -34 40 -18 0 -23
-6 -23 -24z"/>
<path d="M3180 2365 c-1 -5 -3 -20 -6 -32 -2 -13 1 -23 7 -23 5 0 7 -6 3 -12
-5 -10 -4 -10 5 -2 9 8 10 21 3 45 -6 19 -11 30 -12 24z"/>
<path d="M3346 2359 c3 -5 16 -9 30 -9 14 0 23 4 20 9 -3 5 -17 9 -31 9 -13 0
-22 -4 -19 -9z"/>
<path d="M3418 2363 c6 -2 18 -2 25 0 6 3 1 5 -13 5 -14 0 -19 -2 -12 -5z"/>
<path d="M2410 2610 c0 -5 5 -10 11 -10 5 0 7 5 4 10 -3 6 -8 10 -11 10 -2 0
-4 -4 -4 -10z"/>
<path d="M2594 2439 c3 -17 6 -35 6 -40 0 -5 7 -9 15 -9 11 0 15 11 15 40 0
34 -3 40 -21 40 -19 0 -21 -4 -15 -31z"/>
<path d="M2485 2360 c-3 -5 -1 -10 4 -10 6 0 11 5 11 10 0 6 -2 10 -4 10 -3 0
-8 -4 -11 -10z"/>
<path d="M2600 2322 c0 -5 7 -9 15 -9 8 0 15 4 15 9 0 4 -7 8 -15 8 -8 0 -15
-4 -15 -8z"/>
<path d="M2670 2290 c0 -11 7 -20 15 -20 8 0 15 9 15 20 0 11 -7 20 -15 20 -8
0 -15 -9 -15 -20z"/>
<path d="M2730 2290 c0 -11 5 -20 10 -20 6 0 10 9 10 20 0 11 -4 20 -10 20 -5
0 -10 -9 -10 -20z"/>
<path d="M2602 2270 c0 -19 2 -27 5 -17 2 9 2 25 0 35 -3 9 -5 1 -5 -18z"/>
<path d="M2748 2253 c7 -3 16 -2 19 1 4 3 -2 6 -13 5 -11 0 -14 -3 -6 -6z"/>
<path d="M2953 2373 c-8 -3 -13 -24 -13 -53 0 -40 3 -49 21 -53 19 -5 19 -4 6
11 -19 22 -12 93 9 85 8 -3 14 0 14 6 0 11 -16 13 -37 4z"/>
<path d="M2977 2319 c7 -7 15 -10 18 -7 3 3 -2 9 -12 12 -14 6 -15 5 -6 -5z"/>
<path d="M3085 2190 c3 -5 11 -10 16 -10 6 0 7 5 4 10 -3 6 -11 10 -16 10 -6
0 -7 -4 -4 -10z"/>
<path d="M5222 2396 l-24 -13 29 0 c18 0 30 6 30 14 0 16 -5 16 -35 -1z"/>
<path d="M1835 2210 c-3 -5 1 -10 10 -10 9 0 13 5 10 10 -3 6 -8 10 -10 10 -2
0 -7 -4 -10 -10z"/>
<path d="M125 2271 c-3 -5 -2 -12 3 -15 5 -3 9 1 9 9 0 17 -3 19 -12 6z"/>
<path d="M100 2160 c0 -5 5 -10 10 -10 6 0 10 5 10 10 0 6 -4 10 -10 10 -5 0
-10 -4 -10 -10z"/>
<path d="M6488 2123 c7 -3 16 -2 19 1 4 3 -2 6 -13 5 -11 0 -14 -3 -6 -6z"/>
<path d="M1323 2075 c0 -8 4 -12 9 -9 4 3 8 9 8 15 0 5 -4 9 -8 9 -5 0 -9 -7
-9 -15z"/>
<path d="M7173 1973 c9 -2 25 -2 35 0 9 3 1 5 -18 5 -19 0 -27 -2 -17 -5z"/>
<path d="M1360 1870 c0 -5 0 -13 1 -17 0 -4 -8 -10 -18 -14 -15 -7 -14 -8 6
-8 17 -1 22 3 17 14 -3 8 -1 15 4 15 6 0 10 5 10 10 0 6 -4 10 -10 10 -5 0
-10 -4 -10 -10z"/>
<path d="M1490 1851 c0 -5 -10 -12 -22 -14 -20 -4 -19 -4 5 -6 18 -1 27 4 27
14 0 8 -2 15 -5 15 -3 0 -5 -4 -5 -9z"/>
<path d="M1395 1830 c11 -5 27 -9 35 -9 9 0 8 4 -5 9 -11 5 -27 9 -35 9 -9 0
-8 -4 5 -9z"/>
<path d="M1550 1810 c-8 -5 -10 -10 -5 -10 6 0 17 5 25 10 8 5 11 10 5 10 -5
0 -17 -5 -25 -10z"/>
<path d="M6830 1933 c0 -5 11 -8 25 -8 14 0 25 3 25 8 0 4 -11 7 -25 7 -14 0
-25 -3 -25 -7z"/>
<path d="M6858 1843 c7 -3 16 -2 19 1 4 3 -2 6 -13 5 -11 0 -14 -3 -6 -6z"/>
<path d="M1013 1803 c-25 -5 -31 -19 -11 -25 22 -8 58 4 58 18 0 14 -6 15 -47
7z"/>
<path d="M7319 1689 c-20 -12 15 -23 37 -11 15 8 14 10 -4 14 -11 3 -26 2 -33
-3z"/>
<path d="M7900 1540 c0 -5 1 -10 3 -10 1 0 17 -4 35 -9 28 -9 32 -7 32 10 0
15 -7 19 -35 19 -19 0 -35 -4 -35 -10z"/>
<path d="M8189 1342 c13 -24 32 -25 39 -2 3 8 -1 11 -10 7 -9 -3 -21 0 -28 6
-10 10 -10 7 -1 -11z"/>
<path d="M8465 1290 c3 -5 8 -10 11 -10 2 0 4 5 4 10 0 6 -5 10 -11 10 -5 0
-7 -4 -4 -10z"/>
<path d="M840 1534 c0 -9 -5 -12 -12 -8 -7 5 -8 3 -3 -5 5 -9 11 -9 17 -3 6 6
17 8 26 5 9 -4 13 -1 10 7 -6 19 -38 21 -38 4z"/>
<path d="M363 1163 c15 -2 39 -2 55 0 15 2 2 4 -28 4 -30 0 -43 -2 -27 -4z"/>
<path d="M8568 1203 c7 -3 16 -2 19 1 4 3 -2 6 -13 5 -11 0 -14 -3 -6 -6z"/>
<path d="M8466 989 c2 -4 -1 -9 -8 -11 -7 -3 -2 -7 10 -10 14 -4 20 -2 16 4
-4 7 6 9 30 6 24 -3 33 -1 26 6 -12 12 -81 16 -74 5z"/>
<path d="M3330 854 c-13 -15 -6 -17 24 -5 17 6 17 8 3 14 -8 3 -21 -1 -27 -9z"/>
<path d="M3270 820 c0 -5 7 -10 15 -10 8 0 15 5 15 10 0 6 -7 10 -15 10 -8 0
-15 -4 -15 -10z"/>
<path d="M3348 783 c6 -2 18 -2 25 0 6 3 1 5 -13 5 -14 0 -19 -2 -12 -5z"/>
<path d="M2918 723 c7 -3 16 -2 19 1 4 3 -2 6 -13 5 -11 0 -14 -3 -6 -6z"/>
<path d="M1295 600 c-3 -6 1 -7 9 -4 18 7 21 14 7 14 -6 0 -13 -4 -16 -10z"/>
<path d="M1690 570 c0 -5 7 -10 15 -10 8 0 15 5 15 10 0 6 -7 10 -15 10 -8 0
-15 -4 -15 -10z"/>
<path d="M1738 573 c7 -3 16 -2 19 1 4 3 -2 6 -13 5 -11 0 -14 -3 -6 -6z"/>
<path d="M1228 543 c7 -3 16 -2 19 1 4 3 -2 6 -13 5 -11 0 -14 -3 -6 -6z"/>
<path d="M1398 543 c6 -2 18 -2 25 0 6 3 1 5 -13 5 -14 0 -19 -2 -12 -5z"/>
<path d="M1284 438 c-4 -6 -2 -14 4 -16 7 -2 10 -8 6 -13 -3 -5 6 -9 20 -9 32
0 32 10 1 33 -18 12 -26 14 -31 5z"/>
<path d="M1294 369 c-10 -17 14 -35 28 -21 9 9 8 12 -7 12 -17 0 -18 2 -5 10
9 6 10 10 3 10 -6 0 -15 -5 -19 -11z"/>
<path d="M5687 4415 c-21 -12 -45 -32 -53 -44 -8 -11 -20 -21 -26 -21 -6 0
-19 -7 -28 -15 -13 -12 -23 -13 -48 -4 -18 6 -32 17 -32 25 0 8 -4 14 -10 14
-5 0 -10 -7 -10 -15 0 -8 -3 -15 -7 -16 -5 0 -30 -1 -58 -2 l-50 -2 3 34 c3
29 2 32 -10 20 -29 -32 -39 -59 -28 -79 16 -29 12 -59 -10 -72 -25 -16 -26
-28 -1 -28 10 0 25 10 34 23 8 12 19 18 23 14 5 -4 4 -11 -2 -15 -18 -11 -12
-42 7 -42 10 0 20 4 24 10 3 5 15 0 26 -11 21 -21 51 -21 121 -4 12 3 34 7 48
9 14 1 42 10 63 19 36 17 43 30 39 80 -3 26 47 87 83 103 l30 13 -27 1 c-16 0
-28 4 -28 9 0 18 -37 16 -73 -4z"/>
<path d="M5480 4410 c0 -5 5 -10 11 -10 5 0 7 5 4 10 -3 6 -8 10 -11 10 -2 0
-4 -4 -4 -10z"/>
<path d="M5400 4384 c0 -8 5 -12 10 -9 6 4 8 11 5 16 -9 14 -15 11 -15 -7z"/>
<path d="M4783 4278 c-10 -18 -22 -42 -28 -53 -6 -11 -26 -27 -44 -36 -18 -8
-38 -24 -43 -33 -9 -16 -5 -18 43 -15 30 2 60 0 67 -4 6 -5 12 -4 12 1 0 5 6
9 13 10 33 2 99 13 162 27 39 8 81 17 95 18 14 2 30 6 35 9 6 3 30 11 55 18
77 20 130 48 124 65 -7 17 -26 19 -52 7 -42 -21 -108 -50 -123 -55 -20 -6
-119 39 -119 55 0 6 -2 9 -5 6 -4 -3 -25 -1 -47 4 -29 6 -43 5 -48 -3 -6 -8
-13 -8 -28 0 -34 18 -51 13 -69 -21z"/>
<path d="M3315 4210 c4 -6 11 -8 16 -5 14 9 11 15 -7 15 -8 0 -12 -5 -9 -10z"/>
<path d="M5189 4197 c-40 -17 -42 -19 -25 -29 26 -15 66 -19 66 -7 0 5 6 9 13
9 15 0 47 31 47 46 0 5 -5 2 -10 -6 -6 -9 -10 -10 -10 -3 0 16 -29 13 -81 -10z"/>
<path d="M4460 4155 c-7 -8 -10 -22 -6 -30 3 -9 2 -14 -2 -11 -4 2 -14 0 -22
-6 -11 -7 -6 -8 19 -4 18 3 42 6 53 6 10 0 16 5 13 10 -6 9 22 14 78 13 12 0
14 4 8 10 -6 6 -32 11 -58 11 -26 1 -53 5 -59 9 -7 4 -17 0 -24 -8z"/>
<path d="M4795 4060 c17 -4 39 -8 50 -8 16 0 15 2 -5 8 -14 4 -36 8 -50 8 -22
0 -22 -1 5 -8z"/>
<path d="M1080 370 c0 -6 7 -10 15 -10 8 0 15 2 15 4 0 2 -7 6 -15 10 -8 3
-15 1 -15 -4z"/>
<path d="M1040 361 c0 -5 5 -13 12 -17 7 -5 3 -10 -12 -16 -27 -10 -41 -1 -20
13 11 7 9 8 -10 7 -29 -3 -49 -25 -50 -53 0 -15 -2 -17 -9 -6 -6 9 -11 10 -15
2 -4 -6 -18 -11 -31 -11 -13 0 -30 -3 -39 -6 -27 -11 -7 -24 37 -24 33 0 39
-3 27 -11 -12 -9 -12 -10 3 -5 10 3 25 6 33 6 9 0 13 4 10 9 -3 5 11 11 32 13
41 5 135 39 140 51 2 4 8 7 13 7 6 0 7 -6 3 -12 -6 -10 -4 -10 7 0 19 18 -1
33 -51 38 -23 2 -50 9 -61 14 -12 7 -19 7 -19 1z"/>
<path d="M1110 249 c0 -5 5 -7 10 -4 6 3 10 8 10 11 0 2 -4 4 -10 4 -5 0 -10
-5 -10 -11z"/>
<path d="M35 170 c3 -5 15 -10 26 -10 11 0 17 5 14 10 -3 6 -15 10 -26 10 -11
0 -17 -4 -14 -10z"/>
<path d="M0 130 c0 -5 9 -10 19 -10 11 0 25 -2 33 -3 7 -2 10 -2 5 0 -4 3 -5
9 -1 14 3 5 -9 9 -25 9 -17 0 -31 -4 -31 -10z"/>
<path d="M84 128 c-3 -4 4 -8 15 -8 11 0 22 4 25 8 2 4 -4 8 -15 8 -11 0 -23
-4 -25 -8z"/>
<path d="M160 120 c-13 -8 -13 -10 2 -10 9 0 20 5 23 10 8 13 -5 13 -25 0z"/>
<path d="M133 66 c0 -7 7 -12 16 -11 9 2 21 4 26 4 13 2 -16 21 -31 21 -6 0
-11 -6 -11 -14z"/>
<path d="M0 15 c0 -9 5 -15 11 -13 6 2 11 8 11 13 0 5 -5 11 -11 13 -6 2 -11
-4 -11 -13z"/>
</g>
</svg>
