<?xml version="1.0" standalone="no"?>
<!DOCTYPE svg PUBLIC "-//W3C//DTD SVG 20010904//EN"
 "http://www.w3.org/TR/2001/REC-SVG-20010904/DTD/svg10.dtd">
<svg version="1.0" xmlns="http://www.w3.org/2000/svg"
 width="320.000000pt" height="320.000000pt" viewBox="0 0 320.000000 320.000000"
 preserveAspectRatio="xMidYMid meet">

<g transform="translate(0.000000,320.000000) scale(0.100000,-0.100000)"
fill="#000000" stroke="none">
<path d="M0 1600 l0 -1600 1603 2 c881 1 1539 5 1462 9 -178 9 -306 24 -314
36 -3 5 -138 14 -300 20 -189 7 -296 14 -300 21 -4 7 -73 13 -186 16 -99 2
-196 7 -215 10 -19 3 -57 6 -85 6 -72 2 -105 10 -105 25 0 7 6 15 13 17 18 7
208 2 232 -5 19 -6 64 17 54 28 -3 2 -22 6 -44 7 -21 2 -40 9 -43 17 -3 9 2
11 17 6 15 -5 21 -2 21 9 0 9 3 16 8 17 29 2 65 9 82 14 11 3 20 2 20 -3 0 -5
54 -9 121 -9 101 0 119 2 115 14 -3 8 -6 19 -6 24 0 5 -11 9 -25 9 -18 0 -25
-5 -25 -20 0 -29 -18 -24 -38 10 -12 21 -23 29 -35 26 -10 -2 -21 2 -24 11 -4
11 -8 12 -13 2 -13 -20 -60 -21 -60 -1 0 15 -2 15 -10 2 -8 -13 -10 -12 -10 3
0 15 -7 18 -32 16 -35 -3 -39 0 -37 29 0 10 3 12 6 5 2 -7 13 -13 24 -13 10 0
19 6 19 13 0 9 3 9 9 -1 9 -14 22 -16 169 -28 88 -7 162 7 162 31 0 7 14 12
33 12 39 -1 77 11 77 24 0 5 9 9 20 9 11 0 20 -4 20 -10 0 -6 32 -10 75 -10
43 0 75 4 75 10 0 6 9 10 20 10 12 0 20 -7 20 -16 0 -9 -9 -18 -20 -21 -11 -3
-20 -9 -20 -13 0 -4 -10 -10 -22 -13 -49 -13 -2 -19 134 -17 209 3 268 10 268
31 0 15 48 10 54 -6 6 -15 35 -10 48 9 8 11 35 16 103 16 69 0 85 7 85 36 0
13 -4 24 -10 24 -5 0 -10 6 -10 14 0 10 -15 13 -60 11 -52 -2 -60 0 -60 16 0
14 9 19 48 21 40 3 47 6 50 26 4 26 -15 29 -34 4 -13 -16 -14 -16 -19 3 -5 17
-13 20 -43 17 -20 -3 -41 -10 -47 -17 -5 -7 -25 -15 -42 -19 -28 -5 -33 -2
-33 13 0 11 9 21 23 25 18 5 20 8 7 16 -13 9 -11 13 10 30 24 19 24 20 3 20
-12 0 -23 3 -26 8 -2 4 -2 1 -1 -5 2 -7 -3 -13 -11 -13 -20 0 -19 36 0 44 8 3
15 13 15 21 0 12 6 15 23 9 12 -3 24 -11 25 -15 5 -12 42 -11 42 1 0 6 7 10
15 10 8 0 15 -4 15 -10 0 -5 7 -10 15 -10 8 0 15 5 15 10 0 6 7 10 15 10 8 0
15 -4 15 -10 0 -15 29 -12 46 4 12 13 14 195 14 1265 l0 1251 -1600 0 -1600 0
0 -1600z m2930 -847 c0 -10 -20 -40 -20 -31 0 3 -3 13 -6 22 -4 11 -1 16 10
16 9 0 16 -3 16 -7z m-60 -50 c0 -2 -6 -10 -13 -17 -10 -10 -15 -10 -24 -1 -8
9 -8 16 -1 23 10 10 38 6 38 -5z m-70 -23 c0 -5 -4 -10 -10 -10 -5 0 -10 5
-10 10 0 6 5 10 10 10 6 0 10 -4 10 -10z m-393 -51 c-4 -13 2 -19 21 -21 35
-4 41 -28 8 -28 -14 0 -26 5 -26 10 0 6 -10 10 -22 11 -13 0 -17 3 -10 6 6 2
12 16 12 29 0 16 4 23 11 18 6 -3 9 -14 6 -25z m-369 -32 c-18 -18 -77 -41
-85 -33 -12 11 40 46 69 46 24 0 27 -2 16 -13z m322 -2 c0 -8 -7 -15 -15 -15
-8 0 -15 7 -15 15 0 8 7 15 15 15 8 0 15 -7 15 -15z m463 -1 c-3 -8 -9 -14
-14 -14 -5 0 -9 -4 -9 -10 0 -5 7 -10 15 -10 8 0 15 -9 15 -19 0 -16 -6 -19
-34 -18 -19 2 -38 6 -42 10 -4 4 -12 3 -18 -2 -14 -11 -105 -19 -106 -8 0 4 0
13 0 21 0 7 14 16 30 20 17 3 44 9 62 12 18 4 38 12 45 19 17 18 63 16 56 -1z
m-1047 -212 c6 -4 13 -14 17 -23 5 -14 1 -16 -21 -10 -15 4 -28 15 -30 24 -4
17 15 22 34 9z m14 -122 c0 -6 -13 -13 -30 -16 -16 -4 -30 -13 -30 -20 0 -8
-4 -14 -10 -14 -5 0 -10 7 -10 15 0 8 -7 15 -15 15 -8 0 -15 5 -15 11 0 8 14
10 40 6 22 -3 40 -1 40 4 0 5 7 9 15 9 8 0 15 -5 15 -10z m-820 -85 c0 -5 -5
-3 -10 5 -5 8 -10 20 -10 25 0 6 5 3 10 -5 5 -8 10 -19 10 -25z"/>
<path d="M3126 325 c4 -8 7 -15 9 -15 2 0 5 7 9 15 3 9 0 15 -9 15 -9 0 -12
-6 -9 -15z"/>
<path d="M2000 160 c0 -5 5 -10 10 -10 6 0 10 5 10 10 0 6 -4 10 -10 10 -5 0
-10 -4 -10 -10z"/>
</g>
</svg>
