<?xml version="1.0" standalone="no"?>
<!DOCTYPE svg PUBLIC "-//W3C//DTD SVG 20010904//EN"
 "http://www.w3.org/TR/2001/REC-SVG-20010904/DTD/svg10.dtd">
<svg version="1.0" xmlns="http://www.w3.org/2000/svg"
 width="320.000000pt" height="320.000000pt" viewBox="0 0 320.000000 320.000000"
 preserveAspectRatio="xMidYMid meet">

<g transform="translate(0.000000,320.000000) scale(0.100000,-0.100000)"
fill="#000000" stroke="none">
<path d="M0 1600 l0 -1600 1600 0 1600 0 0 1600 0 1600 -1600 0 -1600 0 0
-1600z m1990 1297 c40 -15 73 -38 121 -86 85 -85 111 -149 111 -269 0 -76 -3
-91 -36 -157 -42 -85 -102 -144 -186 -184 -48 -23 -68 -26 -155 -26 -90 0
-106 3 -158 28 -74 37 -147 110 -184 184 -25 53 -28 68 -28 163 0 101 1 108
34 168 97 178 289 250 481 179z m-1230 -269 l0 -270 34 -34 c39 -39 86 -45
137 -18 54 28 59 56 59 341 l0 258 61 -3 60 -4 -3 -282 -3 -283 -30 -49 c-17
-26 -50 -62 -73 -79 -37 -25 -55 -30 -116 -33 -84 -5 -129 13 -182 70 -63 66
-63 69 -64 374 0 154 0 281 0 284 0 3 27 3 60 2 l60 -4 0 -270z m718 214 l-3
-57 -47 -3 -48 -3 -2 -297 -3 -297 -58 0 -58 0 0 298 1 297 -50 0 -50 0 0 63
0 62 160 -3 161 -3 -3 -57z m-908 -302 l0 -361 -57 3 -58 3 -3 68 -3 67 -119
0 -120 0 0 -70 0 -71 -57 3 -58 3 0 205 c1 189 3 209 24 262 26 68 104 157
168 195 65 38 119 52 206 52 l77 1 0 -360z m1162 -443 l21 -48 -31 -32 c-67
-70 -70 -142 -10 -266 40 -81 42 -91 42 -176 1 -70 -3 -98 -18 -125 -29 -54
-71 -103 -105 -123 l-30 -18 -27 52 -26 52 30 23 c35 28 62 89 62 140 0 21
-17 75 -40 126 -55 121 -64 175 -45 252 9 32 24 74 35 92 25 40 98 106 112
102 5 -2 19 -25 30 -51z m-1133 -18 c28 -12 51 -24 51 -27 0 -3 -14 -27 -30
-53 -30 -46 -32 -47 -57 -34 -110 57 -268 1 -327 -116 -20 -41 -26 -67 -26
-118 0 -84 23 -134 83 -187 71 -63 166 -81 257 -49 23 8 44 15 45 15 5 0 65
-84 65 -91 0 -3 -24 -17 -52 -30 -44 -20 -70 -24 -148 -24 -88 0 -101 3 -162
33 -136 67 -210 186 -211 338 0 92 26 165 88 240 99 120 282 165 424 103z
m1890 1 c28 -13 51 -25 51 -28 0 -3 -12 -25 -27 -49 -22 -34 -32 -43 -48 -38
-92 26 -116 28 -170 16 -71 -16 -132 -62 -167 -126 -23 -41 -28 -63 -28 -120
0 -88 22 -137 83 -191 71 -63 166 -81 257 -49 23 8 44 15 46 15 4 0 64 -87 64
-93 0 -3 -24 -15 -52 -28 -44 -20 -70 -24 -148 -24 -88 0 -101 3 -162 33 -84
41 -158 120 -189 200 -34 89 -31 200 8 283 51 109 123 175 232 211 72 24 178
19 250 -12z m-1669 -285 l0 -294 88 -3 87 -3 3 -57 3 -58 -151 0 -150 0 0 348
c0 192 3 352 7 355 3 4 30 7 60 7 l53 0 0 -295z m398 281 c108 -29 210 -116
260 -224 26 -55 27 -63 30 -269 l4 -213 -61 0 -60 0 -3 66 -3 66 -115 0 -115
0 -3 -66 -3 -66 -59 0 -60 0 0 353 c0 195 3 357 7 360 11 12 126 7 181 -7z
m233 4 l59 0 0 -67 0 -68 -24 36 c-23 34 -95 89 -116 89 -5 0 -10 5 -10 11 0
6 7 8 16 5 9 -3 42 -6 75 -6z m479 -345 l0 -355 -60 0 -60 0 0 355 0 355 60 0
60 0 0 -355z m896 316 c79 -37 151 -107 190 -186 29 -59 29 -62 34 -273 l5
-212 -63 0 -63 0 2 63 3 62 -117 3 -117 3 0 -66 0 -65 -60 0 -60 0 0 349 0
350 23 5 c55 12 159 -3 223 -33z m-2351 -969 c61 -31 121 -101 139 -163 33
-110 22 -142 -112 -349 l-101 -155 104 -3 105 -3 0 -69 0 -70 -225 0 c-124 0
-225 2 -225 4 0 3 74 123 165 267 181 288 187 303 142 370 -28 41 -60 59 -109
59 -82 0 -133 -56 -131 -144 1 -50 1 -51 -48 -84 -27 -17 -51 -32 -54 -32 -3
0 -13 16 -21 35 -19 46 -18 130 3 191 21 63 103 147 158 162 59 16 163 9 210
-16z m612 2 c47 -17 121 -90 152 -152 34 -67 51 -150 51 -252 0 -187 -75 -347
-187 -401 -58 -28 -168 -31 -228 -5 -186 79 -266 427 -150 656 77 152 210 208
362 154z m639 -2 c88 -45 148 -143 148 -242 0 -77 -3 -84 -131 -278 -51 -79
-93 -145 -93 -148 0 -2 45 -4 100 -4 l100 0 0 -70 0 -70 -221 0 c-173 0 -220
3 -216 13 2 6 75 125 162 262 86 138 159 264 162 281 12 71 -55 144 -132 144
-81 0 -144 -72 -131 -151 6 -38 5 -39 -49 -75 -30 -21 -57 -35 -59 -33 -13 16
-26 82 -26 133 0 112 73 220 168 251 63 20 165 14 218 -13z m648 6 c-4 -7 -39
-55 -77 -106 -39 -51 -68 -94 -66 -95 2 -1 21 -10 42 -20 58 -26 132 -101 158
-160 36 -81 33 -175 -9 -260 -64 -129 -169 -190 -321 -185 l-86 3 -3 66 -3 65
83 0 c73 -1 89 2 133 27 68 38 88 68 93 139 5 70 -9 108 -55 149 -51 44 -76
52 -191 58 l-103 6 71 92 c38 50 70 94 70 97 0 3 -36 6 -80 6 l-80 0 0 65 0
65 216 0 c169 0 214 -3 208 -12z"/>
<path d="M1744 2786 c-52 -23 -110 -83 -134 -138 -18 -42 -21 -65 -18 -118 6
-74 24 -115 73 -165 48 -47 88 -66 154 -72 111 -10 205 40 254 136 35 70 38
163 6 227 -23 49 -86 110 -135 130 -42 18 -159 17 -200 0z"/>
<path d="M410 2771 c-49 -15 -87 -40 -124 -81 -49 -54 -66 -97 -73 -181 l-6
-69 122 0 121 0 0 170 c0 94 -3 170 -7 169 -5 0 -19 -4 -33 -8z"/>
<path d="M1150 1795 l0 -165 120 0 120 0 0 53 c0 73 -24 137 -71 191 -41 46
-109 86 -147 86 -22 0 -22 -2 -22 -165z"/>
<path d="M2700 1795 l0 -165 118 0 117 0 -6 78 c-8 114 -54 186 -144 228 -88
42 -85 47 -85 -141z"/>
<path d="M940 959 c-38 -15 -69 -49 -98 -104 -37 -73 -43 -223 -12 -315 39
-115 86 -156 167 -147 97 11 156 124 154 294 -1 141 -38 224 -117 263 -45 22
-57 23 -94 9z"/>
</g>
</svg>
