<?xml version="1.0" standalone="no"?>
<!DOCTYPE svg PUBLIC "-//W3C//DTD SVG 20010904//EN"
 "http://www.w3.org/TR/2001/REC-SVG-20010904/DTD/svg10.dtd">
<svg version="1.0" xmlns="http://www.w3.org/2000/svg"
 width="320.000000pt" height="320.000000pt" viewBox="0 0 320.000000 320.000000"
 preserveAspectRatio="xMidYMid meet">

<g transform="translate(0.000000,320.000000) scale(0.100000,-0.100000)"
fill="#000000" stroke="none">
<path d="M0 1600 l0 -1600 1600 0 1600 0 0 1600 0 1600 -1600 0 -1600 0 0
-1600z m976 1521 c-9 -14 -33 -14 -41 -1 -4 6 -1 18 6 26 11 13 14 13 27 0 8
-8 11 -19 8 -25z m648 22 c4 -9 1 -23 -7 -30 -18 -18 -53 6 -44 31 8 21 43 21
51 -1z m619 11 c9 -10 -4 -34 -18 -34 -17 0 -28 17 -20 30 7 11 28 13 38 4z
m-923 -60 c0 -14 -21 -19 -33 -7 -9 9 13 34 24 27 5 -3 9 -12 9 -20z m590 0
c0 -8 -7 -14 -15 -14 -15 0 -21 21 -9 33 10 9 24 -2 24 -19z m285 -74 c0 -16
-6 -26 -18 -28 -19 -4 -32 20 -23 44 9 25 41 13 41 -16z m-1167 -4 c4 -21 -14
-37 -35 -29 -14 5 -18 35 -6 47 12 12 38 1 41 -18z m596 8 c20 -19 5 -54 -24
-54 -29 0 -44 35 -24 54 8 9 19 16 24 16 5 0 16 -7 24 -16z m-274 -49 c0 -21
-30 -31 -40 -14 -11 17 -3 29 21 29 10 0 19 -7 19 -15z m544 7 c9 -14 -12 -35
-28 -29 -23 9 -20 37 3 37 11 0 22 -4 25 -8z m254 -54 c18 -18 14 -46 -7 -58
-37 -19 -70 38 -33 59 22 13 26 13 40 -1z m-1064 -20 c8 -14 7 -21 -6 -34 -30
-30 -75 9 -48 42 16 18 39 15 54 -8z m540 -4 c36 -35 0 -87 -44 -64 -25 13
-26 55 -2 69 23 14 28 14 46 -5z m821 -24 c0 -22 -29 -18 -33 3 -3 14 1 18 15
15 10 -2 18 -10 18 -18z m410 10 c3 -5 -1 -10 -10 -10 -9 0 -13 5 -10 10 3 6
8 10 10 10 2 0 7 -4 10 -10z m-2112 -27 c9 -9 -13 -34 -24 -27 -14 8 -11 34 4
34 8 0 17 -3 20 -7z m630 -5 c7 -21 -4 -38 -23 -38 -10 0 -20 6 -23 13 -7 20
4 37 23 37 10 0 20 -6 23 -12z m500 0 c7 -21 -4 -38 -23 -38 -23 0 -32 13 -24
34 7 19 40 21 47 4z m-1551 -13 c0 -5 -5 -11 -11 -13 -6 -2 -11 4 -11 13 0 9
5 15 11 13 6 -2 11 -8 11 -13z m1796 -62 c4 -24 -20 -46 -44 -41 -9 2 -23 13
-31 25 -13 19 -12 24 7 43 19 19 24 20 43 7 12 -8 23 -23 25 -34z m-987 18
c26 -21 21 -43 -14 -65 -23 -15 -60 20 -51 48 12 39 32 44 65 17z m1635 -17
c-5 -13 -10 -14 -18 -6 -6 6 -8 18 -4 28 5 13 10 14 18 6 6 -6 8 -18 4 -28z
m-388 -7 c4 -20 -25 -34 -40 -19 -15 15 -1 44 19 40 10 -2 19 -11 21 -21z
m-1960 -34 c-10 -12 -14 -12 -27 2 -14 14 -14 17 -1 25 21 13 44 -8 28 -27z
m1210 25 c34 -34 -6 -90 -48 -68 -35 19 -20 80 20 80 9 0 21 -5 28 -12z m-805
-12 c8 -19 -15 -37 -32 -26 -17 10 -7 40 13 40 7 0 16 -6 19 -14z m565 -15
c20 -12 10 -46 -14 -49 -25 -4 -40 24 -23 44 13 16 19 17 37 5z m457 -1 c3 -5
2 -10 -3 -10 -5 0 -14 -10 -19 -22 -10 -21 -12 -21 -18 -5 -14 34 22 67 40 37z
m843 -34 c4 -21 -14 -37 -35 -29 -14 5 -18 35 -6 47 12 12 38 1 41 -18z
m-2164 -29 c16 -25 -16 -56 -38 -37 -19 15 -21 46 -3 53 18 8 29 3 41 -16z
m1519 17 c12 -4 12 -11 2 -42 -16 -45 -40 -53 -56 -18 -10 22 -9 29 6 46 19
21 25 23 48 14z m265 -22 c4 -26 -22 -40 -43 -22 -11 9 -12 17 -4 32 13 25 43
19 47 -10z m-1118 3 c20 -25 6 -31 -17 -7 -14 14 -18 22 -9 22 8 0 19 -7 26
-15z m-292 -17 c18 -18 14 -30 -8 -23 -13 4 -20 2 -20 -6 0 -10 -3 -10 -11 -2
-14 14 -5 43 14 43 7 0 18 -5 25 -12z m251 -24 c21 -11 29 -20 23 -26 -12 -12
-47 5 -56 27 -7 19 -6 19 33 -1z m1461 -24 c0 -25 -30 -41 -53 -29 -39 22 -4
79 35 58 10 -5 18 -18 18 -29z m-529 -20 c-5 -24 -9 -31 -15 -21 -5 7 -3 23 5
37 16 31 19 27 10 -16z m-1467 14 c21 -20 20 -37 -2 -57 -16 -15 -20 -15 -40
-1 -26 18 -28 31 -5 56 20 22 27 22 47 2z m810 0 c7 -19 -10 -44 -29 -44 -19
0 -36 25 -29 44 3 9 16 16 29 16 13 0 26 -7 29 -16z m414 -12 c4 -24 -27 -45
-47 -33 -10 7 -10 14 4 35 20 30 39 30 43 -2z m299 -9 c-3 -10 -5 -4 -5 12 0
17 2 24 5 18 2 -7 2 -21 0 -30z m103 -38 c-17 -21 -54 -15 -58 9 -3 11 4 26
14 33 16 11 21 10 38 -6 16 -17 17 -22 6 -36z m-1708 28 c1 -10 46 -53 56 -53
4 0 18 7 30 16 13 9 25 14 28 12 10 -11 -30 -69 -51 -74 -22 -5 -31 -1 -70 34
-7 6 -18 12 -23 12 -14 0 -2 41 14 47 8 3 11 10 7 17 -3 6 -3 8 1 4 4 -3 8
-10 8 -15z m1476 -16 c5 -23 -10 -21 -26 4 -12 18 -11 20 5 17 10 -2 19 -11
21 -21z m-785 -17 c16 -26 16 -31 3 -36 -40 -15 -72 20 -46 51 17 21 23 19 43
-15z m-236 -27 c52 -63 78 -103 65 -103 -14 0 -83 86 -75 94 4 3 2 6 -4 6 -6
0 -18 11 -27 25 -28 42 -1 28 41 -22z m1068 6 c-21 -39 -26 -37 -13 6 6 19 15
32 20 29 4 -3 1 -18 -7 -35z m72 19 c-3 -8 -6 -5 -6 6 -1 11 2 17 5 13 3 -3 4
-12 1 -19z m387 6 c21 -21 20 -37 -5 -60 -15 -13 -24 -16 -36 -8 -32 20 -38
41 -19 63 23 25 39 26 60 5z m-1794 -34 c15 -29 3 -59 -26 -66 -30 -8 -54 11
-54 40 0 46 59 64 80 26z m1391 -17 c-12 -20 -14 -14 -5 12 4 9 9 14 11 11 3
-2 0 -13 -6 -23z m-1152 -43 l31 -39 -27 -3 c-14 -2 -31 -11 -37 -21 -9 -15
-3 -25 37 -62 48 -45 55 -59 37 -70 -5 -3 -10 -2 -10 3 0 11 -45 32 -67 32 -9
0 -24 -7 -34 -16 -14 -12 -22 -13 -38 -4 -44 23 -11 91 35 73 12 -4 15 -3 10
5 -4 7 -16 12 -26 12 -25 0 -37 20 -19 34 8 6 13 18 11 27 -2 10 5 19 18 22
11 3 17 1 14 -4 -3 -5 6 -4 21 3 l25 11 -22 24 c-15 16 -17 22 -6 18 8 -3 30
-24 47 -45z m475 44 c17 -7 22 -54 6 -54 -6 0 -15 12 -20 26 -15 37 -14 39 14
28z m816 -43 c-28 -56 -35 -52 -8 4 12 24 23 43 26 41 2 -2 -6 -22 -18 -45z
m-77 17 c8 -12 7 -21 -3 -33 -8 -10 -15 -25 -15 -34 -1 -9 -2 -26 -3 -38 -1
-13 -6 -23 -11 -23 -6 0 -6 13 1 31 10 28 8 34 -12 49 -13 10 -30 16 -37 13
-7 -3 -13 0 -13 7 0 6 5 8 11 4 7 -4 10 -1 7 7 -12 34 55 49 75 17z m689 7 c0
-5 -5 -11 -11 -13 -6 -2 -11 4 -11 13 0 9 5 15 11 13 6 -2 11 -8 11 -13z
m-967 -14 c-3 -6 -11 -11 -16 -11 -5 0 -4 6 3 14 14 16 24 13 13 -3z m529 -23
c31 -44 -32 -91 -66 -48 -22 27 -22 34 -2 54 22 22 50 20 68 -6z m-2089 -9 c0
-7 -8 -15 -17 -17 -18 -3 -25 18 -11 32 10 10 28 1 28 -15z m477 -6 c22 -20
23 -46 3 -63 -9 -7 -12 -18 -8 -24 5 -7 -4 1 -18 18 -17 19 -32 27 -42 23 -14
-5 -15 -2 -6 21 17 44 41 52 71 25z m1953 -24 c0 -7 -8 -15 -17 -17 -18 -3
-25 18 -11 32 10 10 28 1 28 -15z m-566 -28 c-13 -11 -28 -20 -34 -21 -5 0 4
11 20 24 36 29 49 25 14 -3z m72 6 c-10 -9 -11 -8 -5 6 3 10 9 15 12 12 3 -3
0 -11 -7 -18z m-1825 -8 c10 -17 -23 -46 -37 -32 -7 7 -9 19 -6 27 7 18 33 21
43 5z m1886 -16 c22 -20 22 -27 2 -47 -23 -23 -49 -19 -62 9 -9 19 -8 27 4 40
20 19 33 19 56 -2z m333 -43 c-3 -5 -13 -10 -21 -10 -8 0 -12 5 -9 10 3 6 13
10 21 10 8 0 12 -4 9 -10z m-2110 -25 c0 -23 -34 -33 -45 -14 -13 20 1 40 24
37 13 -2 21 -10 21 -23z m1985 -9 c0 -2 -8 -10 -17 -17 -16 -13 -17 -12 -4 4
13 16 21 21 21 13z m-1655 -45 c-3 -6 -11 -11 -16 -11 -5 0 -4 6 3 14 14 16
24 13 13 -3z m-810 0 c7 -12 -12 -24 -25 -16 -11 7 -4 25 10 25 5 0 11 -4 15
-9z m589 -8 c9 -21 -16 -46 -37 -37 -17 6 -23 35 -10 47 12 13 41 7 47 -10z
m-465 -37 c9 -10 8 -16 -4 -26 -19 -15 -47 3 -38 26 7 18 27 18 42 0z m576
-27 c11 -16 2 -17 -25 -2 -24 12 -24 13 -3 13 12 0 25 -5 28 -11z m-447 -25
c2 -11 -4 -27 -13 -34 -13 -11 -19 -10 -35 5 -15 14 -17 22 -9 37 14 26 53 20
57 -8z m1990 -24 c-7 -11 -16 -20 -21 -20 -4 0 -3 9 3 20 6 11 15 20 20 20 6
0 5 -9 -2 -20z m486 -2 c8 -14 7 -21 -6 -34 -30 -30 -75 9 -48 42 16 18 39 15
54 -8z m-2363 -7 c20 -16 22 -23 13 -38 -14 -23 -41 -28 -59 -13 -18 15 -19
42 -3 58 16 16 22 15 49 -7z m2233 -37 c29 -29 -17 -80 -49 -54 -18 15 -19 42
-3 58 16 16 33 15 52 -4z m-2100 -10 c22 -21 20 -40 -6 -58 -39 -28 -84 20
-52 55 21 23 38 24 58 3z m1984 -36 c22 -22 14 -39 -15 -32 -41 10 -45 14 -32
30 14 17 31 18 47 2z m-1885 -26 c-5 -11 -2 -14 10 -9 9 3 17 2 17 -3 0 -11
-29 -40 -40 -40 -9 0 -40 28 -40 36 0 3 4 14 10 24 12 23 52 16 43 -8z m121
-38 c20 -19 20 -28 1 -44 -30 -25 -70 15 -45 45 16 19 25 19 44 -1z m114 -57
c3 -12 -4 -17 -22 -17 -28 0 -33 9 -14 28 15 15 32 10 36 -11z m-796 -2 c0 -5
-5 -11 -11 -13 -6 -2 -11 4 -11 13 0 9 5 15 11 13 6 -2 11 -8 11 -13z m133
-25 c0 -22 -29 -18 -33 3 -3 14 1 18 15 15 10 -2 18 -10 18 -18z m130 -10 c4
-6 1 -18 -6 -26 -11 -13 -14 -13 -27 0 -8 8 -11 19 -8 25 9 14 33 14 41 1z
m125 -15 c15 -18 6 -45 -13 -45 -8 0 -20 7 -27 15 -10 12 -10 18 0 30 16 19
24 19 40 0z m2237 -20 c2 -17 1 -17 -3 -2 -4 11 -12 16 -20 13 -8 -3 -14 -1
-14 5 0 19 35 4 37 -16z m-2109 3 c7 -7 12 -20 12 -30 0 -13 -8 -18 -30 -18
-22 0 -30 5 -30 18 0 17 18 42 30 42 3 0 11 -5 18 -12z m1989 -13 c2 -5 -10
-10 -27 -10 -30 0 -36 5 -23 19 10 10 46 3 50 -9z m-127 -25 c0 -5 -2 -10 -4
-10 -3 0 -8 5 -11 10 -3 6 -1 10 4 10 6 0 11 -4 11 -10z m-2136 -169 c19 -21
12 -48 -15 -56 -38 -12 -65 35 -37 63 17 17 32 15 52 -7z m146 -1 c8 -14 8
-26 0 -40 -19 -35 -80 -20 -80 20 0 40 61 55 80 20z m114 4 c20 -20 20 -30 0
-38 -32 -12 -64 -7 -64 12 0 38 37 54 64 26z m-390 -9 c8 -22 -4 -45 -24 -45
-28 0 -45 27 -30 45 7 8 20 15 30 15 10 0 20 -7 24 -15z m-139 -15 c0 -8 -8
-16 -17 -18 -10 -2 -18 1 -18 7 0 6 8 8 18 5 14 -5 14 -3 -3 11 l-20 17 20 -4
c11 -2 20 -10 20 -18z m2535 6 c0 -2 -9 -6 -20 -9 -11 -3 -20 -1 -20 4 0 5 9
9 20 9 11 0 20 -2 20 -4z m-2023 -82 c-3 -3 -12 -4 -19 -1 -8 3 -5 6 6 6 11 1
17 -2 13 -5z m137 -109 c3 -10 -3 -17 -20 -21 -44 -11 -70 -94 -29 -94 8 0 15
-7 15 -15 0 -10 -10 -15 -27 -15 -31 0 -71 19 -43 20 9 0 11 3 5 8 -15 11 -18
42 -5 57 9 11 7 12 -9 8 -23 -6 -51 12 -51 32 0 9 11 12 38 8 25 -3 49 0 68
10 37 20 50 21 58 2z m-225 -29 c9 -11 8 -18 -4 -30 -9 -9 -20 -16 -24 -16
-16 0 -31 28 -25 44 8 20 37 21 53 2z m-129 -31 c0 -7 -6 -18 -14 -24 -20 -17
-44 13 -26 33 13 17 40 10 40 -9z m-135 -26 c0 -7 -8 -15 -17 -17 -18 -3 -25
18 -11 32 10 10 28 1 28 -15z m-133 -24 c0 -5 -5 -11 -11 -13 -6 -2 -11 4 -11
13 0 9 5 15 11 13 6 -2 11 -8 11 -13z m2226 3 c-3 -7 -13 -13 -23 -13 -10 0
-20 6 -22 13 -3 7 5 12 22 12 17 0 25 -5 23 -12z m110 -41 c4 -20 -25 -34 -40
-19 -15 15 -1 44 19 40 10 -2 19 -11 21 -21z m117 -47 c0 -16 -6 -26 -17 -28
-13 -3 -16 1 -12 13 6 13 8 14 15 3 7 -10 9 -9 9 4 0 26 -19 32 -42 11 -21
-18 -21 -18 -9 5 17 32 56 27 56 -8z m-1827 -27 c32 -13 34 -17 17 -22 -43
-13 -84 -42 -91 -63 -5 -17 0 -27 21 -45 l27 -23 -50 -58 c-65 -74 -92 -98
-120 -107 -22 -6 -23 -5 -13 14 7 12 17 21 24 21 7 0 13 8 14 18 1 21 12 71
20 97 4 11 8 22 8 25 1 3 9 22 18 44 9 21 17 42 17 47 0 4 5 11 12 15 7 4 8 3
4 -4 -4 -8 -2 -10 7 -6 12 4 10 10 -9 29 -36 36 -31 49 17 41 23 -4 57 -14 77
-23z m-140 -31 c2 -13 -6 -27 -23 -38 -24 -16 -27 -16 -45 1 -26 24 -25 50 2
69 19 13 25 14 43 2 11 -7 21 -23 23 -34z m2047 -21 c-6 -5 -25 10 -25 20 0 5
6 4 14 -3 8 -7 12 -15 11 -17z m-2193 -8 c24 -21 23 -38 -4 -57 -39 -28 -79
13 -52 53 18 25 31 26 56 4z m558 10 c0 -19 -71 -151 -84 -156 -19 -7 -21 -48
-4 -65 8 -8 17 -8 30 -1 36 19 118 -16 102 -43 -3 -5 2 -8 11 -8 14 0 16 -7
10 -38 -7 -45 11 -68 45 -57 21 7 21 6 4 -32 -25 -57 -54 -152 -54 -176 -1
-19 -2 -20 -11 -5 -8 15 -14 15 -47 4 -21 -7 -48 -9 -62 -5 -31 9 -64 11 -40
2 32 -12 40 -24 29 -44 -5 -10 -16 -19 -24 -19 -16 0 -38 34 -28 43 3 3 -10 4
-28 2 -19 -2 -56 -7 -82 -10 -27 -2 -64 -12 -83 -21 -18 -9 -41 -13 -50 -10
-11 4 -15 2 -11 -7 4 -10 -1 -13 -18 -10 -16 4 -24 -1 -28 -16 -3 -12 -13 -21
-22 -21 -15 0 -15 1 0 16 9 9 15 26 13 38 -3 24 -52 46 -68 30 -6 -6 -1 -10
16 -9 37 0 56 -31 29 -51 -24 -18 -37 -14 -51 14 -15 30 -27 41 -18 17 4 -11
15 -29 25 -40 34 -38 -14 -60 -48 -23 -19 21 -20 28 -11 69 8 35 17 48 38 57
24 11 28 19 29 55 2 88 3 97 12 103 5 3 7 9 4 13 -2 5 0 22 5 40 5 17 5 29 0
26 -4 -2 -10 4 -13 16 -4 16 -3 18 8 9 19 -16 51 7 121 86 63 72 92 93 104 74
6 -9 9 -9 15 0 4 6 13 9 21 6 8 -3 14 1 14 9 0 10 6 12 18 8 15 -6 15 -5 3 10
-11 14 -10 18 13 28 14 7 33 23 41 36 20 30 73 63 103 63 12 0 22 -3 22 -7z
m-676 -75 c8 -14 7 -21 -6 -34 -30 -30 -75 9 -48 42 16 18 39 15 54 -8z m2126
-36 c-7 -3 -19 3 -28 13 -16 15 -15 16 12 4 15 -7 23 -15 16 -17z m-2252 -25
c4 -20 -25 -34 -40 -19 -15 15 -1 44 19 40 10 -2 19 -11 21 -21z m2378 -8 c8
-14 -21 -43 -35 -35 -6 4 -11 16 -11 27 0 21 34 27 46 8z m-2506 -44 c0 -8 -4
-15 -9 -15 -13 0 -22 16 -14 24 11 11 23 6 23 -9z m2607 -31 c8 -21 -13 -42
-28 -27 -13 13 -5 43 11 43 6 0 13 -7 17 -16z m-326 -10 c9 -11 10 -20 2 -32
-14 -22 -53 -22 -67 1 -9 15 -7 21 8 33 25 18 40 18 57 -2z m429 -69 c0 -8 -7
-15 -15 -15 -16 0 -20 12 -8 23 11 12 23 8 23 -8z m-354 -20 c22 -21 25 -27
14 -40 -32 -38 -94 1 -70 45 14 26 23 25 56 -5z m-1966 -10 c13 -16 6 -35 -15
-35 -18 0 -28 17 -21 35 7 19 20 19 36 0z m1723 -78 c-3 -5 -14 1 -24 14 -27
35 -23 46 6 19 13 -12 22 -27 18 -33z m-403 -19 c0 -23 -26 -23 -39 -1 -6 12
-6 24 1 37 10 19 11 19 24 1 8 -10 14 -27 14 -37z m767 6 c3 -9 -3 -25 -14
-36 -17 -16 -25 -18 -41 -9 -30 16 -34 39 -12 61 17 17 24 18 41 10 11 -6 23
-18 26 -26z m-2193 -5 c-8 -14 -34 -11 -34 4 0 8 3 17 7 20 9 9 34 -13 27 -24z
m968 5 c-3 -19 -7 -22 -13 -12 -7 11 -9 10 -9 -1 0 -8 -3 -12 -6 -8 -10 9 6
47 20 47 9 0 12 -9 8 -26z m-173 -66 c-22 -75 -53 -115 -38 -50 7 35 45 112
54 112 2 0 -5 -28 -16 -62z m861 32 c16 -16 18 -25 10 -40 -6 -11 -15 -20 -20
-20 -16 0 -43 49 -36 65 7 20 22 19 46 -5z m238 -25 c6 -14 10 -25 9 -25 -2 0
-14 11 -27 25 -18 19 -20 25 -8 25 8 0 20 -11 26 -25z m-324 -3 c3 -5 -1 -9
-9 -9 -8 0 -12 4 -9 9 3 4 7 8 9 8 2 0 6 -4 9 -8z m-710 -41 c-11 -2 -22 -8
-26 -15 -5 -6 -8 0 -8 15 0 36 10 42 33 22 19 -17 19 -18 1 -22z m1409 17 c14
-21 2 -48 -22 -48 -30 0 -45 34 -25 55 18 18 33 16 47 -7z m-1213 -12 c-1 -16
-25 -46 -39 -46 -6 0 -11 2 -11 4 0 2 -3 11 -6 19 -3 8 2 22 11 30 17 17 45
13 45 -7z m420 -15 c0 -29 -25 -45 -49 -31 -25 13 -27 45 -4 59 23 12 53 -4
53 -28z m224 -110 c-2 -2 -17 2 -34 9 -19 8 -33 22 -36 39 -4 14 -16 37 -27
51 -12 14 6 -2 39 -35 33 -33 59 -62 58 -64z m8 82 c32 -38 32 -46 -1 -27 -46
27 -59 44 -34 44 11 0 27 -8 35 -17z m-860 -18 c10 -22 9 -29 -9 -47 -12 -11
-28 -18 -36 -15 -12 4 -13 13 -4 46 13 47 32 53 49 16z m1129 -28 c-13 -13
-42 0 -49 22 -3 9 2 11 16 7 12 -4 24 -2 28 6 6 10 9 8 12 -6 2 -10 -1 -23 -7
-29z m384 -2 c0 -23 -34 -33 -46 -14 -10 17 9 41 30 37 9 -2 16 -12 16 -23z
m-867 -52 c-2 -9 -11 -21 -21 -27 -15 -9 -21 -7 -33 8 -12 17 -12 22 2 37 13
14 21 16 36 8 11 -6 18 -17 16 -26z m-234 14 c38 -27 -2 -95 -41 -71 -25 16
-29 55 -7 71 10 7 21 13 24 13 3 0 14 -6 24 -13z m-224 -16 c0 -17 -27 -37
-37 -27 -6 6 20 46 29 46 5 0 8 -9 8 -19z m1018 -24 c4 -21 -25 -34 -40 -19
-8 8 -8 16 2 27 16 19 34 15 38 -8z m-294 -3 c9 -8 16 -22 16 -29 0 -18 -27
-45 -45 -45 -19 0 -45 28 -45 49 0 38 45 54 74 25z m-974 -9 c26 -32 -13 -81
-47 -59 -23 14 -28 41 -13 59 16 19 44 19 60 0z m1660 0 c0 -8 -7 -15 -15 -15
-8 0 -15 7 -15 15 0 8 7 15 15 15 8 0 15 -7 15 -15z m-1953 -6 c14 -14 6 -39
-12 -39 -18 0 -28 17 -21 35 6 18 18 19 33 4z m-389 -32 c4 -20 -25 -34 -40
-19 -15 15 -1 44 19 40 10 -2 19 -11 21 -21z m905 -39 c7 -21 -4 -38 -23 -38
-10 0 -20 6 -23 13 -7 20 4 37 23 37 10 0 20 -6 23 -12z m502 -13 c0 -22 -31
-33 -47 -17 -17 17 -1 44 24 40 15 -2 23 -10 23 -23z m-254 5 c25 -14 25 -56
-1 -70 -45 -24 -86 44 -42 69 21 13 20 13 43 1z m866 -5 c7 -20 -2 -29 -21
-22 -9 4 -13 13 -10 22 8 19 23 19 31 0z m-1699 -38 c2 -10 -3 -17 -12 -17
-18 0 -29 16 -21 31 9 14 29 6 33 -14z m1389 7 c8 -22 -10 -49 -32 -49 -22 0
-40 27 -32 49 8 21 56 21 64 0z m-1809 -11 c-4 -22 -22 -20 -26 1 -2 10 3 16
13 16 10 0 15 -7 13 -17z m738 -5 c7 -22 -19 -52 -40 -45 -17 6 -29 34 -23 51
10 24 54 21 63 -6z m241 -78 c3 -11 9 -17 15 -14 5 3 15 0 23 -6 11 -9 15 -9
15 -1 0 14 37 15 45 1 5 -8 11 -7 20 0 8 7 18 9 23 7 4 -3 14 -2 22 3 7 4 23
4 35 0 14 -5 27 -4 33 2 7 7 23 7 49 1 31 -7 38 -13 38 -33 0 -23 -4 -25 -48
-27 -41 -2 -49 1 -57 20 l-9 22 0 -22 c-1 -14 -7 -23 -16 -23 -9 0 -16 10 -16
23 -1 17 -3 15 -8 -8 -4 -21 -13 -31 -29 -33 -15 -2 -22 2 -22 12 0 9 -6 15
-12 14 -7 -2 -12 5 -10 15 2 10 -3 17 -13 17 -8 0 -15 -8 -15 -18 0 -12 -9
-18 -27 -20 -15 -1 -30 -8 -35 -15 -4 -7 -8 4 -8 27 0 22 -3 36 -7 33 -10 -11
-32 13 -26 29 8 21 34 17 40 -6z m548 10 c8 -13 -14 -42 -26 -34 -5 3 -10 -7
-10 -23 -2 -23 -2 -24 -6 -5 -2 12 -9 22 -14 22 -5 0 -10 -10 -10 -22 l-2 -23
-4 23 c-5 26 -23 30 -23 4 0 -16 -9 -18 -59 -18 -58 0 -58 0 -51 25 6 25 10
26 79 27 57 1 75 4 83 17 10 19 33 22 43 7z m324 -38 c7 -13 6 -23 -1 -30 -26
-26 -64 -2 -47 30 5 10 16 18 24 18 8 0 19 -8 24 -18z m-1174 -22 c0 -29 -32
-41 -41 -16 -9 24 4 48 23 44 12 -2 18 -12 18 -28z m273 -77 c-4 -22 -22 -20
-26 1 -2 10 3 16 13 16 10 0 15 -7 13 -17z m596 8 c3 -5 -1 -15 -10 -22 -13
-10 -17 -10 -24 1 -5 8 -6 18 -4 22 7 11 31 10 38 -1z m-290 -30 c10 -16 -5
-41 -24 -41 -23 0 -34 16 -26 35 6 16 42 20 50 6z m644 -8 c5 -17 -26 -29 -40
-15 -6 6 -7 15 -3 22 9 14 37 9 43 -7z m-1270 -10 c5 -17 -26 -29 -40 -15 -6
6 -7 15 -3 22 9 14 37 9 43 -7z"/>
<path d="M619 2523 c-13 -16 -12 -17 4 -4 9 7 17 15 17 17 0 8 -8 3 -21 -13z"/>
<path d="M980 2496 c0 -2 8 -10 18 -17 15 -13 16 -12 3 4 -13 16 -21 21 -21
13z"/>
<path d="M2756 2104 c-4 -10 -2 -22 3 -27 14 -14 43 0 39 20 -4 24 -34 28 -42
7z"/>
<path d="M2420 1265 c0 -8 5 -15 10 -15 6 0 10 7 10 15 0 8 -4 15 -10 15 -5 0
-10 -7 -10 -15z"/>
<path d="M940 880 c0 -5 5 -10 11 -10 5 0 7 5 4 10 -3 6 -8 10 -11 10 -2 0 -4
-4 -4 -10z"/>
<path d="M958 801 c3 -9 2 -13 -3 -9 -9 8 -65 -95 -65 -119 0 -18 30 -29 39
-14 5 7 6 23 4 35 -3 13 7 46 20 73 18 36 22 50 12 50 -8 0 -11 -7 -7 -16z"/>
<path d="M618 543 c7 -3 16 -2 19 1 4 3 -2 6 -13 5 -11 0 -14 -3 -6 -6z"/>
<path d="M1355 191 c-7 -12 12 -24 25 -16 11 7 4 25 -10 25 -5 0 -11 -4 -15
-9z"/>
<path d="M1465 191 c-7 -12 12 -24 25 -16 11 7 4 25 -10 25 -5 0 -11 -4 -15
-9z"/>
<path d="M1638 173 c7 -3 16 -2 19 1 4 3 -2 6 -13 5 -11 0 -14 -3 -6 -6z"/>
<path d="M1707 194 c-8 -8 1 -24 14 -24 5 0 9 7 9 15 0 15 -12 20 -23 9z"/>
<path d="M1750 185 c0 -9 5 -15 11 -13 6 2 11 8 11 13 0 5 -5 11 -11 13 -6 2
-11 -4 -11 -13z"/>
</g>
</svg>
